; Drill file
; Format: 2.4 (00.0000)
M48
INCH
T01C0.0118
T02C0.0236
T03C0.0669
T04C0.0787
%
G05
G90
T01
X005590Y025910
X004170Y027170
X001890Y028390
X003110Y029760
X003110Y030790
X002090Y030830
X001460Y030830
X000830Y030830
X000830Y031540
X000830Y032170
X000830Y032800
X000830Y033460
X001460Y033460
X002090Y033460
X002910Y032910
X005120Y031810
X005120Y031300
X006020Y032910
X007200Y032830
X007320Y032440
X007400Y033430
X007800Y034290
X008700Y034610
X009570Y034800
X010000Y034800
X010310Y034800
X010670Y034800
X011020Y034800
X012170Y034020
X012830Y033430
X013390Y032480
X011850Y030830
X011420Y030830
X010630Y030000
X010280Y030000
X009920Y030000
X009330Y030120
X009570Y031380
X009210Y031730
X008860Y031380
X008860Y032090
X009570Y032090
X009920Y031730
X010280Y031380
X010630Y031730
X010310Y032050
X007830Y030870
X007320Y029960
X007280Y029570
X007320Y028310
X007400Y027400
X006810Y027400
X008310Y027010
X008310Y028310
X008580Y028780
X011420Y028310
X011420Y027010
X013390Y028820
X013940Y029800
X012320Y029800
X012480Y035870
X007870Y035390
X006460Y036180
X000870Y034450
T02
X013900Y027050
X013900Y028350
X013900Y033580
X013900Y034880
T03
X002090Y006340
X012480Y006340
X017050Y006340
X027440Y006340
X027440Y020830
X027440Y023660
X017050Y023660
X017050Y020830
X012480Y020830
X002090Y020830
X017050Y038150
X027440Y038150
T04
X001180Y023620
X013390Y023620
X013390Y038190
X001180Y038190
M30
