%FSLAX34Y34*%
%MOMM*%
%LNCOPPER_BOTTOM*%
G71*
G01*
%ADD10C, 0.10*%
%ADD11C, 0.30*%
%LPD*%
G54D10*
X514000Y499000D02*
X514000Y491000D01*
X518000Y491000D01*
X520000Y493000D01*
X520000Y499000D01*
X514000Y499000D01*
G54D10*
X527000Y491000D02*
X523000Y491000D01*
X522000Y492000D01*
X522000Y496000D01*
X523000Y497000D01*
X527000Y497000D01*
X527000Y494000D01*
X522000Y494000D01*
G54D10*
X529000Y491000D02*
X532000Y491000D01*
X532000Y493000D01*
X531000Y494000D01*
X529000Y494000D01*
X529000Y496000D01*
X530000Y497000D01*
X532000Y497000D01*
G54D10*
X534000Y491000D02*
X534000Y497000D01*
G54D10*
X537000Y489000D02*
X540000Y489000D01*
X540000Y497000D01*
X537000Y497000D01*
X536000Y496000D01*
X536000Y492000D01*
X540000Y492000D01*
G54D10*
X542000Y491000D02*
X542000Y497000D01*
X542000Y495000D01*
X542000Y496000D01*
X543000Y497000D01*
X545000Y497000D01*
X546000Y496000D01*
X546000Y491000D01*
G54D10*
X553000Y491000D02*
X549000Y491000D01*
X548000Y492000D01*
X548000Y496000D01*
X549000Y497000D01*
X553000Y497000D01*
X553000Y494000D01*
X548000Y494000D01*
G54D10*
X559000Y499000D02*
X559000Y491000D01*
X556000Y491000D01*
X555000Y492000D01*
X555000Y496000D01*
X559000Y496000D01*
G54D10*
X568000Y499000D02*
X568000Y491000D01*
X572000Y491000D01*
X572000Y495000D01*
X571000Y496000D01*
X568000Y496000D01*
G54D10*
X574000Y490000D02*
X577000Y490000D01*
X577000Y496000D01*
X577000Y491000D01*
X577000Y492000D01*
X576000Y492000D01*
X574000Y494000D01*
X574000Y496000D01*
G54D10*
X512000Y192000D02*
X512000Y197000D01*
X512000Y195000D01*
X512000Y196000D01*
X513000Y197000D01*
X514000Y197000D01*
G54D10*
X516000Y192000D02*
X520000Y192000D01*
X520000Y196000D01*
X519000Y197000D01*
X518000Y197000D01*
X516000Y195000D01*
X516000Y192000D01*
G54D10*
X505000Y192000D02*
X505000Y200000D01*
X509000Y200000D01*
X510000Y199000D01*
X510000Y195000D01*
G54D10*
X505000Y195000D02*
X510000Y195000D01*
G54D10*
X523000Y189000D02*
X526000Y189000D01*
X526000Y197000D01*
X523000Y197000D01*
X522000Y196000D01*
X522000Y192000D01*
X526000Y192000D01*
G54D10*
X528000Y192000D02*
X528000Y197000D01*
X528000Y195000D01*
X528000Y196000D01*
X529000Y197000D01*
X530000Y197000D01*
G54D10*
X532000Y197000D02*
X534000Y197000D01*
X535000Y196000D01*
X535000Y192000D01*
X531000Y192000D01*
X531000Y194000D01*
X532000Y195000D01*
X535000Y195000D01*
G54D10*
X537000Y192000D02*
X537000Y197000D01*
X537000Y196000D01*
X538000Y197000D01*
X539000Y197000D01*
X540000Y196000D01*
X540000Y192000D01*
X540000Y196000D01*
X541000Y197000D01*
X542000Y197000D01*
X543000Y196000D01*
X543000Y192000D01*
G54D10*
X545000Y192000D02*
X545000Y197000D01*
X545000Y196000D01*
X546000Y197000D01*
X547000Y197000D01*
X548000Y196000D01*
X548000Y192000D01*
X548000Y196000D01*
X549000Y197000D01*
X550000Y197000D01*
X551000Y196000D01*
X551000Y192000D01*
G54D10*
X557000Y192000D02*
X554000Y192000D01*
X553000Y193000D01*
X553000Y196000D01*
X554000Y197000D01*
X557000Y197000D01*
X557000Y195000D01*
X553000Y195000D01*
G54D10*
X563000Y200000D02*
X563000Y192000D01*
X559000Y192000D01*
X559000Y196000D01*
X560000Y197000D01*
X563000Y197000D01*
G54D10*
X572000Y200000D02*
X572000Y192000D01*
X576000Y192000D01*
X576000Y196000D01*
X575000Y197000D01*
X572000Y197000D01*
G54D10*
X579000Y190000D02*
X582000Y190000D01*
X582000Y197000D01*
X582000Y193000D01*
X581000Y193000D01*
X579000Y195000D01*
X579000Y197000D01*
G54D10*
X590000Y200000D02*
X590000Y192000D01*
X595000Y192000D01*
X596000Y193000D01*
X596000Y200000D01*
X590000Y200000D01*
G54D10*
X598000Y192000D02*
X598000Y197000D01*
X598000Y195000D01*
X598000Y196000D01*
X599000Y197000D01*
X600000Y197000D01*
G54D10*
X622000Y192000D02*
X626000Y192000D01*
X626000Y196000D01*
X625000Y197000D01*
X624000Y197000D01*
X622000Y195000D01*
X622000Y192000D01*
G54D10*
X613000Y197000D02*
X615000Y197000D01*
X616000Y196000D01*
X616000Y192000D01*
X612000Y192000D01*
X612000Y194000D01*
X613000Y195000D01*
X616000Y195000D01*
G54D10*
X602000Y192000D02*
X603000Y192000D01*
X603000Y193000D01*
X602000Y193000D01*
X602000Y192000D01*
G54D10*
X607000Y192000D02*
X607000Y196000D01*
X610000Y196000D01*
X607000Y196000D01*
X607000Y200000D01*
X611000Y200000D01*
G54D10*
X618000Y197000D02*
X618000Y192000D01*
G54D10*
X620000Y192000D02*
X620000Y200000D01*
G54D10*
X628000Y197000D02*
X628000Y194000D01*
X630000Y192000D01*
X632000Y194000D01*
X632000Y197000D01*
G54D10*
X324000Y804000D02*
X342000Y804000D01*
X342000Y772000D01*
X324000Y772000D01*
X324000Y804000D01*
G36*
X278000Y792000D02*
X278000Y798000D01*
X272000Y792000D01*
X278000Y792000D01*
G37*
G54D10*
X278000Y792000D02*
X278000Y798000D01*
X272000Y792000D01*
X278000Y792000D01*
G54D10*
X295500Y780500D02*
X295500Y765500D01*
X285500Y765500D01*
X285500Y780500D01*
X295500Y780500D01*
G54D10*
X305500Y780500D02*
X305500Y765500D01*
X295500Y765500D01*
X295500Y780500D01*
X305500Y780500D01*
G54D11*
X104000Y661000D02*
X104000Y649000D01*
X104000Y655000D01*
X110000Y655000D01*
X98000Y655000D01*
G54D11*
X54000Y655000D02*
X66000Y655000D01*
G36*
X30000Y693000D02*
X36000Y693000D01*
X30000Y699000D01*
X30000Y693000D01*
G37*
G54D10*
X30000Y693000D02*
X36000Y693000D01*
X30000Y699000D01*
X30000Y693000D01*
G36*
X83000Y688000D02*
X83000Y694000D01*
X89000Y688000D01*
X83000Y688000D01*
G37*
G54D10*
X83000Y688000D02*
X83000Y694000D01*
X89000Y688000D01*
X83000Y688000D01*
G54D10*
X124500Y669500D02*
X124500Y646500D01*
X112500Y646500D01*
X112500Y669500D01*
X124500Y669500D01*
G54D10*
X78500Y717500D02*
X78500Y694500D01*
X66500Y694500D01*
X66500Y717500D01*
X78500Y717500D01*
G36*
X119000Y824000D02*
X119000Y819000D01*
X124000Y824000D01*
X119000Y824000D01*
G37*
G54D10*
X119000Y824000D02*
X119000Y819000D01*
X124000Y824000D01*
X119000Y824000D01*
G54D10*
X65000Y750000D02*
X83000Y750000D01*
X83000Y718000D01*
X65000Y718000D01*
X65000Y750000D01*
G54D10*
X193500Y747500D02*
X193500Y722500D01*
X177500Y722500D01*
X177500Y747500D01*
X193500Y747500D01*
G54D10*
X168000Y715000D02*
X193000Y715000D01*
X193000Y699000D01*
X168000Y699000D01*
X168000Y715000D01*
G54D10*
X190595Y788000D02*
X190595Y765000D01*
X178595Y765000D01*
X178595Y788000D01*
X190595Y788000D01*
G54D10*
X198000Y884000D02*
X175000Y884000D01*
X175000Y896000D01*
X198000Y896000D01*
X198000Y884000D01*
G36*
X153000Y873000D02*
X153000Y879000D01*
X147000Y873000D01*
X153000Y873000D01*
G37*
G54D10*
X153000Y873000D02*
X153000Y879000D01*
X147000Y873000D01*
X153000Y873000D01*
G54D10*
X180000Y925000D02*
X214000Y925000D01*
X214000Y903000D01*
X180000Y903000D01*
X180000Y925000D01*
G54D10*
X61000Y905000D02*
X38000Y905000D01*
X38000Y917000D01*
X61000Y917000D01*
X61000Y905000D01*
G54D10*
X61000Y893000D02*
X38000Y893000D01*
X38000Y905000D01*
X61000Y905000D01*
X61000Y893000D01*
G54D10*
X37500Y916500D02*
X37500Y893500D01*
X25500Y893500D01*
X25500Y916500D01*
X37500Y916500D01*
G54D10*
X124500Y715500D02*
X124500Y692500D01*
X112500Y692500D01*
X112500Y715500D01*
X124500Y715500D01*
G54D10*
X191500Y823500D02*
X191500Y800500D01*
X179500Y800500D01*
X179500Y823500D01*
X191500Y823500D01*
G54D10*
X98437Y852158D02*
X98437Y829158D01*
X86437Y829158D01*
X86437Y852158D01*
X98437Y852158D01*
G54D10*
X108938Y853658D02*
X85938Y853658D01*
X85938Y865658D01*
X108938Y865658D01*
X108938Y853658D01*
G54D10*
X249000Y901000D02*
X226000Y901000D01*
X226000Y913000D01*
X249000Y913000D01*
X249000Y901000D01*
G54D10*
X181000Y854000D02*
X181000Y877000D01*
X193000Y877000D01*
X193000Y854000D01*
X181000Y854000D01*
G54D10*
X193000Y866000D02*
X216000Y866000D01*
X216000Y854000D01*
X193000Y854000D01*
X193000Y866000D01*
G54D10*
X305000Y858000D02*
X282000Y858000D01*
X282000Y870000D01*
X305000Y870000D01*
X305000Y858000D01*
G54D10*
X160000Y690000D02*
X194000Y690000D01*
X194000Y668000D01*
X160000Y668000D01*
X160000Y690000D01*
G54D10*
X160000Y668000D02*
X194000Y668000D01*
X194000Y646000D01*
X160000Y646000D01*
X160000Y668000D01*
G36*
X208502Y671385D02*
X214502Y671385D01*
X208502Y677385D01*
X208502Y671385D01*
G37*
G54D10*
X208502Y671385D02*
X214502Y671385D01*
X208502Y677385D01*
X208502Y671385D01*
G54D10*
X122942Y830700D02*
X122942Y850700D01*
X132942Y846700D01*
X140942Y843700D01*
X140942Y831700D01*
G54D10*
X132942Y846700D02*
X122942Y843700D01*
X132942Y838700D01*
X122942Y837700D01*
X132942Y832700D01*
X122942Y831700D01*
G54D10*
X140942Y837700D02*
X130942Y842700D01*
X140942Y843700D01*
G54D10*
X140942Y831700D02*
X130942Y836700D01*
X140942Y837700D01*
G54D10*
G75*
G01X145942Y833700D02*
G03X145942Y833700I0J1000D01*
G01*
G54D10*
X140942Y831700D02*
X145942Y831700D01*
X148942Y828700D01*
X148942Y843700D01*
X146942Y845700D01*
X132942Y852700D01*
X111942Y862700D01*
G54D10*
X109942Y867700D02*
X109942Y831700D01*
X111942Y829700D01*
X122942Y830700D01*
G54D10*
X109942Y867700D02*
X111942Y862700D01*
G54D10*
X109942Y839700D02*
X104942Y839700D01*
X102942Y841700D01*
X104942Y839700D01*
X102942Y837700D01*
G54D10*
X109942Y848700D02*
X104942Y848700D01*
X102942Y846700D01*
X104942Y848700D01*
X102942Y850700D01*
G54D10*
X66000Y863000D02*
X8000Y863000D01*
X8000Y770000D01*
X66000Y770000D01*
X66000Y863000D01*
G54D10*
X52000Y749000D02*
X52000Y669000D01*
X26000Y669000D01*
X26000Y749000D01*
X52000Y749000D01*
G54D10*
X80000Y670000D02*
X80000Y716000D01*
X112000Y716000D01*
X112000Y670000D01*
X80000Y670000D01*
G54D10*
X332000Y892000D02*
X362000Y892000D01*
X362000Y847000D01*
X332000Y847000D01*
X332000Y892000D01*
G54D10*
X332000Y726000D02*
X362000Y726000D01*
X362000Y681000D01*
X332000Y681000D01*
X332000Y726000D01*
G54D10*
X25000Y925000D02*
X285000Y925000D01*
X285000Y929000D01*
X309000Y929000D01*
X309000Y824000D01*
X345000Y824000D01*
X345000Y749000D01*
X309000Y749000D01*
X309000Y645000D01*
X25000Y645000D01*
X25000Y750000D01*
X85000Y750000D01*
X85000Y885000D01*
X25000Y885000D01*
X25000Y925000D01*
G54D10*
X285000Y924000D02*
X254000Y924000D01*
X254000Y874000D01*
X285000Y874000D01*
X285000Y892000D01*
X304000Y892000D01*
X304000Y907000D01*
X285000Y907000D01*
X285000Y924000D01*
G54D10*
X266000Y904000D02*
X266000Y898000D01*
X269000Y898000D01*
X272000Y895000D01*
X272000Y907000D01*
X269000Y904000D01*
X266000Y904000D01*
G54D10*
X203000Y876000D02*
X203000Y899000D01*
X215000Y899000D01*
X215000Y876000D01*
X203000Y876000D01*
G54D10*
X226000Y901000D02*
X249000Y901000D01*
X249000Y889000D01*
X226000Y889000D01*
X226000Y901000D01*
G54D10*
X156000Y846000D02*
X179000Y846000D01*
X179000Y834000D01*
X156000Y834000D01*
X156000Y846000D01*
G54D10*
X156000Y859000D02*
X179000Y859000D01*
X179000Y847000D01*
X156000Y847000D01*
X156000Y859000D01*
G54D10*
X586000Y490000D02*
X586000Y498000D01*
X589000Y495000D01*
X592000Y498000D01*
X592000Y490000D01*
G54D10*
X599000Y490000D02*
X595000Y490000D01*
X594000Y491000D01*
X594000Y495000D01*
X595000Y496000D01*
X599000Y496000D01*
X599000Y493000D01*
X594000Y493000D01*
G54D10*
X613000Y490000D02*
X609000Y490000D01*
X608000Y491000D01*
X608000Y495000D01*
X609000Y496000D01*
X613000Y496000D01*
X613000Y493000D01*
X608000Y493000D01*
G54D10*
X615000Y490000D02*
X615000Y496000D01*
X615000Y495000D01*
X616000Y496000D01*
X617000Y496000D01*
X618000Y495000D01*
X618000Y490000D01*
X618000Y495000D01*
X619000Y496000D01*
X620000Y496000D01*
X621000Y495000D01*
X621000Y490000D01*
G54D10*
X601000Y490000D02*
X601000Y498000D01*
G54D10*
X604000Y498000D02*
X604000Y495000D01*
X603000Y495000D01*
X605000Y495000D01*
X604000Y495000D01*
X604000Y491000D01*
X605000Y490000D01*
X606000Y490000D01*
G54D10*
X623000Y490000D02*
X623000Y496000D01*
G54D10*
X625000Y490000D02*
X631000Y490000D01*
X631000Y498000D01*
X627000Y498000D01*
X625000Y496000D01*
X625000Y490000D01*
G54D10*
X633000Y490000D02*
X639000Y490000D01*
X639000Y493000D01*
X638000Y494000D01*
X633000Y494000D01*
X633000Y497000D01*
X634000Y498000D01*
X639000Y498000D01*
M02*
