%FSLAX34Y34*%
%MOMM*%
%LNSOLDERMASK_BOTTOM*%
G71*
G01*
%ADD10R, 0.50X3.70*%
%ADD11R, 1.70X1.70*%
%LPD*%
G36*
X682000Y996000D02*
X712000Y996000D01*
X712000Y942000D01*
X682000Y942000D01*
X682000Y996000D01*
G37*
G36*
X682000Y628000D02*
X712000Y628000D01*
X712000Y574000D01*
X682000Y574000D01*
X682000Y628000D01*
G37*
G36*
X418000Y628000D02*
X448000Y628000D01*
X448000Y574000D01*
X418000Y574000D01*
X418000Y628000D01*
G37*
G36*
X38000Y556000D02*
X68000Y556000D01*
X68000Y502000D01*
X38000Y502000D01*
X38000Y556000D01*
G37*
G36*
X302000Y556000D02*
X332000Y556000D01*
X332000Y502000D01*
X302000Y502000D01*
X302000Y556000D01*
G37*
G36*
X302000Y188000D02*
X332000Y188000D01*
X332000Y134000D01*
X302000Y134000D01*
X302000Y188000D01*
G37*
G36*
X38000Y188000D02*
X68000Y188000D01*
X68000Y134000D01*
X38000Y134000D01*
X38000Y188000D01*
G37*
G36*
X418000Y556000D02*
X448000Y556000D01*
X448000Y502000D01*
X418000Y502000D01*
X418000Y556000D01*
G37*
G36*
X682000Y556000D02*
X712000Y556000D01*
X712000Y502000D01*
X682000Y502000D01*
X682000Y556000D01*
G37*
G36*
X682000Y188000D02*
X712000Y188000D01*
X712000Y134000D01*
X682000Y134000D01*
X682000Y188000D01*
G37*
G36*
X418000Y188000D02*
X448000Y188000D01*
X448000Y134000D01*
X418000Y134000D01*
X418000Y188000D01*
G37*
X216000Y911000D02*
G54D10*
D03*
X222000Y911000D02*
G54D10*
D03*
X228000Y911000D02*
G54D10*
D03*
X234000Y911000D02*
G54D10*
D03*
X240000Y911000D02*
G54D10*
D03*
X246000Y911000D02*
G54D10*
D03*
X252000Y911000D02*
G54D10*
D03*
X258000Y911000D02*
G54D10*
D03*
X264000Y911000D02*
G54D10*
D03*
X270000Y911000D02*
G54D10*
D03*
X276000Y911000D02*
G54D10*
D03*
X282000Y911000D02*
G54D10*
D03*
X286000Y870000D02*
G54D11*
D03*
X263000Y870000D02*
G54D11*
D03*
X239000Y870000D02*
G54D11*
D03*
X251000Y852000D02*
G54D11*
D03*
X275000Y852000D02*
G54D11*
D03*
X227000Y852000D02*
G54D11*
D03*
X324000Y870000D02*
G54D11*
D03*
G36*
X418000Y996000D02*
X448000Y996000D01*
X448000Y942000D01*
X418000Y942000D01*
X418000Y996000D01*
G37*
M02*
