%FSLAX34Y34*%
%MOMM*%
%LNOUTLINE*%
G71*
G01*
%ADD10C, 0.10*%
%LPD*%
G54D10*
X25000Y485000D02*
X345000Y485000D01*
X345000Y205000D01*
X25000Y205000D01*
X25000Y310000D01*
X85000Y310000D01*
X85000Y445000D01*
X25000Y445000D01*
X25000Y485000D01*
G54D10*
X405000Y485000D02*
X725000Y485000D01*
X725000Y205000D01*
X405000Y205000D01*
X405000Y485000D01*
G54D10*
X405000Y925000D02*
X689000Y925000D01*
X689000Y824000D01*
X725000Y824000D01*
X725000Y749000D01*
X689000Y749000D01*
X689000Y645000D01*
X405000Y645000D01*
X405000Y750000D01*
X465000Y750000D01*
X465000Y885000D01*
X405000Y885000D01*
X405000Y925000D01*
G54D10*
X297000Y995000D02*
X335000Y995000D01*
X365000Y965000D01*
X385000Y965000D01*
X415000Y995000D01*
X453000Y995000D01*
X453000Y945000D01*
X677000Y945000D01*
X677000Y995000D01*
X715000Y995000D01*
X745000Y965000D01*
X745000Y895000D01*
X709000Y895000D01*
X709000Y844000D01*
X745000Y844000D01*
X745000Y729000D01*
X709000Y729000D01*
X709000Y678000D01*
X745000Y678000D01*
X745000Y605000D01*
X715000Y575000D01*
X715000Y555000D01*
X745000Y525000D01*
X745000Y165000D01*
X715000Y135000D01*
X677000Y135000D01*
X677000Y185000D01*
X453000Y185000D01*
X453000Y135000D01*
X415000Y135000D01*
X385000Y165000D01*
X365000Y165000D01*
X335000Y135000D01*
X297000Y135000D01*
X297000Y185000D01*
X73000Y185000D01*
X73000Y135000D01*
X35000Y135000D01*
X5000Y165000D01*
X5000Y328000D01*
X66000Y328000D01*
X66000Y425000D01*
X5000Y425000D01*
X5000Y525000D01*
X35000Y555000D01*
X35000Y575000D01*
X5000Y605000D01*
X5000Y965000D01*
X35000Y995000D01*
X73000Y995000D01*
X73000Y945000D01*
X297000Y945000D01*
X297000Y995000D01*
G54D10*
X335000Y575000D02*
X365000Y605000D01*
X385000Y605000D01*
X415000Y575000D01*
X415000Y555000D01*
X385000Y525000D01*
X365000Y525000D01*
X335000Y555000D01*
X335000Y575000D01*
G54D10*
X453000Y625000D02*
X677000Y625000D01*
X677000Y505000D01*
X453000Y505000D01*
X453000Y625000D01*
G54D10*
X73000Y625000D02*
X297000Y625000D01*
X297000Y505000D01*
X73000Y505000D01*
X73000Y625000D01*
G54D10*
X365000Y925000D02*
X385000Y925000D01*
X385000Y865000D01*
X446000Y865000D01*
X446000Y768000D01*
X385000Y768000D01*
X385000Y645000D01*
X365000Y645000D01*
X365000Y925000D01*
G54D10*
X385000Y485000D02*
X385000Y205000D01*
X365000Y205000D01*
X365000Y485000D01*
X385000Y485000D01*
G54D10*
X35000Y575000D02*
X73000Y575000D01*
G54D10*
X35000Y555000D02*
X73000Y555000D01*
G54D10*
X335000Y575000D02*
X297000Y575000D01*
G54D10*
X335000Y555000D02*
X297000Y555000D01*
G54D10*
X415000Y575000D02*
X453000Y575000D01*
G54D10*
X415000Y555000D02*
X453000Y555000D01*
G54D10*
X715000Y575000D02*
X677000Y575000D01*
G54D10*
X715000Y555000D02*
X677000Y555000D01*
G54D10*
X365000Y645000D02*
X365000Y605000D01*
G54D10*
X385000Y645000D02*
X385000Y605000D01*
G54D10*
X365000Y925000D02*
X365000Y965000D01*
G54D10*
X385000Y925000D02*
X385000Y965000D01*
G54D10*
X365000Y485000D02*
X365000Y525000D01*
G54D10*
X385000Y485000D02*
X385000Y525000D01*
G54D10*
X365000Y205000D02*
X365000Y165000D01*
G54D10*
X385000Y205000D02*
X385000Y165000D01*
G54D10*
X465000Y750000D02*
X465000Y645000D01*
G54D10*
X405000Y750000D02*
X424000Y720000D01*
X465000Y645000D01*
X465000Y750000D01*
X445000Y713000D01*
X405000Y645000D01*
X465000Y645000D01*
X507000Y696000D01*
X689000Y925000D01*
X689000Y749000D01*
X705000Y779000D01*
X725000Y824000D01*
X689000Y824000D01*
X706000Y790000D01*
X725000Y749000D01*
X689000Y749000D01*
X689000Y645000D01*
X655000Y682000D01*
X465000Y925000D01*
X451000Y916000D01*
X405000Y885000D01*
X405000Y925000D01*
X421000Y913000D01*
X465000Y885000D01*
X465000Y925000D01*
G54D10*
X25000Y310000D02*
X44000Y280000D01*
X85000Y205000D01*
X85000Y310000D01*
X65000Y273000D01*
X25000Y205000D01*
X85000Y205000D01*
X345000Y485000D01*
X345000Y205000D01*
X85000Y485000D01*
X71000Y476000D01*
X25000Y445000D01*
X25000Y485000D01*
X41000Y473000D01*
X85000Y445000D01*
X85000Y485000D01*
G54D10*
X405000Y485000D02*
X725000Y205000D01*
X725000Y485000D01*
X405000Y205000D01*
M02*
