%FSLAX34Y34*%
%MOMM*%
%LNSOLDERMASK_TOP*%
G71*
G01*
%ADD10R, 2.500X0.800*%
%ADD11R, 2.300X2.700*%
%ADD12R, 2.600X8.200*%
%ADD13R, 0.900X2.400*%
%ADD14R, 2.400X0.900*%
%ADD15R, 1.800X0.900*%
%ADD16R, 3.100X2.400*%
%ADD17R, 0.800X2.200*%
%ADD18R, 1.600X1.100*%
%ADD19R, 1.200X1.100*%
%ADD20R, 2.200X1.100*%
%ADD21R, 1.100X1.200*%
%ADD22R, 1.700X2.200*%
%ADD23R, 2.400X2.400*%
%ADD24R, 1.100X2.200*%
%ADD25R, 1.500X1.800*%
%ADD26R, 1.700X1.400*%
%ADD27C, 1.200*%
%ADD28R, 0.900X1.600*%
%ADD29R, 1.900X1.400*%
%ADD30C, 2.900*%
%LPD*%
X54000Y830000D02*
G54D10*
D03*
X54000Y823000D02*
G54D10*
D03*
X54000Y816000D02*
G54D10*
D03*
X54000Y802000D02*
G54D10*
D03*
X54000Y809000D02*
G54D10*
D03*
X51000Y849000D02*
G54D11*
D03*
X52000Y784000D02*
G54D11*
D03*
X24000Y816000D02*
G54D12*
D03*
X221000Y863000D02*
G54D13*
D03*
X229000Y863000D02*
G54D13*
D03*
X237000Y863000D02*
G54D13*
D03*
X245000Y863000D02*
G54D13*
D03*
X253000Y863000D02*
G54D13*
D03*
X261000Y863000D02*
G54D13*
D03*
X269000Y863000D02*
G54D13*
D03*
X277000Y863000D02*
G54D13*
D03*
X221000Y778000D02*
G54D13*
D03*
X229000Y778000D02*
G54D13*
D03*
X237000Y778000D02*
G54D13*
D03*
X245000Y778000D02*
G54D13*
D03*
X253000Y778000D02*
G54D13*
D03*
X261000Y778000D02*
G54D13*
D03*
X269000Y778000D02*
G54D13*
D03*
X277000Y778000D02*
G54D13*
D03*
X292000Y848000D02*
G54D14*
D03*
X292000Y840000D02*
G54D14*
D03*
X292000Y832000D02*
G54D14*
D03*
X292000Y824000D02*
G54D14*
D03*
X292000Y816000D02*
G54D14*
D03*
X292000Y808000D02*
G54D14*
D03*
X292000Y800000D02*
G54D14*
D03*
X292000Y792000D02*
G54D14*
D03*
X206000Y849000D02*
G54D14*
D03*
X206000Y841000D02*
G54D14*
D03*
X206000Y833000D02*
G54D14*
D03*
X206000Y825000D02*
G54D14*
D03*
X206000Y817000D02*
G54D14*
D03*
X206000Y809000D02*
G54D14*
D03*
X206000Y801000D02*
G54D14*
D03*
X206000Y793000D02*
G54D14*
D03*
X333000Y813000D02*
G54D15*
D03*
X333000Y804000D02*
G54D15*
D03*
X333000Y795000D02*
G54D15*
D03*
X38000Y654000D02*
G54D16*
D03*
X82000Y654000D02*
G54D16*
D03*
X48000Y738000D02*
G54D17*
D03*
X42000Y738000D02*
G54D17*
D03*
X36000Y738000D02*
G54D17*
D03*
X30000Y738000D02*
G54D17*
D03*
X48000Y680000D02*
G54D17*
D03*
X42000Y680000D02*
G54D17*
D03*
X36000Y680000D02*
G54D17*
D03*
X30000Y680000D02*
G54D17*
D03*
X77000Y704000D02*
G54D18*
D03*
X77000Y694000D02*
G54D18*
D03*
X77000Y684000D02*
G54D18*
D03*
X105000Y704000D02*
G54D18*
D03*
X105000Y694000D02*
G54D18*
D03*
X105000Y684000D02*
G54D18*
D03*
X61500Y691500D02*
G54D19*
D03*
X61500Y680500D02*
G54D19*
D03*
X121500Y699500D02*
G54D19*
D03*
X121500Y710500D02*
G54D19*
D03*
X106000Y821000D02*
G54D20*
D03*
X106000Y808000D02*
G54D20*
D03*
X106000Y795000D02*
G54D20*
D03*
X106000Y782000D02*
G54D20*
D03*
X106000Y769000D02*
G54D20*
D03*
X106000Y756000D02*
G54D20*
D03*
X106000Y743000D02*
G54D20*
D03*
X106000Y729000D02*
G54D20*
D03*
X165000Y821000D02*
G54D20*
D03*
X165000Y808000D02*
G54D20*
D03*
X165000Y795000D02*
G54D20*
D03*
X165000Y782000D02*
G54D20*
D03*
X165000Y769000D02*
G54D20*
D03*
X165000Y756000D02*
G54D20*
D03*
X165000Y743000D02*
G54D20*
D03*
X165000Y729000D02*
G54D20*
D03*
X74000Y743000D02*
G54D15*
D03*
X74000Y734000D02*
G54D15*
D03*
X74000Y725000D02*
G54D15*
D03*
X170096Y714500D02*
G54D21*
D03*
X159096Y714500D02*
G54D21*
D03*
X181500Y875900D02*
G54D19*
D03*
X181500Y886900D02*
G54D19*
D03*
X102000Y913000D02*
G54D20*
D03*
X102000Y900000D02*
G54D20*
D03*
X102000Y887000D02*
G54D20*
D03*
X102000Y874000D02*
G54D20*
D03*
X163000Y913000D02*
G54D20*
D03*
X163000Y900000D02*
G54D20*
D03*
X163000Y887000D02*
G54D20*
D03*
X163000Y874000D02*
G54D20*
D03*
X184000Y914000D02*
G54D22*
D03*
X202000Y914000D02*
G54D22*
D03*
X45000Y916000D02*
G54D21*
D03*
X34000Y916000D02*
G54D21*
D03*
X45000Y900000D02*
G54D21*
D03*
X34000Y900000D02*
G54D21*
D03*
X121500Y683500D02*
G54D19*
D03*
X121500Y672500D02*
G54D19*
D03*
X185500Y814500D02*
G54D19*
D03*
X185500Y803500D02*
G54D19*
D03*
X101938Y839658D02*
G54D21*
D03*
X90938Y839658D02*
G54D21*
D03*
X101938Y859658D02*
G54D21*
D03*
X90938Y859658D02*
G54D21*
D03*
X196500Y895500D02*
G54D19*
D03*
X196500Y884500D02*
G54D19*
D03*
X166500Y839500D02*
G54D21*
D03*
X177500Y839500D02*
G54D21*
D03*
X166000Y855000D02*
G54D21*
D03*
X177000Y855000D02*
G54D21*
D03*
X302500Y882500D02*
G54D19*
D03*
X302500Y893500D02*
G54D19*
D03*
X288000Y915000D02*
G54D23*
D03*
X231000Y915000D02*
G54D23*
D03*
X296000Y745000D02*
G54D24*
D03*
X283000Y745000D02*
G54D24*
D03*
X270000Y745000D02*
G54D24*
D03*
X257000Y745000D02*
G54D24*
D03*
X244000Y745000D02*
G54D24*
D03*
X231000Y745000D02*
G54D24*
D03*
X218000Y745000D02*
G54D24*
D03*
X204000Y745000D02*
G54D24*
D03*
X296000Y655000D02*
G54D24*
D03*
X283000Y655000D02*
G54D24*
D03*
X270000Y655000D02*
G54D24*
D03*
X257000Y655000D02*
G54D24*
D03*
X244000Y655000D02*
G54D24*
D03*
X231000Y655000D02*
G54D24*
D03*
X218000Y655000D02*
G54D24*
D03*
X204000Y655000D02*
G54D24*
D03*
X338000Y870000D02*
G54D25*
D03*
X338900Y885000D02*
G54D26*
D03*
X339000Y854000D02*
G54D26*
D03*
X353000Y886000D02*
G54D27*
D03*
X353000Y853000D02*
G54D27*
D03*
X359000Y885000D02*
G54D28*
D03*
X359000Y854000D02*
G54D28*
D03*
X338000Y704000D02*
G54D25*
D03*
X340000Y718950D02*
G54D29*
D03*
X340000Y688000D02*
G54D29*
D03*
X353000Y720000D02*
G54D27*
D03*
X353000Y687000D02*
G54D27*
D03*
X359000Y719000D02*
G54D28*
D03*
X359000Y688000D02*
G54D28*
D03*
X30000Y970000D02*
G54D30*
D03*
X340000Y970000D02*
G54D30*
D03*
X340000Y600000D02*
G54D30*
D03*
X30000Y600000D02*
G54D30*
D03*
X144000Y854000D02*
G54D19*
D03*
X144000Y843000D02*
G54D19*
D03*
X210500Y884500D02*
G54D19*
D03*
X210500Y895500D02*
G54D19*
D03*
X119000Y843000D02*
G54D21*
D03*
X130000Y843000D02*
G54D21*
D03*
X119000Y859000D02*
G54D21*
D03*
X130000Y859000D02*
G54D21*
D03*
X326000Y776000D02*
G54D21*
D03*
X315000Y776000D02*
G54D21*
D03*
X326000Y761000D02*
G54D21*
D03*
X315000Y760999D02*
G54D21*
D03*
X180000Y656000D02*
G54D21*
D03*
X169000Y656000D02*
G54D21*
D03*
X180000Y670000D02*
G54D21*
D03*
X169000Y670000D02*
G54D21*
D03*
X170096Y700500D02*
G54D21*
D03*
X159096Y700500D02*
G54D21*
D03*
X170096Y686500D02*
G54D21*
D03*
X159096Y686500D02*
G54D21*
D03*
X302000Y980000D02*
G54D23*
D03*
X68000Y980000D02*
G54D23*
D03*
M02*
