%FSLAX34Y34*%
%MOMM*%
%LNSOLDERMASK_BOTTOM*%
G71*
G01*
%ADD10R, 0.700X3.900*%
%ADD11C, 1.200*%
%ADD12C, 2.900*%
%ADD13R, 2.400X2.400*%
%LPD*%
X216000Y911000D02*
G54D10*
D03*
X222000Y911000D02*
G54D10*
D03*
X228000Y911000D02*
G54D10*
D03*
X234000Y911000D02*
G54D10*
D03*
X240000Y911000D02*
G54D10*
D03*
X246000Y911000D02*
G54D10*
D03*
X252000Y911000D02*
G54D10*
D03*
X258000Y911000D02*
G54D10*
D03*
X264000Y911000D02*
G54D10*
D03*
X270000Y911000D02*
G54D10*
D03*
X276000Y911000D02*
G54D10*
D03*
X282000Y911000D02*
G54D10*
D03*
X353000Y886000D02*
G54D11*
D03*
X353000Y853000D02*
G54D11*
D03*
X353000Y720000D02*
G54D11*
D03*
X353000Y687000D02*
G54D11*
D03*
X30000Y970000D02*
G54D12*
D03*
X340000Y970000D02*
G54D12*
D03*
X340000Y600000D02*
G54D12*
D03*
X30000Y600000D02*
G54D12*
D03*
X322000Y933000D02*
G54D13*
D03*
X322000Y901000D02*
G54D13*
D03*
X322000Y869000D02*
G54D13*
D03*
X163000Y866000D02*
G54D13*
D03*
X163000Y898000D02*
G54D13*
D03*
X163000Y930000D02*
G54D13*
D03*
X322000Y834000D02*
G54D13*
D03*
X322000Y803000D02*
G54D13*
D03*
M02*
