%FSLAX34Y34*%
%MOMM*%
%LNCOPPER_TOP*%
G71*
G01*
%ADD10R, 2.900X1.200*%
%ADD11R, 2.100X0.400*%
%ADD12R, 1.900X2.300*%
%ADD13R, 2.200X7.800*%
%ADD14R, 1.300X2.800*%
%ADD15R, 2.800X1.300*%
%ADD16R, 2.000X0.500*%
%ADD17R, 2.200X1.300*%
%ADD18R, 1.400X0.500*%
%ADD19R, 3.500X2.800*%
%ADD20R, 1.200X2.600*%
%ADD21R, 0.400X1.800*%
%ADD22R, 2.000X1.500*%
%ADD23R, 1.600X1.500*%
%ADD24R, 0.800X0.700*%
%ADD25R, 1.800X0.700*%
%ADD26R, 2.600X1.500*%
%ADD27C, 0.950*%
%ADD28R, 1.500X1.600*%
%ADD29R, 2.100X2.600*%
%ADD30R, 1.300X1.800*%
%ADD31C, 1.200*%
%ADD32C, 0.930*%
%ADD33C, 0.927*%
%ADD34C, 1.000*%
%ADD35C, 1.100*%
%ADD36R, 0.700X0.800*%
%ADD37R, 2.800X2.800*%
%ADD38R, 2.000X2.000*%
%ADD39R, 0.700X1.800*%
%ADD40R, 1.500X2.600*%
%ADD41R, 1.100X1.400*%
%ADD42R, 2.100X1.800*%
%ADD43C, 0.800*%
%ADD44R, 0.500X1.200*%
%ADD45R, 2.300X1.800*%
%ADD46C, 0.400*%
%ADD47C, 2.500*%
%ADD48C, 0.159*%
%ADD49C, 0.759*%
%ADD50C, 0.111*%
%ADD51C, 0.044*%
%ADD52C, 0.150*%
%ADD53C, 0.127*%
%ADD54C, 0.143*%
%ADD55C, 0.078*%
%ADD56R, 0.500X2.000*%
%ADD57R, 2.700X2.000*%
%ADD58R, 1.200X0.700*%
%ADD59C, 0.130*%
%ADD60C, 0.200*%
%ADD61C, 0.300*%
%ADD62R, 1.300X1.000*%
%ADD63R, 1.500X1.000*%
%LPD*%
G36*
X0Y1000000D02*
X372000Y1000000D01*
X372000Y565000D01*
X0Y565000D01*
X0Y1000000D01*
G37*
%LPC*%
X54000Y830000D02*
G54D10*
D03*
X54000Y823000D02*
G54D10*
D03*
X54000Y816000D02*
G54D10*
D03*
X54000Y802000D02*
G54D11*
D03*
X54000Y809000D02*
G54D10*
D03*
X51000Y849000D02*
G54D12*
D03*
X52000Y784000D02*
G54D12*
D03*
X24000Y816000D02*
G54D13*
D03*
X221000Y863000D02*
G54D14*
D03*
X229000Y863000D02*
G54D14*
D03*
X237000Y863000D02*
G54D14*
D03*
X245000Y863000D02*
G54D14*
D03*
X253000Y863000D02*
G54D14*
D03*
X261000Y863000D02*
G54D14*
D03*
X269000Y863000D02*
G54D14*
D03*
X277000Y863000D02*
G54D14*
D03*
X221000Y778000D02*
G54D14*
D03*
X229000Y778000D02*
G54D14*
D03*
X237000Y778000D02*
G54D14*
D03*
X245000Y778000D02*
G54D14*
D03*
X253000Y778000D02*
G54D14*
D03*
X261000Y778000D02*
G54D14*
D03*
X269000Y778000D02*
G54D14*
D03*
X277000Y778000D02*
G54D14*
D03*
X292000Y848000D02*
G54D15*
D03*
X292000Y840000D02*
G54D15*
D03*
X292000Y832000D02*
G54D15*
D03*
X292000Y824000D02*
G54D16*
D03*
X292000Y816000D02*
G54D15*
D03*
X292000Y808000D02*
G54D16*
D03*
X292000Y800000D02*
G54D15*
D03*
X292000Y792000D02*
G54D15*
D03*
X206000Y849000D02*
G54D15*
D03*
X206000Y841000D02*
G54D15*
D03*
X206000Y833000D02*
G54D15*
D03*
X206000Y825000D02*
G54D15*
D03*
X206000Y817000D02*
G54D16*
D03*
X206000Y809000D02*
G54D15*
D03*
X206000Y801000D02*
G54D15*
D03*
X206000Y793000D02*
G54D15*
D03*
X333000Y813000D02*
G54D17*
D03*
X333000Y804000D02*
G54D18*
D03*
X333000Y795000D02*
G54D17*
D03*
X38000Y654000D02*
G54D19*
D03*
X82000Y654000D02*
G54D19*
D03*
X48000Y738000D02*
G54D20*
D03*
X42000Y738000D02*
G54D21*
D03*
X36000Y738000D02*
G54D21*
D03*
X30000Y738000D02*
G54D20*
D03*
X48000Y680000D02*
G54D20*
D03*
X42000Y680000D02*
G54D20*
D03*
X36000Y680000D02*
G54D20*
D03*
X30000Y680000D02*
G54D20*
D03*
X77000Y704000D02*
G54D22*
D03*
X77000Y694000D02*
G54D22*
D03*
X77000Y684000D02*
G54D22*
D03*
X105000Y704000D02*
G54D22*
D03*
X105000Y694000D02*
G54D22*
D03*
X105000Y684000D02*
G54D22*
D03*
X61500Y691500D02*
G54D23*
D03*
X61500Y680500D02*
G54D24*
D03*
X121500Y699500D02*
G54D23*
D03*
X121500Y710500D02*
G54D23*
D03*
X106000Y821000D02*
G54D25*
D03*
X106000Y808000D02*
G54D26*
D03*
X106000Y795000D02*
G54D26*
D03*
X106000Y782000D02*
G54D26*
D03*
X106000Y769000D02*
G54D26*
D03*
X106000Y756000D02*
G54D26*
D03*
X106000Y743000D02*
G54D26*
D03*
X106000Y729000D02*
G54D26*
D03*
X165000Y821000D02*
G54D26*
D03*
X165000Y808000D02*
G54D26*
D03*
X165000Y795000D02*
G54D26*
D03*
X165000Y782000D02*
G54D26*
D03*
X165000Y769000D02*
G54D26*
D03*
X165000Y756000D02*
G54D26*
D03*
X165000Y743000D02*
G54D26*
D03*
X165000Y729000D02*
G54D26*
D03*
G54D27*
X106000Y808000D02*
X124000Y808000D01*
G54D27*
X106000Y795000D02*
X124000Y795000D01*
X74000Y743000D02*
G54D17*
D03*
X74000Y734000D02*
G54D18*
D03*
X74000Y725000D02*
G54D17*
D03*
X170096Y714500D02*
G54D28*
D03*
X159096Y714500D02*
G54D28*
D03*
X181500Y875900D02*
G54D24*
D03*
X181500Y886900D02*
G54D23*
D03*
X102000Y913000D02*
G54D26*
D03*
X102000Y900000D02*
G54D26*
D03*
X102000Y887000D02*
G54D26*
D03*
X102000Y874000D02*
G54D26*
D03*
X163000Y913000D02*
G54D26*
D03*
X163000Y900000D02*
G54D25*
D03*
X163000Y887000D02*
G54D26*
D03*
X163000Y874000D02*
G54D25*
D03*
X184000Y914000D02*
G54D29*
D03*
X202000Y914000D02*
G54D30*
D03*
X45000Y916000D02*
G54D28*
D03*
X34000Y916000D02*
G54D28*
D03*
X45000Y900000D02*
G54D28*
D03*
X34000Y900000D02*
G54D28*
D03*
X121500Y683500D02*
G54D23*
D03*
X121500Y672500D02*
G54D23*
D03*
X243000Y884000D02*
G54D31*
D03*
X254000Y884000D02*
G54D31*
D03*
X262000Y884000D02*
G54D31*
D03*
X271000Y884000D02*
G54D31*
D03*
X280000Y884000D02*
G54D31*
D03*
G54D27*
X280000Y884000D02*
X280000Y874000D01*
X277000Y871000D01*
X277000Y863000D01*
G54D27*
X271000Y884000D02*
X271000Y875000D01*
X269000Y873000D01*
X269000Y863000D01*
G54D27*
X262000Y884000D02*
X262000Y877000D01*
X261000Y876000D01*
X261000Y863000D01*
G54D27*
X254000Y884000D02*
X254000Y876000D01*
X253000Y875000D01*
X253000Y866000D01*
X326000Y849000D02*
G54D31*
D03*
X340000Y825000D02*
G54D31*
D03*
X340000Y729000D02*
G54D31*
D03*
X354000Y757000D02*
G54D31*
D03*
X290000Y783000D02*
G54D31*
D03*
X307000Y788000D02*
G54D31*
D03*
G54D32*
X333000Y813000D02*
X333000Y817000D01*
X327000Y823000D01*
X327000Y835000D01*
X314000Y848000D01*
X292000Y848000D01*
G54D33*
X333000Y795000D02*
X324000Y795000D01*
X320000Y799000D01*
X320000Y833000D01*
X313000Y840000D01*
X292000Y840000D01*
G54D34*
X338900Y885000D02*
X331000Y885000D01*
X326000Y880000D01*
X326000Y849000D01*
G54D33*
X339000Y854000D02*
X339000Y848000D01*
X333000Y842000D01*
X333000Y832000D01*
X340000Y825000D01*
G54D27*
X340000Y729000D02*
X340000Y717000D01*
G54D34*
X292000Y816000D02*
X308000Y816000D01*
X313000Y811000D01*
X313000Y792000D01*
X320000Y785000D01*
X337000Y785000D01*
X348000Y774000D01*
X348000Y763000D01*
X354000Y757000D01*
G54D32*
X269000Y778000D02*
X269000Y765000D01*
G54D32*
X261000Y778000D02*
X261000Y765000D01*
X261000Y765000D02*
G54D31*
D03*
X269000Y765000D02*
G54D31*
D03*
X124000Y808000D02*
G54D31*
D03*
X124000Y795000D02*
G54D31*
D03*
G54D27*
X121500Y699500D02*
X116000Y694000D01*
X105000Y694000D01*
X115500Y693500D01*
X121000Y688000D01*
X121000Y685000D01*
X121500Y684500D01*
G54D27*
X48000Y675000D02*
X48000Y694000D01*
X58000Y704000D01*
X77000Y704000D01*
X89000Y684000D02*
G54D31*
D03*
X48000Y721000D02*
G54D31*
D03*
G54D34*
X48000Y738000D02*
X48000Y721000D01*
G54D27*
X89000Y684000D02*
X75000Y684000D01*
G54D27*
X74000Y743000D02*
X106000Y743000D01*
G54D27*
X74000Y725000D02*
X86000Y725000D01*
X90000Y729000D01*
X106000Y729000D01*
G54D27*
X54000Y816000D02*
X69000Y816000D01*
X73000Y812000D01*
X73000Y774000D01*
X78000Y769000D01*
X106000Y769000D01*
G54D27*
X54000Y823000D02*
X72000Y823000D01*
X79000Y816000D01*
X79000Y778000D01*
G54D27*
X106000Y756000D02*
X84000Y756000D01*
X79000Y761000D01*
X79000Y778000D02*
G54D31*
D03*
X79000Y761000D02*
G54D31*
D03*
G54D27*
X34000Y916000D02*
X34000Y900000D01*
G54D27*
X45000Y916000D02*
X59000Y916000D01*
X75000Y900000D01*
X102000Y900000D01*
G54D34*
X45000Y900000D02*
X57000Y900000D01*
X69000Y888000D01*
X69000Y879000D01*
X74000Y874000D01*
X102000Y874000D01*
G54D34*
X54000Y830000D02*
X68000Y830000D01*
X74000Y836000D01*
X74000Y874000D01*
G54D34*
X165000Y821000D02*
X154000Y821000D01*
X143000Y832000D01*
X124000Y832000D01*
X74000Y836000D02*
G54D31*
D03*
G54D34*
X82000Y654000D02*
X82000Y644000D01*
X89000Y637000D01*
X306000Y637000D01*
X340000Y671000D01*
X340000Y688000D01*
G54D34*
X338900Y885000D02*
X339000Y915000D01*
X321000Y933000D01*
X133000Y933000D01*
X113000Y913000D01*
X102000Y913000D01*
X185500Y814500D02*
G54D23*
D03*
X185500Y803500D02*
G54D23*
D03*
X186000Y824000D02*
G54D31*
D03*
G54D35*
X186000Y824000D02*
X186000Y815000D01*
X185500Y814500D01*
G54D32*
X253000Y778000D02*
X253000Y765000D01*
X253000Y765000D02*
G54D31*
D03*
X140000Y913000D02*
G54D31*
D03*
G54D34*
X140000Y913000D02*
X163000Y913000D01*
X101938Y839658D02*
G54D36*
D03*
X90938Y839658D02*
G54D28*
D03*
G54D27*
X106000Y782000D02*
X92000Y782000D01*
X89000Y785000D01*
X89000Y826000D01*
X91000Y828000D01*
X90938Y839658D01*
X101938Y859658D02*
G54D36*
D03*
X90938Y859658D02*
G54D28*
D03*
G54D34*
X90938Y859658D02*
X74342Y859658D01*
X74000Y860000D01*
X196500Y895500D02*
G54D23*
D03*
X196500Y884500D02*
G54D24*
D03*
X166500Y839500D02*
G54D28*
D03*
X177500Y839500D02*
G54D36*
D03*
X166000Y855000D02*
G54D28*
D03*
X177000Y855000D02*
G54D28*
D03*
G54D27*
X163000Y887000D02*
X181500Y886900D01*
G54D27*
X177000Y855000D02*
X184000Y855000D01*
X190000Y849000D01*
X210000Y849000D01*
X302500Y882500D02*
G54D23*
D03*
X302500Y893500D02*
G54D23*
D03*
G54D27*
X221000Y863000D02*
X221000Y849000D01*
X231000Y839000D01*
X275000Y839000D01*
G54D33*
X307000Y788000D02*
X303000Y792000D01*
X295000Y792000D01*
G54D27*
X290000Y783000D02*
X277000Y783000D01*
G54D27*
X206000Y793000D02*
X189000Y793000D01*
X185000Y797000D01*
X185000Y803000D01*
X185500Y803500D01*
X288000Y915000D02*
G54D37*
D03*
X231000Y915000D02*
G54D38*
D03*
X302500Y857500D02*
G54D31*
D03*
G54D27*
X302500Y857500D02*
X302500Y870500D01*
X302500Y882500D01*
X275000Y839000D02*
G54D31*
D03*
X296000Y745000D02*
G54D39*
D03*
X283000Y745000D02*
G54D39*
D03*
X270000Y745000D02*
G54D39*
D03*
X257000Y745000D02*
G54D39*
D03*
X244000Y745000D02*
G54D39*
D03*
X231000Y745000D02*
G54D40*
D03*
X218000Y745000D02*
G54D40*
D03*
X204000Y745000D02*
G54D40*
D03*
X296000Y655000D02*
G54D39*
D03*
X283000Y655000D02*
G54D39*
D03*
X270000Y655000D02*
G54D39*
D03*
X257000Y655000D02*
G54D39*
D03*
X244000Y655000D02*
G54D40*
D03*
X231000Y655000D02*
G54D40*
D03*
X218000Y655000D02*
G54D40*
D03*
X204000Y655000D02*
G54D40*
D03*
G54D34*
X169000Y670000D02*
X169000Y656000D01*
X169000Y642000D01*
X174000Y637000D01*
G54D27*
X204000Y745000D02*
X204000Y755000D01*
X207000Y758000D01*
X242000Y758000D01*
X245000Y761000D01*
X245000Y778000D01*
G54D34*
X218000Y655000D02*
X218000Y642000D01*
X223000Y637000D01*
G54D32*
X218000Y745000D02*
X218000Y723000D01*
X237000Y765000D02*
G54D31*
D03*
G54D32*
X237000Y765000D02*
X237000Y778000D01*
X218000Y723000D02*
G54D31*
D03*
G54D27*
X204000Y745000D02*
X204000Y733000D01*
X193000Y722000D01*
X193000Y678000D01*
X185000Y670000D01*
X180000Y670000D01*
G54D32*
X218000Y723000D02*
X198000Y703000D01*
X198000Y677000D01*
X189000Y668000D01*
X189000Y660000D01*
X186000Y657000D01*
X180000Y656000D01*
G54D34*
X36000Y680000D02*
X36000Y660000D01*
X42000Y660000D01*
X42000Y680000D01*
X42000Y697000D01*
X58000Y713000D01*
X96000Y713000D01*
X105000Y704000D01*
G54D27*
X121500Y710500D02*
X111500Y710500D01*
X105000Y704000D01*
G54D27*
X77000Y694000D02*
X70000Y694000D01*
X67548Y691547D01*
X61500Y691500D01*
G54D27*
X166500Y839500D02*
X166000Y843000D01*
X166000Y855000D01*
G54D34*
X313000Y811000D02*
X313000Y825000D01*
X306000Y832000D01*
X292000Y832000D01*
X338000Y870000D02*
G54D41*
D03*
X338900Y885000D02*
G54D42*
D03*
X339000Y854000D02*
G54D42*
D03*
X353000Y886000D02*
G54D43*
D03*
X353000Y853000D02*
G54D43*
D03*
X359000Y885000D02*
G54D44*
D03*
X359000Y854000D02*
G54D44*
D03*
X338000Y704000D02*
G54D41*
D03*
X340000Y718950D02*
G54D45*
D03*
X340000Y688000D02*
G54D45*
D03*
X353000Y720000D02*
G54D43*
D03*
X353000Y687000D02*
G54D43*
D03*
X359000Y719000D02*
G54D44*
D03*
X359000Y688000D02*
G54D44*
D03*
G54D34*
X340000Y688000D02*
X331000Y688000D01*
X325000Y694000D01*
X325000Y728000D01*
X354000Y757000D01*
X202000Y914000D02*
G54D46*
D03*
X316027Y916954D02*
G54D46*
D03*
X22000Y875000D02*
G54D46*
D03*
X154000Y835000D02*
G54D46*
D03*
X147000Y877000D02*
G54D46*
D03*
X159000Y644000D02*
G54D46*
D03*
X203000Y774000D02*
G54D46*
D03*
X49000Y962000D02*
G54D46*
D03*
X207000Y677000D02*
G54D46*
D03*
X205000Y865000D02*
G54D46*
D03*
X272000Y797000D02*
G54D46*
D03*
X34000Y699000D02*
G54D46*
D03*
X124000Y819000D02*
G54D46*
D03*
X326000Y675000D02*
G54D46*
D03*
X340000Y633000D02*
G54D46*
D03*
X61000Y607000D02*
G54D46*
D03*
X21000Y850000D02*
G54D46*
D03*
X21000Y835000D02*
G54D46*
D03*
X53000Y850000D02*
G54D46*
D03*
X21000Y783000D02*
G54D46*
D03*
X106000Y647000D02*
G54D46*
D03*
X53000Y783000D02*
G54D46*
D03*
X15000Y905000D02*
G54D46*
D03*
X21000Y817000D02*
G54D46*
D03*
X121000Y935000D02*
G54D46*
D03*
X30000Y970000D02*
G54D47*
D03*
X340000Y970000D02*
G54D47*
D03*
X340000Y600000D02*
G54D47*
D03*
X30000Y600000D02*
G54D47*
D03*
X124000Y832000D02*
G54D31*
D03*
G54D34*
X124000Y832000D02*
X119000Y838000D01*
X119000Y843000D01*
X144000Y854000D02*
G54D23*
D03*
X144000Y843000D02*
G54D24*
D03*
X210500Y884500D02*
G54D23*
D03*
X210500Y895500D02*
G54D23*
D03*
G54D27*
X196500Y895500D02*
X210500Y895500D01*
X119000Y843000D02*
G54D28*
D03*
X130000Y843000D02*
G54D28*
D03*
X119000Y859000D02*
G54D36*
D03*
X130000Y859000D02*
G54D28*
D03*
G54D27*
X130000Y859000D02*
X130000Y843000D01*
G54D48*
X233782Y693444D02*
X233782Y702333D01*
X236005Y702333D01*
X236894Y701778D01*
X237338Y700667D01*
X237338Y695111D01*
X236894Y694000D01*
X236005Y693444D01*
X233782Y693444D01*
G54D48*
X240450Y695111D02*
X240894Y694000D01*
X241783Y693444D01*
X242672Y693444D01*
X243561Y694000D01*
X244005Y695111D01*
X244005Y696222D01*
X243561Y697333D01*
X242672Y697889D01*
X241783Y697889D01*
X240894Y698444D01*
X240450Y699556D01*
X240450Y700667D01*
X240894Y701778D01*
X241783Y702333D01*
X242672Y702333D01*
X243561Y701778D01*
X244005Y700667D01*
G54D48*
X247116Y700667D02*
X247561Y701778D01*
X248450Y702333D01*
X249339Y702333D01*
X250228Y701778D01*
X250672Y700667D01*
X250672Y699556D01*
X250228Y698444D01*
X249339Y697889D01*
X250228Y697333D01*
X250672Y696222D01*
X250672Y695111D01*
X250228Y694000D01*
X249339Y693444D01*
X248450Y693444D01*
X247561Y694000D01*
X247116Y695111D01*
G54D48*
X257339Y693444D02*
X253784Y693444D01*
X253784Y694000D01*
X254228Y695111D01*
X256895Y698444D01*
X257339Y699556D01*
X257339Y700667D01*
X256895Y701778D01*
X256006Y702333D01*
X255117Y702333D01*
X254228Y701778D01*
X253784Y700667D01*
G54D48*
X260450Y700667D02*
X260895Y701778D01*
X261784Y702333D01*
X262673Y702333D01*
X263562Y701778D01*
X264006Y700667D01*
X264006Y699556D01*
X263562Y698444D01*
X262673Y697889D01*
X263562Y697333D01*
X264006Y696222D01*
X264006Y695111D01*
X263562Y694000D01*
X262673Y693444D01*
X261784Y693444D01*
X260895Y694000D01*
X260450Y695111D01*
G54D48*
X267118Y699000D02*
X269340Y702333D01*
X269340Y693444D01*
X339027Y939954D02*
G54D46*
D03*
X326000Y776000D02*
G54D36*
D03*
X315000Y776000D02*
G54D28*
D03*
X326000Y761000D02*
G54D36*
D03*
X315000Y760999D02*
G54D28*
D03*
G54D27*
X290000Y783000D02*
X295000Y783000D01*
X306000Y772000D01*
X306000Y766000D01*
X311000Y761000D01*
X315000Y760999D01*
G54D27*
X307000Y788000D02*
X307000Y779000D01*
X310000Y776000D01*
X315000Y776000D01*
G54D34*
X206000Y841000D02*
X219000Y841000D01*
X228000Y832000D01*
X292000Y832000D01*
X180000Y656000D02*
G54D28*
D03*
X169000Y656000D02*
G54D28*
D03*
X180000Y670000D02*
G54D28*
D03*
X169000Y670000D02*
G54D28*
D03*
G54D34*
X121500Y672500D02*
X121500Y643500D01*
X128000Y637000D01*
G54D34*
X184000Y914000D02*
X184000Y925000D01*
X192000Y933000D01*
G54D27*
X130000Y859000D02*
X135000Y864000D01*
X189000Y864000D01*
G54D27*
X144000Y854000D02*
X144000Y860000D01*
X148000Y864000D01*
X237000Y846000D02*
G54D31*
D03*
G54D27*
X229000Y863000D02*
X229000Y850000D01*
X233000Y846000D01*
X237000Y846000D01*
X189000Y864000D02*
G54D31*
D03*
G54D27*
X237000Y863000D02*
X237000Y875500D01*
X234000Y878500D01*
X222500Y878500D01*
X216500Y884500D01*
X210500Y884500D01*
G54D27*
X210500Y895500D02*
X216500Y895500D01*
X228000Y884000D01*
X243000Y884000D01*
G54D49*
X12670Y929000D02*
X12670Y937889D01*
X14892Y937889D01*
X15781Y937333D01*
X16226Y936222D01*
X16226Y930667D01*
X15781Y929556D01*
X14892Y929000D01*
X12670Y929000D01*
G54D49*
X21115Y933444D02*
X22448Y932333D01*
X22893Y931222D01*
X22893Y929000D01*
G54D49*
X19337Y929000D02*
X19337Y937889D01*
X21559Y937889D01*
X22448Y937333D01*
X22893Y936222D01*
X22893Y935111D01*
X22448Y934000D01*
X21559Y933444D01*
X19337Y933444D01*
G54D49*
X26004Y929000D02*
X26004Y937889D01*
X28226Y932333D01*
X30448Y937889D01*
X30448Y929000D01*
G54D49*
X36759Y937889D02*
X36759Y929000D01*
X38981Y934556D01*
X41203Y929000D01*
X41203Y937889D01*
G54D49*
X44314Y933444D02*
X45203Y934000D01*
X46270Y934000D01*
X46981Y932889D01*
X46981Y929000D01*
G54D49*
X46981Y930667D02*
X46536Y931778D01*
X45647Y932000D01*
X44758Y931778D01*
X44314Y930667D01*
X44492Y929556D01*
X45203Y929000D01*
X45647Y929000D01*
X45825Y929000D01*
X46536Y929556D01*
X46981Y930667D01*
G54D49*
X50981Y937889D02*
X50981Y929556D01*
X51425Y929000D01*
X51870Y929222D01*
G54D49*
X50092Y934000D02*
X51870Y934000D01*
G54D49*
X57203Y933667D02*
X56314Y934000D01*
X55425Y933667D01*
X54981Y932556D01*
X54981Y930333D01*
X55425Y929222D01*
X56314Y929000D01*
X57203Y929222D01*
G54D49*
X60314Y929000D02*
X60314Y937889D01*
G54D49*
X60314Y932556D02*
X60758Y933667D01*
X61647Y934000D01*
X62536Y933667D01*
X62981Y932556D01*
X62981Y929000D01*
G54D49*
X69292Y937889D02*
X71514Y929000D01*
X73736Y937889D01*
G54D49*
X80403Y929000D02*
X76847Y929000D01*
X76847Y929556D01*
X77291Y930667D01*
X79958Y934000D01*
X80403Y935111D01*
X80403Y936222D01*
X79958Y937333D01*
X79069Y937889D01*
X78180Y937889D01*
X77291Y937333D01*
X76847Y936222D01*
G54D49*
X88492Y933444D02*
X89825Y932333D01*
X90270Y931222D01*
X90270Y929000D01*
G54D49*
X86714Y929000D02*
X86714Y937889D01*
X88936Y937889D01*
X89825Y937333D01*
X90270Y936222D01*
X90270Y935111D01*
X89825Y934000D01*
X88936Y933444D01*
X86714Y933444D01*
G54D49*
X96048Y929556D02*
X95337Y929000D01*
X94448Y929000D01*
X93559Y929556D01*
X93381Y930667D01*
X93381Y932556D01*
X93825Y933667D01*
X94714Y934000D01*
X95603Y933667D01*
X96048Y932889D01*
X96048Y931778D01*
X93381Y931778D01*
G54D49*
X99159Y934000D02*
X100937Y929000D01*
X102715Y934000D01*
G54D49*
X106182Y929000D02*
X105826Y929000D01*
X105826Y929444D01*
X106182Y929444D01*
X106182Y929000D01*
X105826Y929000D01*
G54D49*
X112849Y937889D02*
X109293Y937889D01*
X109293Y934000D01*
X109737Y934000D01*
X110626Y934556D01*
X111515Y934556D01*
X112404Y934000D01*
X112849Y932889D01*
X112849Y930667D01*
X112404Y929556D01*
X111515Y929000D01*
X110626Y929000D01*
X109737Y929556D01*
X109293Y930667D01*
X21000Y800000D02*
G54D46*
D03*
G54D27*
X302500Y893500D02*
X302500Y910500D01*
X298000Y915000D01*
X288000Y915000D01*
G54D48*
X237661Y814667D02*
X238105Y815778D01*
X238994Y816333D01*
X239883Y816333D01*
X240772Y815778D01*
X241217Y814667D01*
X241217Y813556D01*
X240772Y812444D01*
X239883Y811889D01*
X240772Y811333D01*
X241217Y810222D01*
X241217Y809111D01*
X240772Y808000D01*
X239883Y807444D01*
X238994Y807444D01*
X238105Y808000D01*
X237661Y809111D01*
G54D48*
X247884Y807444D02*
X244328Y807444D01*
X244328Y808000D01*
X244772Y809111D01*
X247439Y812444D01*
X247884Y813556D01*
X247884Y814667D01*
X247439Y815778D01*
X246550Y816333D01*
X245661Y816333D01*
X244772Y815778D01*
X244328Y814667D01*
G54D48*
X253217Y811889D02*
X252328Y811889D01*
X251439Y812444D01*
X250995Y813556D01*
X250995Y814667D01*
X251439Y815778D01*
X252328Y816333D01*
X253217Y816333D01*
X254106Y815778D01*
X254551Y814667D01*
X254551Y813556D01*
X254106Y812444D01*
X253217Y811889D01*
X254106Y811333D01*
X254551Y810222D01*
X254551Y809111D01*
X254106Y808000D01*
X253217Y807444D01*
X252328Y807444D01*
X251439Y808000D01*
X250995Y809111D01*
X250995Y810222D01*
X251439Y811333D01*
X252328Y811889D01*
G54D48*
X257662Y807444D02*
X257662Y816333D01*
X259884Y816333D01*
X260773Y815778D01*
X261218Y814667D01*
X261218Y813556D01*
X260773Y812444D01*
X259884Y811889D01*
X257662Y811889D01*
G54D50*
X125225Y745111D02*
X124780Y744000D01*
X123891Y743444D01*
X123002Y743444D01*
X122113Y744000D01*
X121669Y745111D01*
X121669Y750667D01*
X122113Y751778D01*
X123002Y752333D01*
X123891Y752333D01*
X124780Y751778D01*
X125225Y750667D01*
G54D50*
X127669Y743444D02*
X127669Y752333D01*
G54D50*
X131225Y743444D02*
X131225Y752333D01*
G54D50*
X127669Y747889D02*
X131225Y747889D01*
G54D50*
X133669Y750667D02*
X134113Y751778D01*
X135002Y752333D01*
X135891Y752333D01*
X136780Y751778D01*
X137225Y750667D01*
X137225Y749556D01*
X136780Y748444D01*
X135891Y747889D01*
X136780Y747333D01*
X137225Y746222D01*
X137225Y745111D01*
X136780Y744000D01*
X135891Y743444D01*
X135002Y743444D01*
X134113Y744000D01*
X133669Y745111D01*
G54D50*
X142336Y743444D02*
X142336Y752333D01*
X139669Y746778D01*
X139669Y745667D01*
X143225Y745667D01*
G54D50*
X149225Y750667D02*
X149225Y745111D01*
X148780Y744000D01*
X147891Y743444D01*
X147002Y743444D01*
X146113Y744000D01*
X145669Y745111D01*
X145669Y750667D01*
X146113Y751778D01*
X147002Y752333D01*
X147891Y752333D01*
X148780Y751778D01*
X149225Y750667D01*
G54D50*
X118503Y883444D02*
X118503Y889667D01*
G54D50*
X117258Y889667D02*
X119747Y889667D01*
G54D50*
X124414Y884611D02*
X124103Y883833D01*
X123481Y883444D01*
X122859Y883444D01*
X122237Y883833D01*
X121926Y884611D01*
X121926Y888500D01*
X122237Y889278D01*
X122859Y889667D01*
X123481Y889667D01*
X124103Y889278D01*
X124414Y888500D01*
G54D50*
X128459Y883444D02*
X128459Y889667D01*
X126592Y885778D01*
X126592Y885000D01*
X129081Y885000D01*
G54D50*
X133748Y888500D02*
X133748Y884611D01*
X133437Y883833D01*
X132815Y883444D01*
X132193Y883444D01*
X131571Y883833D01*
X131260Y884611D01*
X131260Y888500D01*
X131571Y889278D01*
X132193Y889667D01*
X132815Y889667D01*
X133437Y889278D01*
X133748Y888500D01*
G54D50*
X138415Y889667D02*
X135926Y889667D01*
X135926Y886944D01*
X136238Y886944D01*
X136860Y887333D01*
X137482Y887333D01*
X138104Y886944D01*
X138415Y886167D01*
X138415Y884611D01*
X138104Y883833D01*
X137482Y883444D01*
X136860Y883444D01*
X136238Y883833D01*
X135926Y884611D01*
G54D50*
X143082Y888500D02*
X142771Y889278D01*
X142149Y889667D01*
X141527Y889667D01*
X140905Y889278D01*
X140594Y888500D01*
X140594Y886556D01*
X140594Y886167D01*
X141527Y886944D01*
X142149Y886944D01*
X142771Y886556D01*
X143082Y885778D01*
X143082Y884611D01*
X142771Y883833D01*
X142149Y883444D01*
X141527Y883444D01*
X140905Y883833D01*
X140594Y884611D01*
X140594Y886556D01*
G54D50*
X145260Y883444D02*
X146816Y889667D01*
X148372Y883444D01*
G54D50*
X145883Y885778D02*
X147749Y885778D01*
G54D48*
X236275Y893444D02*
X236275Y902333D01*
X238497Y902333D01*
X239386Y901778D01*
X239831Y900667D01*
X239831Y899556D01*
X239386Y898444D01*
X238497Y897889D01*
X239386Y897333D01*
X239831Y896222D01*
X239831Y895111D01*
X239386Y894000D01*
X238497Y893444D01*
X236275Y893444D01*
G54D48*
X236275Y897889D02*
X238497Y897889D01*
G54D48*
X242942Y902333D02*
X242942Y895111D01*
X243386Y894000D01*
X244275Y893444D01*
X245164Y893444D01*
X246053Y894000D01*
X246498Y895111D01*
X246498Y902333D01*
G54D48*
X249609Y902333D02*
X253165Y902333D01*
X249609Y893444D01*
X253165Y893444D01*
G54D48*
X256276Y902333D02*
X259832Y902333D01*
X256276Y893444D01*
X259832Y893444D01*
G54D48*
X266054Y893444D02*
X262943Y893444D01*
X262943Y902333D01*
X266054Y902333D01*
G54D48*
X262943Y897889D02*
X266054Y897889D01*
G54D48*
X270943Y897889D02*
X272276Y896778D01*
X272721Y895667D01*
X272721Y893444D01*
G54D48*
X269165Y893444D02*
X269165Y902333D01*
X271387Y902333D01*
X272276Y901778D01*
X272721Y900667D01*
X272721Y899556D01*
X272276Y898444D01*
X271387Y897889D01*
X269165Y897889D01*
G54D51*
X30800Y710111D02*
X30800Y713667D01*
X32045Y713667D01*
G54D51*
X30800Y711889D02*
X32045Y711889D01*
G54D51*
X33022Y710778D02*
X33200Y710333D01*
X33556Y710111D01*
X33911Y710111D01*
X34267Y710333D01*
X34445Y710778D01*
X34445Y711222D01*
X34267Y711667D01*
X33911Y711889D01*
X33556Y711889D01*
X33200Y712111D01*
X33022Y712555D01*
X33022Y713000D01*
X33200Y713444D01*
X33556Y713667D01*
X33911Y713667D01*
X34267Y713444D01*
X34445Y713000D01*
G54D51*
X36311Y711889D02*
X35956Y711889D01*
X35600Y712111D01*
X35422Y712555D01*
X35422Y713000D01*
X35600Y713444D01*
X35956Y713667D01*
X36311Y713667D01*
X36667Y713444D01*
X36845Y713000D01*
X36845Y712555D01*
X36667Y712111D01*
X36311Y711889D01*
X36667Y711667D01*
X36845Y711222D01*
X36845Y710778D01*
X36667Y710333D01*
X36311Y710111D01*
X35956Y710111D01*
X35600Y710333D01*
X35422Y710778D01*
X35422Y711222D01*
X35600Y711667D01*
X35956Y711889D01*
G54D51*
X39245Y710111D02*
X37822Y710111D01*
X37822Y710333D01*
X38000Y710778D01*
X39067Y712111D01*
X39245Y712555D01*
X39245Y713000D01*
X39067Y713444D01*
X38711Y713667D01*
X38356Y713667D01*
X38000Y713444D01*
X37822Y713000D01*
G54D51*
X41645Y713000D02*
X41645Y710778D01*
X41467Y710333D01*
X41111Y710111D01*
X40756Y710111D01*
X40400Y710333D01*
X40222Y710778D01*
X40222Y713000D01*
X40400Y713444D01*
X40756Y713667D01*
X41111Y713667D01*
X41467Y713444D01*
X41645Y713000D01*
G54D51*
X44045Y713667D02*
X42622Y713667D01*
X42622Y712111D01*
X42800Y712111D01*
X43156Y712333D01*
X43511Y712333D01*
X43867Y712111D01*
X44045Y711667D01*
X44045Y710778D01*
X43867Y710333D01*
X43511Y710111D01*
X43156Y710111D01*
X42800Y710333D01*
X42622Y710778D01*
G54D51*
X45022Y710111D02*
X45911Y713667D01*
X46800Y710111D01*
G54D51*
X45378Y711444D02*
X46445Y711444D01*
X147000Y782000D02*
G54D31*
D03*
X170096Y700500D02*
G54D28*
D03*
X159096Y700500D02*
G54D28*
D03*
X170096Y686500D02*
G54D28*
D03*
X159096Y686500D02*
G54D28*
D03*
X149000Y714000D02*
G54D31*
D03*
X149000Y702000D02*
G54D31*
D03*
X149000Y690000D02*
G54D31*
D03*
G54D52*
X159096Y714500D02*
X149000Y714000D01*
G54D52*
X159096Y700500D02*
X150500Y700500D01*
X149000Y702000D01*
G54D52*
X159096Y686500D02*
X152500Y686500D01*
X149000Y690000D01*
G54D52*
X165000Y782000D02*
X147000Y782000D01*
X184000Y713000D02*
G54D31*
D03*
X184000Y700000D02*
G54D31*
D03*
X184000Y687000D02*
G54D31*
D03*
G54D27*
X170096Y686500D02*
X177500Y686500D01*
X178000Y687000D01*
X184000Y687000D01*
G54D27*
X170096Y714500D02*
X175500Y714500D01*
X177000Y713000D01*
X184000Y713000D01*
G54D27*
X170096Y700500D02*
X177500Y700500D01*
X178000Y700000D01*
X184000Y700000D01*
G54D48*
X34171Y626444D02*
X34171Y635333D01*
X36393Y635333D01*
X37282Y634778D01*
X37727Y633667D01*
X37727Y632556D01*
X37282Y631444D01*
X36393Y630889D01*
X37282Y630333D01*
X37727Y629222D01*
X37727Y628111D01*
X37282Y627000D01*
X36393Y626444D01*
X34171Y626444D01*
G54D48*
X34171Y630889D02*
X36393Y630889D01*
G54D48*
X40838Y626444D02*
X43060Y635333D01*
X45282Y626444D01*
G54D48*
X41727Y629778D02*
X44394Y629778D01*
G54D48*
X50171Y626444D02*
X50171Y635333D01*
G54D48*
X48393Y635333D02*
X51949Y635333D01*
G54D48*
X56838Y626444D02*
X56838Y635333D01*
G54D48*
X55060Y635333D02*
X58616Y635333D01*
G54D48*
X64838Y626444D02*
X61727Y626444D01*
X61727Y635333D01*
X64838Y635333D01*
G54D48*
X61727Y630889D02*
X64838Y630889D01*
G54D48*
X69727Y630889D02*
X71060Y629778D01*
X71505Y628667D01*
X71505Y626444D01*
G54D48*
X67949Y626444D02*
X67949Y635333D01*
X70171Y635333D01*
X71060Y634778D01*
X71505Y633667D01*
X71505Y632556D01*
X71060Y631444D01*
X70171Y630889D01*
X67949Y630889D01*
G54D48*
X74616Y635333D02*
X76838Y630889D01*
X76838Y626444D01*
G54D48*
X76838Y630889D02*
X79060Y635333D01*
G54D48*
X15802Y768333D02*
X15802Y761111D01*
X16246Y760000D01*
X17135Y759444D01*
X18024Y759444D01*
X18913Y760000D01*
X19358Y761111D01*
X19358Y768333D01*
G54D48*
X22469Y761111D02*
X22913Y760000D01*
X23802Y759444D01*
X24691Y759444D01*
X25580Y760000D01*
X26025Y761111D01*
X26025Y762222D01*
X25580Y763333D01*
X24691Y763889D01*
X23802Y763889D01*
X22913Y764444D01*
X22469Y765556D01*
X22469Y766667D01*
X22913Y767778D01*
X23802Y768333D01*
X24691Y768333D01*
X25580Y767778D01*
X26025Y766667D01*
G54D48*
X29136Y759444D02*
X29136Y768333D01*
X31358Y768333D01*
X32247Y767778D01*
X32692Y766667D01*
X32692Y765556D01*
X32247Y764444D01*
X31358Y763889D01*
X32247Y763333D01*
X32692Y762222D01*
X32692Y761111D01*
X32247Y760000D01*
X31358Y759444D01*
X29136Y759444D01*
G54D48*
X29136Y763889D02*
X31358Y763889D01*
G54D53*
X347508Y865334D02*
X347508Y872445D01*
X349286Y872445D01*
X349997Y872000D01*
X350352Y871111D01*
X350352Y870222D01*
X349997Y869334D01*
X349286Y868889D01*
X349997Y868445D01*
X350352Y867556D01*
X350352Y866667D01*
X349997Y865778D01*
X349286Y865334D01*
X347508Y865334D01*
G54D53*
X347508Y868889D02*
X349286Y868889D01*
G54D53*
X352841Y872445D02*
X352841Y866667D01*
X353197Y865778D01*
X353908Y865334D01*
X354619Y865334D01*
X355330Y865778D01*
X355685Y866667D01*
X355685Y872445D01*
G54D53*
X359596Y865334D02*
X359596Y872445D01*
G54D53*
X358174Y872445D02*
X361018Y872445D01*
G54D53*
X347508Y700334D02*
X347508Y707445D01*
X349286Y707445D01*
X349997Y707000D01*
X350352Y706111D01*
X350352Y705222D01*
X349997Y704334D01*
X349286Y703889D01*
X349997Y703445D01*
X350352Y702556D01*
X350352Y701667D01*
X349997Y700778D01*
X349286Y700334D01*
X347508Y700334D01*
G54D53*
X347508Y703889D02*
X349286Y703889D01*
G54D53*
X352841Y707445D02*
X352841Y701667D01*
X353197Y700778D01*
X353908Y700334D01*
X354619Y700334D01*
X355330Y700778D01*
X355685Y701667D01*
X355685Y707445D01*
G54D53*
X359596Y700334D02*
X359596Y707445D01*
G54D53*
X358174Y707445D02*
X361018Y707445D01*
X288000Y863000D02*
G54D46*
D03*
X39000Y759000D02*
G54D46*
D03*
X14000Y710000D02*
G54D46*
D03*
X13000Y648000D02*
G54D46*
D03*
X303000Y608000D02*
G54D46*
D03*
X304000Y948000D02*
G54D46*
D03*
X60000Y671000D02*
G54D46*
D03*
G54D51*
X69800Y671111D02*
X69800Y674667D01*
X70689Y674667D01*
X71045Y674444D01*
X71223Y674000D01*
X71223Y671778D01*
X71045Y671333D01*
X70689Y671111D01*
X69800Y671111D01*
G54D51*
X72200Y674667D02*
X72200Y671111D01*
X73089Y673333D01*
X73978Y671111D01*
X73978Y674667D01*
G54D51*
X76379Y674000D02*
X76379Y671778D01*
X76201Y671333D01*
X75845Y671111D01*
X75490Y671111D01*
X75134Y671333D01*
X74956Y671778D01*
X74956Y674000D01*
X75134Y674444D01*
X75490Y674667D01*
X75845Y674667D01*
X76201Y674444D01*
X76379Y674000D01*
G54D51*
X77356Y673333D02*
X78245Y674667D01*
X78245Y671111D01*
G54D51*
X79224Y671111D02*
X80112Y674667D01*
X81001Y671111D01*
G54D51*
X79579Y672444D02*
X80646Y672444D01*
G54D54*
X294763Y962111D02*
X296763Y954111D01*
X298763Y962111D01*
G54D54*
X304763Y955611D02*
X304363Y954611D01*
X303563Y954111D01*
X302763Y954111D01*
X301963Y954611D01*
X301563Y955611D01*
X301563Y960611D01*
X301963Y961611D01*
X302763Y962111D01*
X303563Y962111D01*
X304363Y961611D01*
X304763Y960611D01*
G54D54*
X310763Y955611D02*
X310363Y954611D01*
X309563Y954111D01*
X308763Y954111D01*
X307963Y954611D01*
X307563Y955611D01*
X307563Y960611D01*
X307963Y961611D01*
X308763Y962111D01*
X309563Y962111D01*
X310363Y961611D01*
X310763Y960611D01*
G54D48*
X60777Y958111D02*
X62555Y958111D01*
X62555Y955333D01*
X62111Y954222D01*
X61222Y953666D01*
X60333Y953666D01*
X59444Y954222D01*
X59000Y955333D01*
X59000Y960889D01*
X59444Y962000D01*
X60333Y962555D01*
X61222Y962555D01*
X62111Y962000D01*
X62555Y960889D01*
G54D48*
X65666Y953666D02*
X65666Y962555D01*
X69222Y953666D01*
X69222Y962555D01*
G54D48*
X72334Y953666D02*
X72334Y962555D01*
X74556Y962555D01*
X75445Y962000D01*
X75889Y960889D01*
X75889Y955333D01*
X75445Y954222D01*
X74556Y953666D01*
X72334Y953666D01*
G54D55*
X63489Y590000D02*
X61000Y590000D01*
X61000Y590389D01*
X61311Y591167D01*
X63178Y593500D01*
X63489Y594278D01*
X63489Y595056D01*
X63178Y595833D01*
X62556Y596222D01*
X61933Y596222D01*
X61311Y595833D01*
X61000Y595056D01*
G54D55*
X67689Y595056D02*
X67689Y591167D01*
X67378Y590389D01*
X66756Y590000D01*
X66133Y590000D01*
X65511Y590389D01*
X65200Y591167D01*
X65200Y595056D01*
X65511Y595833D01*
X66133Y596222D01*
X66756Y596222D01*
X67378Y595833D01*
X67689Y595056D01*
G54D55*
X69400Y590000D02*
X69400Y593500D01*
G54D55*
X69400Y592878D02*
X70022Y593500D01*
X70644Y593267D01*
X70956Y592722D01*
X70956Y590000D01*
G54D55*
X70956Y592878D02*
X71578Y593500D01*
X72200Y593267D01*
X72511Y592722D01*
X72511Y590000D01*
G54D55*
X74222Y590000D02*
X74222Y593500D01*
G54D55*
X74222Y592878D02*
X74844Y593500D01*
X75466Y593267D01*
X75778Y592722D01*
X75778Y590000D01*
G54D55*
X75778Y592878D02*
X76400Y593500D01*
X77022Y593267D01*
X77333Y592722D01*
X77333Y590000D01*
G54D55*
X295489Y590000D02*
X293000Y590000D01*
X293000Y590389D01*
X293311Y591167D01*
X295178Y593500D01*
X295489Y594278D01*
X295489Y595056D01*
X295178Y595833D01*
X294556Y596222D01*
X293933Y596222D01*
X293311Y595833D01*
X293000Y595056D01*
G54D55*
X299689Y595056D02*
X299689Y591167D01*
X299378Y590389D01*
X298756Y590000D01*
X298133Y590000D01*
X297511Y590389D01*
X297200Y591167D01*
X297200Y595056D01*
X297511Y595833D01*
X298133Y596222D01*
X298756Y596222D01*
X299378Y595833D01*
X299689Y595056D01*
G54D55*
X301400Y590000D02*
X301400Y593500D01*
G54D55*
X301400Y592878D02*
X302022Y593500D01*
X302644Y593267D01*
X302956Y592722D01*
X302956Y590000D01*
G54D55*
X302956Y592878D02*
X303578Y593500D01*
X304200Y593267D01*
X304511Y592722D01*
X304511Y590000D01*
G54D55*
X306222Y590000D02*
X306222Y593500D01*
G54D55*
X306222Y592878D02*
X306844Y593500D01*
X307466Y593267D01*
X307778Y592722D01*
X307778Y590000D01*
G54D55*
X307778Y592878D02*
X308400Y593500D01*
X309022Y593267D01*
X309333Y592722D01*
X309333Y590000D01*
X302000Y980000D02*
G54D37*
D03*
X68000Y980000D02*
G54D38*
D03*
G54D34*
X302000Y980000D02*
X303000Y980000D01*
X321000Y962000D01*
X321000Y933000D01*
%LPD*%
X54000Y830000D02*
G54D11*
D03*
X54000Y823000D02*
G54D11*
D03*
X54000Y816000D02*
G54D11*
D03*
X54000Y802000D02*
G54D11*
D03*
X54000Y809000D02*
G54D11*
D03*
X51000Y849000D02*
G54D12*
D03*
X52000Y784000D02*
G54D12*
D03*
X24000Y816000D02*
G54D13*
D03*
X221000Y863000D02*
G54D56*
D03*
X229000Y863000D02*
G54D56*
D03*
X237000Y863000D02*
G54D56*
D03*
X245000Y863000D02*
G54D56*
D03*
X253000Y863000D02*
G54D56*
D03*
X261000Y863000D02*
G54D56*
D03*
X269000Y863000D02*
G54D56*
D03*
X277000Y863000D02*
G54D56*
D03*
X221000Y778000D02*
G54D56*
D03*
X229000Y778000D02*
G54D56*
D03*
X237000Y778000D02*
G54D56*
D03*
X245000Y778000D02*
G54D56*
D03*
X253000Y778000D02*
G54D56*
D03*
X261000Y778000D02*
G54D56*
D03*
X269000Y778000D02*
G54D56*
D03*
X277000Y778000D02*
G54D56*
D03*
X292000Y848000D02*
G54D16*
D03*
X292000Y840000D02*
G54D16*
D03*
X292000Y832000D02*
G54D16*
D03*
X292000Y824000D02*
G54D16*
D03*
X292000Y816000D02*
G54D16*
D03*
X292000Y808000D02*
G54D16*
D03*
X292000Y800000D02*
G54D16*
D03*
X292000Y792000D02*
G54D16*
D03*
X206000Y849000D02*
G54D16*
D03*
X206000Y841000D02*
G54D16*
D03*
X206000Y833000D02*
G54D16*
D03*
X206000Y825000D02*
G54D16*
D03*
X206000Y817000D02*
G54D16*
D03*
X206000Y809000D02*
G54D16*
D03*
X206000Y801000D02*
G54D16*
D03*
X206000Y793000D02*
G54D16*
D03*
X333000Y813000D02*
G54D18*
D03*
X333000Y804000D02*
G54D18*
D03*
X333000Y795000D02*
G54D18*
D03*
X38000Y654000D02*
G54D57*
D03*
X82000Y654000D02*
G54D57*
D03*
X48000Y738000D02*
G54D21*
D03*
X42000Y738000D02*
G54D21*
D03*
X36000Y738000D02*
G54D21*
D03*
X30000Y738000D02*
G54D21*
D03*
X48000Y680000D02*
G54D21*
D03*
X42000Y680000D02*
G54D21*
D03*
X36000Y680000D02*
G54D21*
D03*
X30000Y680000D02*
G54D21*
D03*
X77000Y704000D02*
G54D58*
D03*
X77000Y694000D02*
G54D58*
D03*
X77000Y684000D02*
G54D58*
D03*
X105000Y704000D02*
G54D58*
D03*
X105000Y694000D02*
G54D58*
D03*
X105000Y684000D02*
G54D58*
D03*
X61500Y691500D02*
G54D24*
D03*
X61500Y680500D02*
G54D24*
D03*
X121500Y699500D02*
G54D24*
D03*
X121500Y710500D02*
G54D24*
D03*
X106000Y821000D02*
G54D25*
D03*
X106000Y808000D02*
G54D25*
D03*
X106000Y795000D02*
G54D25*
D03*
X106000Y782000D02*
G54D25*
D03*
X106000Y769000D02*
G54D25*
D03*
X106000Y756000D02*
G54D25*
D03*
X106000Y743000D02*
G54D25*
D03*
X106000Y729000D02*
G54D25*
D03*
X165000Y821000D02*
G54D25*
D03*
X165000Y808000D02*
G54D25*
D03*
X165000Y795000D02*
G54D25*
D03*
X165000Y782000D02*
G54D25*
D03*
X165000Y769000D02*
G54D25*
D03*
X165000Y756000D02*
G54D25*
D03*
X165000Y743000D02*
G54D25*
D03*
X165000Y729000D02*
G54D25*
D03*
G54D52*
X106000Y808000D02*
X124000Y808000D01*
G54D52*
X106000Y795000D02*
X124000Y795000D01*
X74000Y743000D02*
G54D18*
D03*
X74000Y734000D02*
G54D18*
D03*
X74000Y725000D02*
G54D18*
D03*
X170096Y714500D02*
G54D36*
D03*
X159096Y714500D02*
G54D36*
D03*
X181500Y875900D02*
G54D24*
D03*
X181500Y886900D02*
G54D24*
D03*
X102000Y913000D02*
G54D25*
D03*
X102000Y900000D02*
G54D25*
D03*
X102000Y887000D02*
G54D25*
D03*
X102000Y874000D02*
G54D25*
D03*
X163000Y913000D02*
G54D25*
D03*
X163000Y900000D02*
G54D25*
D03*
X163000Y887000D02*
G54D25*
D03*
X163000Y874000D02*
G54D25*
D03*
X184000Y914000D02*
G54D30*
D03*
X202000Y914000D02*
G54D30*
D03*
X45000Y916000D02*
G54D36*
D03*
X34000Y916000D02*
G54D36*
D03*
X45000Y900000D02*
G54D36*
D03*
X34000Y900000D02*
G54D36*
D03*
X121500Y683500D02*
G54D24*
D03*
X121500Y672500D02*
G54D24*
D03*
X243000Y884000D02*
G54D46*
D03*
X254000Y884000D02*
G54D46*
D03*
X262000Y884000D02*
G54D46*
D03*
X271000Y884000D02*
G54D46*
D03*
X280000Y884000D02*
G54D46*
D03*
G54D52*
X280000Y884000D02*
X280000Y874000D01*
X277000Y871000D01*
X277000Y863000D01*
G54D52*
X271000Y884000D02*
X271000Y875000D01*
X269000Y873000D01*
X269000Y863000D01*
G54D52*
X262000Y884000D02*
X262000Y877000D01*
X261000Y876000D01*
X261000Y863000D01*
G54D52*
X254000Y884000D02*
X254000Y876000D01*
X253000Y875000D01*
X253000Y866000D01*
X326000Y849000D02*
G54D46*
D03*
X340000Y825000D02*
G54D46*
D03*
X340000Y729000D02*
G54D46*
D03*
X354000Y757000D02*
G54D46*
D03*
X290000Y783000D02*
G54D46*
D03*
X307000Y788000D02*
G54D46*
D03*
G54D59*
X333000Y813000D02*
X333000Y817000D01*
X327000Y823000D01*
X327000Y835000D01*
X314000Y848000D01*
X292000Y848000D01*
G54D53*
X333000Y795000D02*
X324000Y795000D01*
X320000Y799000D01*
X320000Y833000D01*
X313000Y840000D01*
X292000Y840000D01*
G54D60*
X338900Y885000D02*
X331000Y885000D01*
X326000Y880000D01*
X326000Y849000D01*
G54D53*
X339000Y854000D02*
X339000Y848000D01*
X333000Y842000D01*
X333000Y832000D01*
X340000Y825000D01*
G54D52*
X340000Y729000D02*
X340000Y717000D01*
G54D60*
X292000Y816000D02*
X308000Y816000D01*
X313000Y811000D01*
X313000Y792000D01*
X320000Y785000D01*
X337000Y785000D01*
X348000Y774000D01*
X348000Y763000D01*
X354000Y757000D01*
G54D59*
X269000Y778000D02*
X269000Y765000D01*
G54D59*
X261000Y778000D02*
X261000Y765000D01*
X261000Y765000D02*
G54D46*
D03*
X269000Y765000D02*
G54D46*
D03*
X124000Y808000D02*
G54D46*
D03*
X124000Y795000D02*
G54D46*
D03*
G54D52*
X121500Y699500D02*
X116000Y694000D01*
X105000Y694000D01*
X115500Y693500D01*
X121000Y688000D01*
X121000Y685000D01*
X121500Y684500D01*
G54D52*
X48000Y675000D02*
X48000Y694000D01*
X58000Y704000D01*
X77000Y704000D01*
X89000Y684000D02*
G54D46*
D03*
X48000Y721000D02*
G54D46*
D03*
G54D60*
X48000Y738000D02*
X48000Y721000D01*
G54D52*
X89000Y684000D02*
X75000Y684000D01*
G54D52*
X74000Y743000D02*
X106000Y743000D01*
G54D52*
X74000Y725000D02*
X86000Y725000D01*
X90000Y729000D01*
X106000Y729000D01*
G54D52*
X54000Y816000D02*
X69000Y816000D01*
X73000Y812000D01*
X73000Y774000D01*
X78000Y769000D01*
X106000Y769000D01*
G54D52*
X54000Y823000D02*
X72000Y823000D01*
X79000Y816000D01*
X79000Y778000D01*
G54D52*
X106000Y756000D02*
X84000Y756000D01*
X79000Y761000D01*
X79000Y778000D02*
G54D46*
D03*
X79000Y761000D02*
G54D46*
D03*
G54D52*
X34000Y916000D02*
X34000Y900000D01*
G54D52*
X45000Y916000D02*
X59000Y916000D01*
X75000Y900000D01*
X102000Y900000D01*
G54D60*
X45000Y900000D02*
X57000Y900000D01*
X69000Y888000D01*
X69000Y879000D01*
X74000Y874000D01*
X102000Y874000D01*
G54D60*
X54000Y830000D02*
X68000Y830000D01*
X74000Y836000D01*
X74000Y874000D01*
G54D60*
X165000Y821000D02*
X154000Y821000D01*
X143000Y832000D01*
X124000Y832000D01*
X74000Y836000D02*
G54D46*
D03*
G54D60*
X82000Y654000D02*
X82000Y644000D01*
X89000Y637000D01*
X306000Y637000D01*
X340000Y671000D01*
X340000Y688000D01*
G54D60*
X338900Y885000D02*
X339000Y915000D01*
X321000Y933000D01*
X133000Y933000D01*
X113000Y913000D01*
X102000Y913000D01*
X185500Y814500D02*
G54D24*
D03*
X185500Y803500D02*
G54D24*
D03*
X186000Y824000D02*
G54D46*
D03*
G54D61*
X186000Y824000D02*
X186000Y815000D01*
X185500Y814500D01*
G54D59*
X253000Y778000D02*
X253000Y765000D01*
X253000Y765000D02*
G54D46*
D03*
X140000Y913000D02*
G54D46*
D03*
G54D60*
X140000Y913000D02*
X163000Y913000D01*
X101938Y839658D02*
G54D36*
D03*
X90938Y839658D02*
G54D36*
D03*
G54D52*
X106000Y782000D02*
X92000Y782000D01*
X89000Y785000D01*
X89000Y826000D01*
X91000Y828000D01*
X90938Y839658D01*
X101938Y859658D02*
G54D36*
D03*
X90938Y859658D02*
G54D36*
D03*
G54D60*
X90938Y859658D02*
X74342Y859658D01*
X74000Y860000D01*
X196500Y895500D02*
G54D24*
D03*
X196500Y884500D02*
G54D24*
D03*
X166500Y839500D02*
G54D36*
D03*
X177500Y839500D02*
G54D36*
D03*
X166000Y855000D02*
G54D36*
D03*
X177000Y855000D02*
G54D36*
D03*
G54D52*
X163000Y887000D02*
X181500Y886900D01*
G54D52*
X177000Y855000D02*
X184000Y855000D01*
X190000Y849000D01*
X210000Y849000D01*
X302500Y882500D02*
G54D24*
D03*
X302500Y893500D02*
G54D24*
D03*
G54D52*
X221000Y863000D02*
X221000Y849000D01*
X231000Y839000D01*
X275000Y839000D01*
G54D53*
X307000Y788000D02*
X303000Y792000D01*
X295000Y792000D01*
G54D52*
X290000Y783000D02*
X277000Y783000D01*
G54D52*
X206000Y793000D02*
X189000Y793000D01*
X185000Y797000D01*
X185000Y803000D01*
X185500Y803500D01*
X288000Y915000D02*
G54D38*
D03*
X231000Y915000D02*
G54D38*
D03*
X302500Y857500D02*
G54D46*
D03*
G54D52*
X302500Y857500D02*
X302500Y870500D01*
X302500Y882500D01*
X275000Y839000D02*
G54D46*
D03*
X296000Y745000D02*
G54D39*
D03*
X283000Y745000D02*
G54D39*
D03*
X270000Y745000D02*
G54D39*
D03*
X257000Y745000D02*
G54D39*
D03*
X244000Y745000D02*
G54D39*
D03*
X231000Y745000D02*
G54D39*
D03*
X218000Y745000D02*
G54D39*
D03*
X204000Y745000D02*
G54D39*
D03*
X296000Y655000D02*
G54D39*
D03*
X283000Y655000D02*
G54D39*
D03*
X270000Y655000D02*
G54D39*
D03*
X257000Y655000D02*
G54D39*
D03*
X244000Y655000D02*
G54D39*
D03*
X231000Y655000D02*
G54D39*
D03*
X218000Y655000D02*
G54D39*
D03*
X204000Y655000D02*
G54D39*
D03*
G54D60*
X169000Y670000D02*
X169000Y656000D01*
X169000Y642000D01*
X174000Y637000D01*
G54D52*
X204000Y745000D02*
X204000Y755000D01*
X207000Y758000D01*
X242000Y758000D01*
X245000Y761000D01*
X245000Y778000D01*
G54D60*
X218000Y655000D02*
X218000Y642000D01*
X223000Y637000D01*
G54D59*
X218000Y745000D02*
X218000Y723000D01*
X237000Y765000D02*
G54D46*
D03*
G54D59*
X237000Y765000D02*
X237000Y778000D01*
X218000Y723000D02*
G54D46*
D03*
G54D52*
X204000Y745000D02*
X204000Y733000D01*
X193000Y722000D01*
X193000Y678000D01*
X185000Y670000D01*
X180000Y670000D01*
G54D59*
X218000Y723000D02*
X198000Y703000D01*
X198000Y677000D01*
X189000Y668000D01*
X189000Y660000D01*
X186000Y657000D01*
X180000Y656000D01*
G54D60*
X36000Y680000D02*
X36000Y660000D01*
X42000Y660000D01*
X42000Y680000D01*
X42000Y697000D01*
X58000Y713000D01*
X96000Y713000D01*
X105000Y704000D01*
G54D52*
X121500Y710500D02*
X111500Y710500D01*
X105000Y704000D01*
G54D52*
X77000Y694000D02*
X70000Y694000D01*
X67548Y691547D01*
X61500Y691500D01*
G54D52*
X166500Y839500D02*
X166000Y843000D01*
X166000Y855000D01*
G54D60*
X313000Y811000D02*
X313000Y825000D01*
X306000Y832000D01*
X292000Y832000D01*
X338000Y870000D02*
G54D41*
D03*
X338900Y885000D02*
G54D62*
D03*
X339000Y854000D02*
G54D62*
D03*
X353000Y886000D02*
G54D43*
D03*
X353000Y853000D02*
G54D43*
D03*
X359000Y885000D02*
G54D44*
D03*
X359000Y854000D02*
G54D44*
D03*
X338000Y704000D02*
G54D41*
D03*
X340000Y718950D02*
G54D63*
D03*
X340000Y688000D02*
G54D63*
D03*
X353000Y720000D02*
G54D43*
D03*
X353000Y687000D02*
G54D43*
D03*
X359000Y719000D02*
G54D44*
D03*
X359000Y688000D02*
G54D44*
D03*
G54D60*
X340000Y688000D02*
X331000Y688000D01*
X325000Y694000D01*
X325000Y728000D01*
X354000Y757000D01*
X202000Y914000D02*
G54D46*
D03*
X316027Y916954D02*
G54D46*
D03*
X22000Y875000D02*
G54D46*
D03*
X154000Y835000D02*
G54D46*
D03*
X147000Y877000D02*
G54D46*
D03*
X159000Y644000D02*
G54D46*
D03*
X203000Y774000D02*
G54D46*
D03*
X49000Y962000D02*
G54D46*
D03*
X207000Y677000D02*
G54D46*
D03*
X205000Y865000D02*
G54D46*
D03*
X272000Y797000D02*
G54D46*
D03*
X34000Y699000D02*
G54D46*
D03*
X124000Y819000D02*
G54D46*
D03*
X326000Y675000D02*
G54D46*
D03*
X340000Y633000D02*
G54D46*
D03*
X61000Y607000D02*
G54D46*
D03*
X21000Y850000D02*
G54D46*
D03*
X21000Y835000D02*
G54D46*
D03*
X53000Y850000D02*
G54D46*
D03*
X21000Y783000D02*
G54D46*
D03*
X106000Y647000D02*
G54D46*
D03*
X53000Y783000D02*
G54D46*
D03*
X15000Y905000D02*
G54D46*
D03*
X21000Y817000D02*
G54D46*
D03*
X121000Y935000D02*
G54D46*
D03*
X30000Y970000D02*
G54D47*
D03*
X340000Y970000D02*
G54D47*
D03*
X340000Y600000D02*
G54D47*
D03*
X30000Y600000D02*
G54D47*
D03*
X124000Y832000D02*
G54D46*
D03*
G54D60*
X124000Y832000D02*
X119000Y838000D01*
X119000Y843000D01*
X144000Y854000D02*
G54D24*
D03*
X144000Y843000D02*
G54D24*
D03*
X210500Y884500D02*
G54D24*
D03*
X210500Y895500D02*
G54D24*
D03*
G54D52*
X196500Y895500D02*
X210500Y895500D01*
X119000Y843000D02*
G54D36*
D03*
X130000Y843000D02*
G54D36*
D03*
X119000Y859000D02*
G54D36*
D03*
X130000Y859000D02*
G54D36*
D03*
G54D52*
X130000Y859000D02*
X130000Y843000D01*
X339027Y939954D02*
G54D46*
D03*
X326000Y776000D02*
G54D36*
D03*
X315000Y776000D02*
G54D36*
D03*
X326000Y761000D02*
G54D36*
D03*
X315000Y760999D02*
G54D36*
D03*
G54D52*
X290000Y783000D02*
X295000Y783000D01*
X306000Y772000D01*
X306000Y766000D01*
X311000Y761000D01*
X315000Y760999D01*
G54D52*
X307000Y788000D02*
X307000Y779000D01*
X310000Y776000D01*
X315000Y776000D01*
G54D60*
X206000Y841000D02*
X219000Y841000D01*
X228000Y832000D01*
X292000Y832000D01*
X180000Y656000D02*
G54D36*
D03*
X169000Y656000D02*
G54D36*
D03*
X180000Y670000D02*
G54D36*
D03*
X169000Y670000D02*
G54D36*
D03*
G54D60*
X121500Y672500D02*
X121500Y643500D01*
X128000Y637000D01*
G54D60*
X184000Y914000D02*
X184000Y925000D01*
X192000Y933000D01*
G54D52*
X130000Y859000D02*
X135000Y864000D01*
X189000Y864000D01*
G54D52*
X144000Y854000D02*
X144000Y860000D01*
X148000Y864000D01*
X237000Y846000D02*
G54D46*
D03*
G54D52*
X229000Y863000D02*
X229000Y850000D01*
X233000Y846000D01*
X237000Y846000D01*
X189000Y864000D02*
G54D46*
D03*
G54D52*
X237000Y863000D02*
X237000Y875500D01*
X234000Y878500D01*
X222500Y878500D01*
X216500Y884500D01*
X210500Y884500D01*
G54D52*
X210500Y895500D02*
X216500Y895500D01*
X228000Y884000D01*
X243000Y884000D01*
G54D48*
X12670Y929000D02*
X12670Y937889D01*
X14892Y937889D01*
X15781Y937333D01*
X16226Y936222D01*
X16226Y930667D01*
X15781Y929556D01*
X14892Y929000D01*
X12670Y929000D01*
G54D48*
X21115Y933444D02*
X22448Y932333D01*
X22893Y931222D01*
X22893Y929000D01*
G54D48*
X19337Y929000D02*
X19337Y937889D01*
X21559Y937889D01*
X22448Y937333D01*
X22893Y936222D01*
X22893Y935111D01*
X22448Y934000D01*
X21559Y933444D01*
X19337Y933444D01*
G54D48*
X26004Y929000D02*
X26004Y937889D01*
X28226Y932333D01*
X30448Y937889D01*
X30448Y929000D01*
G54D48*
X36759Y937889D02*
X36759Y929000D01*
X38981Y934556D01*
X41203Y929000D01*
X41203Y937889D01*
G54D48*
X44314Y933444D02*
X45203Y934000D01*
X46270Y934000D01*
X46981Y932889D01*
X46981Y929000D01*
G54D48*
X46981Y930667D02*
X46536Y931778D01*
X45647Y932000D01*
X44758Y931778D01*
X44314Y930667D01*
X44492Y929556D01*
X45203Y929000D01*
X45647Y929000D01*
X45825Y929000D01*
X46536Y929556D01*
X46981Y930667D01*
G54D48*
X50981Y937889D02*
X50981Y929556D01*
X51425Y929000D01*
X51870Y929222D01*
G54D48*
X50092Y934000D02*
X51870Y934000D01*
G54D48*
X57203Y933667D02*
X56314Y934000D01*
X55425Y933667D01*
X54981Y932556D01*
X54981Y930333D01*
X55425Y929222D01*
X56314Y929000D01*
X57203Y929222D01*
G54D48*
X60314Y929000D02*
X60314Y937889D01*
G54D48*
X60314Y932556D02*
X60758Y933667D01*
X61647Y934000D01*
X62536Y933667D01*
X62981Y932556D01*
X62981Y929000D01*
G54D48*
X69292Y937889D02*
X71514Y929000D01*
X73736Y937889D01*
G54D48*
X80403Y929000D02*
X76847Y929000D01*
X76847Y929556D01*
X77291Y930667D01*
X79958Y934000D01*
X80403Y935111D01*
X80403Y936222D01*
X79958Y937333D01*
X79069Y937889D01*
X78180Y937889D01*
X77291Y937333D01*
X76847Y936222D01*
G54D48*
X88492Y933444D02*
X89825Y932333D01*
X90270Y931222D01*
X90270Y929000D01*
G54D48*
X86714Y929000D02*
X86714Y937889D01*
X88936Y937889D01*
X89825Y937333D01*
X90270Y936222D01*
X90270Y935111D01*
X89825Y934000D01*
X88936Y933444D01*
X86714Y933444D01*
G54D48*
X96048Y929556D02*
X95337Y929000D01*
X94448Y929000D01*
X93559Y929556D01*
X93381Y930667D01*
X93381Y932556D01*
X93825Y933667D01*
X94714Y934000D01*
X95603Y933667D01*
X96048Y932889D01*
X96048Y931778D01*
X93381Y931778D01*
G54D48*
X99159Y934000D02*
X100937Y929000D01*
X102715Y934000D01*
G54D48*
X106182Y929000D02*
X105826Y929000D01*
X105826Y929444D01*
X106182Y929444D01*
X106182Y929000D01*
X105826Y929000D01*
G54D48*
X112849Y937889D02*
X109293Y937889D01*
X109293Y934000D01*
X109737Y934000D01*
X110626Y934556D01*
X111515Y934556D01*
X112404Y934000D01*
X112849Y932889D01*
X112849Y930667D01*
X112404Y929556D01*
X111515Y929000D01*
X110626Y929000D01*
X109737Y929556D01*
X109293Y930667D01*
X21000Y800000D02*
G54D46*
D03*
G54D52*
X302500Y893500D02*
X302500Y910500D01*
X298000Y915000D01*
X288000Y915000D01*
X147000Y782000D02*
G54D46*
D03*
X170096Y700500D02*
G54D36*
D03*
X159096Y700500D02*
G54D36*
D03*
X170096Y686500D02*
G54D36*
D03*
X159096Y686500D02*
G54D36*
D03*
X149000Y714000D02*
G54D46*
D03*
X149000Y702000D02*
G54D46*
D03*
X149000Y690000D02*
G54D46*
D03*
G54D52*
X159096Y714500D02*
X149000Y714000D01*
G54D52*
X159096Y700500D02*
X150500Y700500D01*
X149000Y702000D01*
G54D52*
X159096Y686500D02*
X152500Y686500D01*
X149000Y690000D01*
G54D52*
X165000Y782000D02*
X147000Y782000D01*
X184000Y713000D02*
G54D46*
D03*
X184000Y700000D02*
G54D46*
D03*
X184000Y687000D02*
G54D46*
D03*
G54D52*
X170096Y686500D02*
X177500Y686500D01*
X178000Y687000D01*
X184000Y687000D01*
G54D52*
X170096Y714500D02*
X175500Y714500D01*
X177000Y713000D01*
X184000Y713000D01*
G54D52*
X170096Y700500D02*
X177500Y700500D01*
X178000Y700000D01*
X184000Y700000D01*
X288000Y863000D02*
G54D46*
D03*
X39000Y759000D02*
G54D46*
D03*
X14000Y710000D02*
G54D46*
D03*
X13000Y648000D02*
G54D46*
D03*
X303000Y608000D02*
G54D46*
D03*
X304000Y948000D02*
G54D46*
D03*
X60000Y671000D02*
G54D46*
D03*
X302000Y980000D02*
G54D38*
D03*
X68000Y980000D02*
G54D38*
D03*
G54D60*
X302000Y980000D02*
X303000Y980000D01*
X321000Y962000D01*
X321000Y933000D01*
M02*
