; Drill file
; Format: 2.4 (00.0000)
M48
INCH
T01C0.0079
T02C0.0236
T03C0.0787
%
G05
G90
T01
X002400Y023900
X004170Y025470
X003500Y026930
X002360Y026420
X001340Y027520
X000550Y027950
X001890Y028390
X001540Y029880
X002090Y030830
X003110Y030630
X003110Y029960
X004880Y031300
X004880Y031810
X004880Y032240
X004880Y032760
X006060Y032870
X007320Y032440
X007440Y034020
X008070Y034060
X009330Y033310
X009570Y034800
X010000Y034800
X010310Y034800
X010670Y034800
X011020Y034800
X011340Y033980
X011910Y033760
X012830Y033430
X013390Y032480
X012090Y031020
X011420Y030830
X010710Y031380
X010590Y030120
X010280Y030120
X009960Y030120
X009330Y030120
X007990Y030470
X008580Y028460
X007240Y028070
X007240Y027560
X007240Y027050
X008150Y026650
X006260Y025350
X005870Y027170
X005870Y027640
X005870Y028110
X005790Y030790
X002910Y032910
X002090Y033460
X000830Y033460
X000830Y032870
X000830Y032170
X000830Y031500
X000830Y030830
X000870Y034450
X000590Y035630
X001930Y037870
X004760Y036810
X005510Y035940
X005790Y034530
X007950Y035980
X010830Y033030
X012440Y036100
X013350Y037010
X011970Y037320
X013940Y029800
X013390Y028700
X012830Y026570
X013390Y024920
X011930Y023940
X000510Y025510
T02
X013900Y027050
X013900Y028350
X013900Y033580
X013900Y034880
T03
X001180Y023620
X013390Y023620
X013390Y038190
X001180Y038190
M30
