; Drill file
; Format: 2.4 (00.0000)
M48
INCH
T01C0.0118
T02C0.0236
T03C0.0787
%
G05
G90
T01
X002400Y023900
X000510Y025510
X002360Y026420
X003500Y026930
X004290Y025550
X006060Y025590
X005980Y026260
X005750Y027010
X005790Y027560
X005870Y028110
X007240Y028230
X007240Y027600
X007240Y026970
X008150Y026650
X008580Y028460
X009330Y030120
X009960Y030040
X010750Y029920
X011420Y030830
X012090Y031020
X010710Y031380
X010280Y031690
X010830Y033030
X011340Y033980
X011910Y033760
X012830Y033430
X013390Y032480
X013940Y029800
X013390Y028700
X012830Y026570
X013390Y024920
X011930Y023940
X007990Y030470
X007320Y032440
X006060Y032870
X004880Y032760
X004880Y032240
X004880Y031810
X004880Y031300
X005790Y030790
X003110Y030630
X003110Y029960
X002090Y030830
X001540Y029880
X000830Y030830
X000830Y031500
X000830Y032170
X000830Y032870
X000830Y033460
X000870Y034450
X000590Y035630
X001930Y037870
X004760Y036810
X005510Y035940
X005750Y035000
X007440Y034020
X008070Y034060
X009330Y033310
X009960Y034490
X009570Y034800
X010310Y034960
X010750Y034650
X011180Y034960
X012440Y036100
X013350Y037010
X011970Y037320
X007950Y035980
X002910Y032910
X002090Y033460
X001890Y028390
X001340Y027520
X000550Y027950
T02
X013900Y027050
X013900Y028350
X013900Y033580
X013900Y034880
T03
X001180Y023620
X013390Y023620
X013390Y038190
X001180Y038190
M30
