%FSLAX34Y34*%
%MOMM*%
%LNSOLDERMASK_TOP*%
G71*
G01*
%ADD10R, 2.30X0.60*%
%ADD11R, 2.10X2.50*%
%ADD12R, 2.40X8.00*%
%ADD13R, 0.70X2.20*%
%ADD14R, 2.20X0.70*%
%ADD15R, 1.60X0.70*%
%ADD16R, 0.80X0.60*%
%ADD17R, 2.90X2.60*%
%ADD18R, 0.60X2.00*%
%ADD19R, 0.90X1.40*%
%ADD20R, 1.00X0.90*%
%ADD21R, 2.00X0.90*%
%ADD22R, 1.30X0.80*%
%ADD23R, 0.80X1.30*%
%ADD24R, 0.90X1.00*%
%ADD25R, 2.90X4.50*%
%ADD26R, 1.50X2.00*%
%ADD27R, 3.70X5.00*%
%ADD28R, 2.20X2.20*%
%ADD29R, 0.90X2.00*%
%ADD30R, 1.30X1.60*%
%ADD31R, 1.20X0.90*%
%ADD32C, 1.60*%
%ADD33R, 0.70X1.40*%
%LPD*%
X54000Y830000D02*
G54D10*
D03*
X54000Y823000D02*
G54D10*
D03*
X54000Y816000D02*
G54D10*
D03*
X54000Y802000D02*
G54D10*
D03*
X54000Y809000D02*
G54D10*
D03*
X51000Y849000D02*
G54D11*
D03*
X52000Y784000D02*
G54D11*
D03*
X24000Y816000D02*
G54D12*
D03*
X221000Y863000D02*
G54D13*
D03*
X229000Y863000D02*
G54D13*
D03*
X237000Y863000D02*
G54D13*
D03*
X245000Y863000D02*
G54D13*
D03*
X253000Y863000D02*
G54D13*
D03*
X261000Y863000D02*
G54D13*
D03*
X269000Y863000D02*
G54D13*
D03*
X277000Y863000D02*
G54D13*
D03*
X221000Y778000D02*
G54D13*
D03*
X229000Y778000D02*
G54D13*
D03*
X237000Y778000D02*
G54D13*
D03*
X245000Y778000D02*
G54D13*
D03*
X253000Y778000D02*
G54D13*
D03*
X261000Y778000D02*
G54D13*
D03*
X269000Y778000D02*
G54D13*
D03*
X277000Y778000D02*
G54D13*
D03*
X292000Y848000D02*
G54D14*
D03*
X292000Y840000D02*
G54D14*
D03*
X292000Y832000D02*
G54D14*
D03*
X292000Y824000D02*
G54D14*
D03*
X292000Y816000D02*
G54D14*
D03*
X292000Y808000D02*
G54D14*
D03*
X292000Y800000D02*
G54D14*
D03*
X292000Y792000D02*
G54D14*
D03*
X206000Y849000D02*
G54D14*
D03*
X206000Y841000D02*
G54D14*
D03*
X206000Y833000D02*
G54D14*
D03*
X206000Y825000D02*
G54D14*
D03*
X206000Y817000D02*
G54D14*
D03*
X206000Y809000D02*
G54D14*
D03*
X206000Y801000D02*
G54D14*
D03*
X206000Y793000D02*
G54D14*
D03*
X333000Y797000D02*
G54D15*
D03*
X333000Y788000D02*
G54D15*
D03*
X333000Y779000D02*
G54D15*
D03*
X290500Y776500D02*
G54D16*
D03*
X290500Y769500D02*
G54D16*
D03*
X300500Y776500D02*
G54D16*
D03*
X300500Y769500D02*
G54D16*
D03*
X38000Y657000D02*
G54D17*
D03*
X82000Y657000D02*
G54D17*
D03*
X48000Y738000D02*
G54D18*
D03*
X42000Y738000D02*
G54D18*
D03*
X36000Y738000D02*
G54D18*
D03*
X30000Y738000D02*
G54D18*
D03*
X48000Y680000D02*
G54D18*
D03*
X42000Y680000D02*
G54D18*
D03*
X36000Y680000D02*
G54D18*
D03*
X30000Y680000D02*
G54D18*
D03*
X86000Y679000D02*
G54D19*
D03*
X96000Y679000D02*
G54D19*
D03*
X106000Y679000D02*
G54D19*
D03*
X86000Y707000D02*
G54D19*
D03*
X96000Y707000D02*
G54D19*
D03*
X106000Y707000D02*
G54D19*
D03*
X118500Y663500D02*
G54D20*
D03*
X118500Y652500D02*
G54D20*
D03*
X72500Y711500D02*
G54D20*
D03*
X72500Y700500D02*
G54D20*
D03*
X106000Y821000D02*
G54D21*
D03*
X106000Y808000D02*
G54D21*
D03*
X106000Y795000D02*
G54D21*
D03*
X106000Y782000D02*
G54D21*
D03*
X106000Y769000D02*
G54D21*
D03*
X106000Y756000D02*
G54D21*
D03*
X106000Y743000D02*
G54D21*
D03*
X106000Y729000D02*
G54D21*
D03*
X165000Y821000D02*
G54D21*
D03*
X165000Y808000D02*
G54D21*
D03*
X165000Y795000D02*
G54D21*
D03*
X165000Y782000D02*
G54D21*
D03*
X165000Y769000D02*
G54D21*
D03*
X165000Y756000D02*
G54D21*
D03*
X165000Y743000D02*
G54D21*
D03*
X165000Y729000D02*
G54D21*
D03*
X74000Y743000D02*
G54D15*
D03*
X74000Y734000D02*
G54D15*
D03*
X74000Y725000D02*
G54D15*
D03*
X185500Y742500D02*
G54D22*
D03*
X185500Y727500D02*
G54D22*
D03*
X173000Y707000D02*
G54D23*
D03*
X188000Y707000D02*
G54D23*
D03*
X184595Y782000D02*
G54D20*
D03*
X184595Y771000D02*
G54D20*
D03*
X192000Y890000D02*
G54D24*
D03*
X181000Y890000D02*
G54D24*
D03*
X102000Y913000D02*
G54D21*
D03*
X102000Y900000D02*
G54D21*
D03*
X102000Y887000D02*
G54D21*
D03*
X102000Y874000D02*
G54D21*
D03*
X163000Y913000D02*
G54D21*
D03*
X163000Y900000D02*
G54D21*
D03*
X163000Y887000D02*
G54D21*
D03*
X163000Y874000D02*
G54D21*
D03*
X133000Y894000D02*
G54D25*
D03*
X188000Y914000D02*
G54D26*
D03*
X206000Y914000D02*
G54D26*
D03*
X55000Y911000D02*
G54D24*
D03*
X44000Y911000D02*
G54D24*
D03*
X55000Y899000D02*
G54D24*
D03*
X44000Y899000D02*
G54D24*
D03*
X31500Y910500D02*
G54D20*
D03*
X31500Y899500D02*
G54D20*
D03*
X118500Y709500D02*
G54D20*
D03*
X118500Y698500D02*
G54D20*
D03*
X53000Y969000D02*
G54D27*
D03*
X317000Y969000D02*
G54D27*
D03*
X317000Y601000D02*
G54D27*
D03*
X53000Y601000D02*
G54D27*
D03*
X185500Y817500D02*
G54D20*
D03*
X185500Y806500D02*
G54D20*
D03*
X92437Y846158D02*
G54D20*
D03*
X92437Y835158D02*
G54D20*
D03*
X102938Y859658D02*
G54D24*
D03*
X91938Y859658D02*
G54D24*
D03*
X243000Y907000D02*
G54D24*
D03*
X232000Y907000D02*
G54D24*
D03*
X187000Y860000D02*
G54D20*
D03*
X187000Y871000D02*
G54D20*
D03*
X199000Y860000D02*
G54D24*
D03*
X210000Y860000D02*
G54D24*
D03*
X299000Y864000D02*
G54D24*
D03*
X288000Y864000D02*
G54D24*
D03*
X296000Y881000D02*
G54D28*
D03*
X296000Y918000D02*
G54D28*
D03*
X296000Y745000D02*
G54D29*
D03*
X283000Y745000D02*
G54D29*
D03*
X270000Y745000D02*
G54D29*
D03*
X257000Y745000D02*
G54D29*
D03*
X244000Y745000D02*
G54D29*
D03*
X231000Y745000D02*
G54D29*
D03*
X218000Y745000D02*
G54D29*
D03*
X204000Y745000D02*
G54D29*
D03*
X296000Y655000D02*
G54D29*
D03*
X283000Y655000D02*
G54D29*
D03*
X270000Y655000D02*
G54D29*
D03*
X257000Y655000D02*
G54D29*
D03*
X244000Y655000D02*
G54D29*
D03*
X231000Y655000D02*
G54D29*
D03*
X218000Y655000D02*
G54D29*
D03*
X204000Y655000D02*
G54D29*
D03*
X168000Y679000D02*
G54D26*
D03*
X186000Y679000D02*
G54D26*
D03*
X168000Y657000D02*
G54D26*
D03*
X186000Y657000D02*
G54D26*
D03*
X338000Y870000D02*
G54D30*
D03*
X340000Y883000D02*
G54D31*
D03*
X340000Y857000D02*
G54D31*
D03*
X353000Y886000D02*
G54D32*
D03*
X353000Y853000D02*
G54D32*
D03*
X359000Y885000D02*
G54D33*
D03*
X359000Y854000D02*
G54D33*
D03*
X338000Y704000D02*
G54D30*
D03*
X340000Y717000D02*
G54D31*
D03*
X340000Y691000D02*
G54D31*
D03*
X353000Y720000D02*
G54D32*
D03*
X353000Y687000D02*
G54D32*
D03*
X359000Y719000D02*
G54D33*
D03*
X359000Y688000D02*
G54D33*
D03*
G36*
X14500Y976432D02*
X23568Y985500D01*
X36432Y985500D01*
X45500Y976432D01*
X45500Y963568D01*
X36432Y954500D01*
X23568Y954500D01*
X14500Y963568D01*
X14500Y976432D01*
G37*
G36*
X324500Y976432D02*
X333568Y985500D01*
X346432Y985500D01*
X355500Y976432D01*
X355500Y963568D01*
X346432Y954500D01*
X333568Y954500D01*
X324500Y963568D01*
X324500Y976432D01*
G37*
G36*
X324500Y606432D02*
X333568Y615500D01*
X346432Y615500D01*
X355500Y606432D01*
X355500Y593568D01*
X346432Y584500D01*
X333568Y584500D01*
X324500Y593568D01*
X324500Y606432D01*
G37*
G36*
X14500Y606432D02*
X23568Y615500D01*
X36432Y615500D01*
X45500Y606432D01*
X45500Y593568D01*
X36432Y584500D01*
X23568Y584500D01*
X14500Y593568D01*
X14500Y606432D01*
G37*
X209000Y882000D02*
G54D20*
D03*
X209000Y893000D02*
G54D20*
D03*
G36*
X227500Y900000D02*
X236500Y900000D01*
X236500Y890000D01*
X227500Y890000D01*
X227500Y900000D01*
G37*
X243000Y895000D02*
G54D24*
D03*
X162000Y840000D02*
G54D24*
D03*
X173000Y840000D02*
G54D24*
D03*
X162000Y853000D02*
G54D24*
D03*
X173000Y853000D02*
G54D24*
D03*
M02*
