%FSLAX34Y34*%
%MOMM*%
%LNCOPPER_TOP*%
G71*
G01*
%ADD10R, 2.900X1.200*%
%ADD11R, 2.100X0.400*%
%ADD12R, 1.900X2.300*%
%ADD13R, 2.200X7.800*%
%ADD14R, 1.300X2.800*%
%ADD15R, 2.800X1.300*%
%ADD16R, 2.200X1.300*%
%ADD17R, 1.400X0.500*%
%ADD18R, 3.500X2.800*%
%ADD19R, 1.200X2.600*%
%ADD20R, 2.000X1.500*%
%ADD21R, 1.600X1.500*%
%ADD22R, 1.200X1.100*%
%ADD23R, 1.800X0.700*%
%ADD24R, 2.600X1.500*%
%ADD25C, 1.000*%
%ADD26R, 1.500X1.600*%
%ADD27R, 2.100X2.600*%
%ADD28R, 1.900X2.400*%
%ADD29C, 1.300*%
%ADD30C, 1.100*%
%ADD31R, 2.800X2.800*%
%ADD32R, 1.100X2.200*%
%ADD33R, 1.500X2.600*%
%ADD34R, 1.100X1.400*%
%ADD35R, 2.100X1.800*%
%ADD36C, 0.800*%
%ADD37R, 0.500X1.200*%
%ADD38R, 2.300X1.800*%
%ADD39C, 0.500*%
%ADD40C, 2.500*%
%ADD41C, 0.159*%
%ADD42R, 1.100X1.200*%
%ADD43C, 0.759*%
%ADD44C, 0.111*%
%ADD45C, 0.095*%
%ADD46C, 0.044*%
%ADD47C, 0.200*%
%ADD48C, 0.127*%
%ADD49C, 0.143*%
%ADD50C, 0.078*%
%ADD51R, 2.000X2.000*%
%ADD52C, 0.297*%
%ADD53C, 0.305*%
%ADD54C, 0.197*%
%ADD55C, 0.233*%
%ADD56C, 0.303*%
%ADD57C, 0.433*%
%ADD58C, 0.315*%
%ADD59C, 0.345*%
%ADD60C, 0.310*%
%ADD61C, 0.667*%
%ADD62C, 0.292*%
%ADD63C, 0.308*%
%ADD64R, 0.500X2.000*%
%ADD65R, 2.000X0.500*%
%ADD66R, 2.700X2.000*%
%ADD67R, 0.400X1.800*%
%ADD68R, 1.200X0.700*%
%ADD69R, 0.800X0.700*%
%ADD70R, 0.700X0.800*%
%ADD71R, 1.300X1.800*%
%ADD72C, 0.300*%
%ADD73R, 0.700X1.800*%
%ADD74R, 1.300X1.000*%
%ADD75R, 1.500X1.000*%
%LPD*%
G36*
X0Y1000000D02*
X372000Y1000000D01*
X372000Y565000D01*
X0Y565000D01*
X0Y1000000D01*
G37*
%LPC*%
X54000Y830000D02*
G54D10*
D03*
X54000Y823000D02*
G54D10*
D03*
X54000Y816000D02*
G54D10*
D03*
X54000Y802000D02*
G54D11*
D03*
X54000Y809000D02*
G54D10*
D03*
X51000Y849000D02*
G54D12*
D03*
X52000Y784000D02*
G54D12*
D03*
X24000Y816000D02*
G54D13*
D03*
X221000Y863000D02*
G54D14*
D03*
X229000Y863000D02*
G54D14*
D03*
X237000Y863000D02*
G54D14*
D03*
X245000Y863000D02*
G54D14*
D03*
X253000Y863000D02*
G54D14*
D03*
X261000Y863000D02*
G54D14*
D03*
X269000Y863000D02*
G54D14*
D03*
X277000Y863000D02*
G54D14*
D03*
X221000Y778000D02*
G54D14*
D03*
X229000Y778000D02*
G54D14*
D03*
X237000Y778000D02*
G54D14*
D03*
X245000Y778000D02*
G54D14*
D03*
X253000Y778000D02*
G54D14*
D03*
X261000Y778000D02*
G54D14*
D03*
X269000Y778000D02*
G54D14*
D03*
X277000Y778000D02*
G54D14*
D03*
X292000Y848000D02*
G54D15*
D03*
X292000Y840000D02*
G54D15*
D03*
X292000Y832000D02*
G54D15*
D03*
X292000Y824000D02*
G54D15*
D03*
X292000Y816000D02*
G54D15*
D03*
X292000Y808000D02*
G54D15*
D03*
X292000Y800000D02*
G54D15*
D03*
X292000Y792000D02*
G54D15*
D03*
X206000Y849000D02*
G54D15*
D03*
X206000Y841000D02*
G54D15*
D03*
X206000Y833000D02*
G54D15*
D03*
X206000Y825000D02*
G54D15*
D03*
X206000Y817000D02*
G54D15*
D03*
X206000Y809000D02*
G54D15*
D03*
X206000Y801000D02*
G54D15*
D03*
X206000Y793000D02*
G54D15*
D03*
X333000Y813000D02*
G54D16*
D03*
X333000Y804000D02*
G54D17*
D03*
X333000Y795000D02*
G54D16*
D03*
X38000Y654000D02*
G54D18*
D03*
X82000Y654000D02*
G54D18*
D03*
X48000Y738000D02*
G54D19*
D03*
X42000Y738000D02*
G54D19*
D03*
X36000Y738000D02*
G54D19*
D03*
X30000Y738000D02*
G54D19*
D03*
X48000Y680000D02*
G54D19*
D03*
X42000Y680000D02*
G54D19*
D03*
X36000Y680000D02*
G54D19*
D03*
X30000Y680000D02*
G54D19*
D03*
X77000Y704000D02*
G54D20*
D03*
X77000Y694000D02*
G54D20*
D03*
X77000Y684000D02*
G54D20*
D03*
X105000Y704000D02*
G54D20*
D03*
X105000Y694000D02*
G54D20*
D03*
X105000Y684000D02*
G54D20*
D03*
X61500Y691500D02*
G54D21*
D03*
X61500Y680500D02*
G54D22*
D03*
X121500Y699500D02*
G54D21*
D03*
X121500Y710500D02*
G54D21*
D03*
X106000Y821000D02*
G54D23*
D03*
X106000Y808000D02*
G54D24*
D03*
X106000Y795000D02*
G54D24*
D03*
X106000Y782000D02*
G54D24*
D03*
X106000Y769000D02*
G54D24*
D03*
X106000Y756000D02*
G54D24*
D03*
X106000Y743000D02*
G54D24*
D03*
X106000Y729000D02*
G54D24*
D03*
X165000Y821000D02*
G54D24*
D03*
X165000Y808000D02*
G54D24*
D03*
X165000Y795000D02*
G54D24*
D03*
X165000Y782000D02*
G54D24*
D03*
X165000Y769000D02*
G54D24*
D03*
X165000Y756000D02*
G54D24*
D03*
X165000Y743000D02*
G54D24*
D03*
X165000Y729000D02*
G54D24*
D03*
G54D25*
X106000Y808000D02*
X124000Y808000D01*
G54D25*
X106000Y795000D02*
X124000Y795000D01*
X74000Y743000D02*
G54D16*
D03*
X74000Y734000D02*
G54D17*
D03*
X74000Y725000D02*
G54D16*
D03*
X170096Y714500D02*
G54D26*
D03*
X159096Y714500D02*
G54D26*
D03*
X181500Y875900D02*
G54D21*
D03*
X181500Y886900D02*
G54D21*
D03*
X102000Y913000D02*
G54D24*
D03*
X102000Y900000D02*
G54D24*
D03*
X102000Y887000D02*
G54D24*
D03*
X102000Y874000D02*
G54D24*
D03*
X163000Y913000D02*
G54D24*
D03*
X163000Y900000D02*
G54D23*
D03*
X163000Y887000D02*
G54D24*
D03*
X163000Y874000D02*
G54D23*
D03*
X184000Y914000D02*
G54D27*
D03*
X202000Y914000D02*
G54D28*
D03*
X45000Y916000D02*
G54D26*
D03*
X34000Y916000D02*
G54D26*
D03*
X45000Y900000D02*
G54D26*
D03*
X34000Y900000D02*
G54D26*
D03*
X121500Y683500D02*
G54D21*
D03*
X121500Y672500D02*
G54D21*
D03*
X243000Y884000D02*
G54D29*
D03*
X253000Y876000D02*
G54D29*
D03*
X262000Y888000D02*
G54D29*
D03*
X273000Y880000D02*
G54D29*
D03*
X284000Y888000D02*
G54D29*
D03*
G54D25*
X284000Y888000D02*
X284000Y876000D01*
X280000Y872000D01*
X277000Y863000D01*
G54D25*
X273000Y880000D02*
X269000Y876000D01*
X269000Y863000D01*
G54D25*
X262000Y888000D02*
X262000Y877000D01*
X261000Y876000D01*
X261000Y863000D01*
G54D25*
X253000Y876000D02*
X253000Y866000D01*
X326000Y849000D02*
G54D29*
D03*
X340000Y825000D02*
G54D29*
D03*
X340000Y729000D02*
G54D29*
D03*
X354000Y757000D02*
G54D29*
D03*
X290000Y783000D02*
G54D29*
D03*
X307000Y788000D02*
G54D29*
D03*
G54D25*
X333000Y813000D02*
X333000Y817000D01*
X327000Y823000D01*
X327000Y835000D01*
X314000Y848000D01*
X292000Y848000D01*
G54D25*
X333000Y795000D02*
X324000Y795000D01*
X320000Y799000D01*
X320000Y833000D01*
X313000Y840000D01*
X292000Y840000D01*
G54D30*
X338900Y885000D02*
X331000Y885000D01*
X326000Y880000D01*
X326000Y849000D01*
G54D25*
X339000Y854000D02*
X339000Y848000D01*
X333000Y842000D01*
X333000Y832000D01*
X340000Y825000D01*
G54D25*
X340000Y729000D02*
X340000Y717000D01*
G54D30*
X292000Y816000D02*
X308000Y816000D01*
X313000Y811000D01*
X313000Y792000D01*
X320000Y785000D01*
X337000Y785000D01*
X348000Y774000D01*
X348000Y763000D01*
X354000Y757000D01*
G54D25*
X269000Y778000D02*
X269000Y764000D01*
X273000Y760000D01*
G54D25*
X261000Y778000D02*
X261000Y805000D01*
X261000Y805000D02*
G54D29*
D03*
X273000Y760000D02*
G54D29*
D03*
X124000Y808000D02*
G54D29*
D03*
X124000Y795000D02*
G54D29*
D03*
G54D25*
X121500Y699500D02*
X116000Y694000D01*
X105000Y694000D01*
X115500Y693500D01*
X121000Y688000D01*
X121000Y685000D01*
X121500Y684500D01*
G54D25*
X48000Y675000D02*
X48000Y694000D01*
X58000Y704000D01*
X77000Y704000D01*
X89000Y684000D02*
G54D29*
D03*
X48000Y721000D02*
G54D29*
D03*
G54D25*
X48000Y738000D02*
X48000Y721000D01*
G54D25*
X89000Y684000D02*
X75000Y684000D01*
G54D25*
X74000Y743000D02*
X106000Y743000D01*
G54D25*
X74000Y725000D02*
X86000Y725000D01*
X90000Y729000D01*
X106000Y729000D01*
G54D25*
X54000Y816000D02*
X69000Y816000D01*
X73000Y812000D01*
X73000Y774000D01*
X78000Y769000D01*
X106000Y769000D01*
G54D25*
X54000Y823000D02*
X72000Y823000D01*
X79000Y816000D01*
X79000Y778000D01*
G54D25*
X106000Y756000D02*
X84000Y756000D01*
X79000Y761000D01*
X79000Y778000D02*
G54D29*
D03*
X79000Y761000D02*
G54D29*
D03*
G54D25*
X34000Y916000D02*
X34000Y900000D01*
G54D25*
X45000Y916000D02*
X59000Y916000D01*
X75000Y900000D01*
X102000Y900000D01*
G54D30*
X45000Y900000D02*
X57000Y900000D01*
X69000Y888000D01*
X69000Y879000D01*
X74000Y874000D01*
X102000Y874000D01*
G54D30*
X54000Y830000D02*
X68000Y830000D01*
X74000Y836000D01*
X74000Y874000D01*
G54D30*
X165000Y821000D02*
X154000Y821000D01*
X143000Y832000D01*
X124000Y832000D01*
X74000Y836000D02*
G54D29*
D03*
G54D30*
X82000Y654000D02*
X82000Y644000D01*
X89000Y637000D01*
X306000Y637000D01*
X340000Y671000D01*
X340000Y688000D01*
G54D30*
X338900Y885000D02*
X339000Y915000D01*
X321000Y933000D01*
X133000Y933000D01*
X113000Y913000D01*
X102000Y913000D01*
X185500Y814500D02*
G54D21*
D03*
X185500Y803500D02*
G54D21*
D03*
X186000Y824000D02*
G54D29*
D03*
G54D30*
X186000Y824000D02*
X186000Y815000D01*
X185500Y814500D01*
G54D25*
X253000Y778000D02*
X253000Y763000D01*
X253000Y763000D02*
G54D29*
D03*
X140000Y913000D02*
G54D29*
D03*
G54D25*
X140000Y913000D02*
X163000Y913000D01*
X101938Y839658D02*
G54D26*
D03*
X90938Y839658D02*
G54D26*
D03*
G54D25*
X106000Y782000D02*
X92000Y782000D01*
X89000Y785000D01*
X89000Y826000D01*
X91000Y828000D01*
X90938Y839658D01*
X101938Y859658D02*
G54D26*
D03*
X90938Y859658D02*
G54D26*
D03*
G54D30*
X90938Y859658D02*
X74342Y859658D01*
X74000Y860000D01*
X196500Y895500D02*
G54D21*
D03*
X196500Y884500D02*
G54D21*
D03*
X166500Y839500D02*
G54D26*
D03*
X177500Y839500D02*
G54D26*
D03*
X166000Y855000D02*
G54D26*
D03*
X177000Y855000D02*
G54D26*
D03*
G54D25*
X163000Y887000D02*
X181500Y886900D01*
G54D25*
X177000Y855000D02*
X184000Y855000D01*
X190000Y849000D01*
X210000Y849000D01*
X302500Y882500D02*
G54D21*
D03*
X302500Y893500D02*
G54D21*
D03*
G54D25*
X221000Y863000D02*
X221000Y849000D01*
X231000Y839000D01*
X275000Y839000D01*
G54D25*
X307000Y788000D02*
X303000Y792000D01*
X295000Y792000D01*
G54D25*
X290000Y783000D02*
X277000Y783000D01*
G54D30*
X206000Y793000D02*
X189000Y793000D01*
X185000Y797000D01*
X185000Y803000D01*
X185500Y803500D01*
X288000Y915000D02*
G54D31*
D03*
X231000Y915000D02*
G54D31*
D03*
X302500Y857500D02*
G54D29*
D03*
G54D25*
X302500Y857500D02*
X302500Y870500D01*
X302500Y882500D01*
X275000Y839000D02*
G54D29*
D03*
X296000Y745000D02*
G54D32*
D03*
X283000Y745000D02*
G54D32*
D03*
X270000Y745000D02*
G54D32*
D03*
X257000Y745000D02*
G54D32*
D03*
X244000Y745000D02*
G54D32*
D03*
X231000Y745000D02*
G54D33*
D03*
X218000Y745000D02*
G54D33*
D03*
X204000Y745000D02*
G54D33*
D03*
X296000Y655000D02*
G54D32*
D03*
X283000Y655000D02*
G54D32*
D03*
X270000Y655000D02*
G54D32*
D03*
X257000Y655000D02*
G54D32*
D03*
X244000Y655000D02*
G54D33*
D03*
X231000Y655000D02*
G54D33*
D03*
X218000Y655000D02*
G54D33*
D03*
X204000Y655000D02*
G54D33*
D03*
G54D30*
X169000Y670000D02*
X169000Y656000D01*
X169000Y642000D01*
X174000Y637000D01*
G54D25*
X204000Y745000D02*
X204000Y755000D01*
X207000Y758000D01*
X242000Y758000D01*
X245000Y761000D01*
X245000Y778000D01*
G54D30*
X218000Y655000D02*
X218000Y642000D01*
X223000Y637000D01*
G54D25*
X218000Y745000D02*
X218000Y723000D01*
X237000Y765000D02*
G54D29*
D03*
G54D25*
X237000Y765000D02*
X237000Y778000D01*
X218000Y723000D02*
G54D29*
D03*
G54D25*
X204000Y745000D02*
X204000Y733000D01*
X193000Y722000D01*
X193000Y679000D01*
X184000Y670000D01*
X180000Y670000D01*
G54D25*
X218000Y723000D02*
X199000Y704000D01*
X199000Y675000D01*
X189000Y665000D01*
X189000Y660000D01*
X185000Y656000D01*
X180000Y656000D01*
G54D30*
X36000Y680000D02*
X36000Y660000D01*
X42000Y660000D01*
X42000Y680000D01*
X42000Y697000D01*
X58000Y713000D01*
X96000Y713000D01*
X105000Y704000D01*
G54D25*
X121500Y710500D02*
X111500Y710500D01*
X105000Y704000D01*
G54D25*
X77000Y694000D02*
X70000Y694000D01*
X67548Y691547D01*
X61500Y691500D01*
G54D25*
X166500Y839500D02*
X166000Y843000D01*
X166000Y855000D01*
G54D30*
X313000Y811000D02*
X313000Y825000D01*
X306000Y832000D01*
X292000Y832000D01*
X338000Y870000D02*
G54D34*
D03*
X338900Y885000D02*
G54D35*
D03*
X339000Y854000D02*
G54D35*
D03*
X353000Y886000D02*
G54D36*
D03*
X353000Y853000D02*
G54D36*
D03*
X359000Y885000D02*
G54D37*
D03*
X359000Y854000D02*
G54D37*
D03*
X338000Y704000D02*
G54D34*
D03*
X340000Y718950D02*
G54D38*
D03*
X340000Y688000D02*
G54D38*
D03*
X353000Y720000D02*
G54D36*
D03*
X353000Y687000D02*
G54D36*
D03*
X359000Y719000D02*
G54D37*
D03*
X359000Y688000D02*
G54D37*
D03*
G54D30*
X340000Y688000D02*
X331000Y688000D01*
X325000Y694000D01*
X325000Y728000D01*
X354000Y757000D01*
X202000Y914000D02*
G54D39*
D03*
X316027Y916954D02*
G54D39*
D03*
X22000Y875000D02*
G54D39*
D03*
X154000Y835000D02*
G54D39*
D03*
X147000Y877000D02*
G54D39*
D03*
X154000Y650000D02*
G54D39*
D03*
X203000Y774000D02*
G54D39*
D03*
X49000Y962000D02*
G54D39*
D03*
X207000Y677000D02*
G54D39*
D03*
X205000Y865000D02*
G54D39*
D03*
X272000Y797000D02*
G54D39*
D03*
X34000Y699000D02*
G54D39*
D03*
X124000Y819000D02*
G54D39*
D03*
X326000Y675000D02*
G54D39*
D03*
X340000Y633000D02*
G54D39*
D03*
X61000Y607000D02*
G54D39*
D03*
X21000Y850000D02*
G54D39*
D03*
X21000Y835000D02*
G54D39*
D03*
X53000Y850000D02*
G54D39*
D03*
X21000Y783000D02*
G54D39*
D03*
X109000Y649000D02*
G54D39*
D03*
X53000Y783000D02*
G54D39*
D03*
X15000Y905000D02*
G54D39*
D03*
X21000Y817000D02*
G54D39*
D03*
X121000Y935000D02*
G54D39*
D03*
X30000Y970000D02*
G54D40*
D03*
X340000Y970000D02*
G54D40*
D03*
X340000Y600000D02*
G54D40*
D03*
X30000Y600000D02*
G54D40*
D03*
X124000Y832000D02*
G54D29*
D03*
G54D30*
X124000Y832000D02*
X119000Y838000D01*
X119000Y843000D01*
X144000Y854000D02*
G54D21*
D03*
X144000Y843000D02*
G54D21*
D03*
X210500Y884500D02*
G54D21*
D03*
X210500Y895500D02*
G54D21*
D03*
G54D25*
X196500Y895500D02*
X210500Y895500D01*
X119000Y843000D02*
G54D26*
D03*
X130000Y843000D02*
G54D26*
D03*
X119000Y859000D02*
G54D26*
D03*
X130000Y859000D02*
G54D26*
D03*
G54D25*
X130000Y859000D02*
X130000Y843000D01*
G54D41*
X233782Y693444D02*
X233782Y702333D01*
X236005Y702333D01*
X236894Y701778D01*
X237338Y700667D01*
X237338Y695111D01*
X236894Y694000D01*
X236005Y693444D01*
X233782Y693444D01*
G54D41*
X240450Y695111D02*
X240894Y694000D01*
X241783Y693444D01*
X242672Y693444D01*
X243561Y694000D01*
X244005Y695111D01*
X244005Y696222D01*
X243561Y697333D01*
X242672Y697889D01*
X241783Y697889D01*
X240894Y698444D01*
X240450Y699556D01*
X240450Y700667D01*
X240894Y701778D01*
X241783Y702333D01*
X242672Y702333D01*
X243561Y701778D01*
X244005Y700667D01*
G54D41*
X247116Y700667D02*
X247561Y701778D01*
X248450Y702333D01*
X249339Y702333D01*
X250228Y701778D01*
X250672Y700667D01*
X250672Y699556D01*
X250228Y698444D01*
X249339Y697889D01*
X250228Y697333D01*
X250672Y696222D01*
X250672Y695111D01*
X250228Y694000D01*
X249339Y693444D01*
X248450Y693444D01*
X247561Y694000D01*
X247116Y695111D01*
G54D41*
X257339Y693444D02*
X253784Y693444D01*
X253784Y694000D01*
X254228Y695111D01*
X256895Y698444D01*
X257339Y699556D01*
X257339Y700667D01*
X256895Y701778D01*
X256006Y702333D01*
X255117Y702333D01*
X254228Y701778D01*
X253784Y700667D01*
G54D41*
X260450Y700667D02*
X260895Y701778D01*
X261784Y702333D01*
X262673Y702333D01*
X263562Y701778D01*
X264006Y700667D01*
X264006Y699556D01*
X263562Y698444D01*
X262673Y697889D01*
X263562Y697333D01*
X264006Y696222D01*
X264006Y695111D01*
X263562Y694000D01*
X262673Y693444D01*
X261784Y693444D01*
X260895Y694000D01*
X260450Y695111D01*
G54D41*
X267118Y699000D02*
X269340Y702333D01*
X269340Y693444D01*
X339027Y939954D02*
G54D39*
D03*
X326000Y776000D02*
G54D42*
D03*
X315000Y776000D02*
G54D26*
D03*
X326000Y761000D02*
G54D42*
D03*
X315000Y760999D02*
G54D26*
D03*
G54D25*
X290000Y783000D02*
X295000Y783000D01*
X306000Y772000D01*
X306000Y766000D01*
X311000Y761000D01*
X315000Y760999D01*
G54D25*
X307000Y788000D02*
X307000Y779000D01*
X310000Y776000D01*
X315000Y776000D01*
G54D30*
X206000Y841000D02*
X219000Y841000D01*
X228000Y832000D01*
X292000Y832000D01*
X180000Y656000D02*
G54D26*
D03*
X169000Y656000D02*
G54D26*
D03*
X180000Y670000D02*
G54D26*
D03*
X169000Y670000D02*
G54D26*
D03*
G54D30*
X121500Y672500D02*
X121500Y643500D01*
X128000Y637000D01*
G54D30*
X184000Y914000D02*
X184000Y925000D01*
X192000Y933000D01*
G54D25*
X130000Y859000D02*
X135000Y864000D01*
X189000Y864000D01*
G54D25*
X144000Y854000D02*
X144000Y860000D01*
X148000Y864000D01*
X237000Y846000D02*
G54D29*
D03*
G54D25*
X229000Y863000D02*
X229000Y850000D01*
X233000Y846000D01*
X237000Y846000D01*
X189000Y864000D02*
G54D29*
D03*
G54D25*
X237000Y863000D02*
X237000Y875500D01*
X234000Y878500D01*
X222500Y878500D01*
X216500Y884500D01*
X210500Y884500D01*
G54D25*
X210500Y895500D02*
X216500Y895500D01*
X228000Y884000D01*
X243000Y884000D01*
G54D43*
X12670Y929000D02*
X12670Y937889D01*
X14892Y937889D01*
X15781Y937333D01*
X16226Y936222D01*
X16226Y930667D01*
X15781Y929556D01*
X14892Y929000D01*
X12670Y929000D01*
G54D43*
X21115Y933444D02*
X22448Y932333D01*
X22893Y931222D01*
X22893Y929000D01*
G54D43*
X19337Y929000D02*
X19337Y937889D01*
X21559Y937889D01*
X22448Y937333D01*
X22893Y936222D01*
X22893Y935111D01*
X22448Y934000D01*
X21559Y933444D01*
X19337Y933444D01*
G54D43*
X26004Y929000D02*
X26004Y937889D01*
X28226Y932333D01*
X30448Y937889D01*
X30448Y929000D01*
G54D43*
X36759Y937889D02*
X36759Y929000D01*
X38981Y934556D01*
X41203Y929000D01*
X41203Y937889D01*
G54D43*
X44314Y933444D02*
X45203Y934000D01*
X46270Y934000D01*
X46981Y932889D01*
X46981Y929000D01*
G54D43*
X46981Y930667D02*
X46536Y931778D01*
X45647Y932000D01*
X44758Y931778D01*
X44314Y930667D01*
X44492Y929556D01*
X45203Y929000D01*
X45647Y929000D01*
X45825Y929000D01*
X46536Y929556D01*
X46981Y930667D01*
G54D43*
X50981Y937889D02*
X50981Y929556D01*
X51425Y929000D01*
X51870Y929222D01*
G54D43*
X50092Y934000D02*
X51870Y934000D01*
G54D43*
X57203Y933667D02*
X56314Y934000D01*
X55425Y933667D01*
X54981Y932556D01*
X54981Y930333D01*
X55425Y929222D01*
X56314Y929000D01*
X57203Y929222D01*
G54D43*
X60314Y929000D02*
X60314Y937889D01*
G54D43*
X60314Y932556D02*
X60758Y933667D01*
X61647Y934000D01*
X62536Y933667D01*
X62981Y932556D01*
X62981Y929000D01*
G54D43*
X69292Y937889D02*
X71514Y929000D01*
X73736Y937889D01*
G54D43*
X80403Y929000D02*
X76847Y929000D01*
X76847Y929556D01*
X77291Y930667D01*
X79958Y934000D01*
X80403Y935111D01*
X80403Y936222D01*
X79958Y937333D01*
X79069Y937889D01*
X78180Y937889D01*
X77291Y937333D01*
X76847Y936222D01*
G54D43*
X88492Y933444D02*
X89825Y932333D01*
X90270Y931222D01*
X90270Y929000D01*
G54D43*
X86714Y929000D02*
X86714Y937889D01*
X88936Y937889D01*
X89825Y937333D01*
X90270Y936222D01*
X90270Y935111D01*
X89825Y934000D01*
X88936Y933444D01*
X86714Y933444D01*
G54D43*
X96048Y929556D02*
X95337Y929000D01*
X94448Y929000D01*
X93559Y929556D01*
X93381Y930667D01*
X93381Y932556D01*
X93825Y933667D01*
X94714Y934000D01*
X95603Y933667D01*
X96048Y932889D01*
X96048Y931778D01*
X93381Y931778D01*
G54D43*
X99159Y934000D02*
X100937Y929000D01*
X102715Y934000D01*
G54D43*
X106182Y929000D02*
X105826Y929000D01*
X105826Y929444D01*
X106182Y929444D01*
X106182Y929000D01*
X105826Y929000D01*
G54D43*
X112849Y936222D02*
X112404Y937333D01*
X111515Y937889D01*
X110626Y937889D01*
X109737Y937333D01*
X109293Y936222D01*
X109293Y933444D01*
X109293Y932889D01*
X110626Y934000D01*
X111515Y934000D01*
X112404Y933444D01*
X112849Y932333D01*
X112849Y930667D01*
X112404Y929556D01*
X111515Y929000D01*
X110626Y929000D01*
X109737Y929556D01*
X109293Y930667D01*
X109293Y933444D01*
X21000Y800000D02*
G54D39*
D03*
G54D25*
X302500Y893500D02*
X302500Y910500D01*
X298000Y915000D01*
X288000Y915000D01*
G54D41*
X231661Y816667D02*
X232105Y817778D01*
X232994Y818333D01*
X233883Y818333D01*
X234772Y817778D01*
X235217Y816667D01*
X235217Y815556D01*
X234772Y814444D01*
X233883Y813889D01*
X234772Y813333D01*
X235217Y812222D01*
X235217Y811111D01*
X234772Y810000D01*
X233883Y809444D01*
X232994Y809444D01*
X232105Y810000D01*
X231661Y811111D01*
G54D41*
X241884Y809444D02*
X238328Y809444D01*
X238328Y810000D01*
X238772Y811111D01*
X241439Y814444D01*
X241884Y815556D01*
X241884Y816667D01*
X241439Y817778D01*
X240550Y818333D01*
X239661Y818333D01*
X238772Y817778D01*
X238328Y816667D01*
G54D41*
X247217Y813889D02*
X246328Y813889D01*
X245439Y814444D01*
X244995Y815556D01*
X244995Y816667D01*
X245439Y817778D01*
X246328Y818333D01*
X247217Y818333D01*
X248106Y817778D01*
X248551Y816667D01*
X248551Y815556D01*
X248106Y814444D01*
X247217Y813889D01*
X248106Y813333D01*
X248551Y812222D01*
X248551Y811111D01*
X248106Y810000D01*
X247217Y809444D01*
X246328Y809444D01*
X245439Y810000D01*
X244995Y811111D01*
X244995Y812222D01*
X245439Y813333D01*
X246328Y813889D01*
G54D41*
X251662Y809444D02*
X251662Y818333D01*
X253884Y818333D01*
X254773Y817778D01*
X255218Y816667D01*
X255218Y815556D01*
X254773Y814444D01*
X253884Y813889D01*
X251662Y813889D01*
G54D44*
X125225Y745111D02*
X124780Y744000D01*
X123891Y743444D01*
X123002Y743444D01*
X122113Y744000D01*
X121669Y745111D01*
X121669Y750667D01*
X122113Y751778D01*
X123002Y752333D01*
X123891Y752333D01*
X124780Y751778D01*
X125225Y750667D01*
G54D44*
X127669Y743444D02*
X127669Y752333D01*
G54D44*
X131225Y743444D02*
X131225Y752333D01*
G54D44*
X127669Y747889D02*
X131225Y747889D01*
G54D44*
X133669Y750667D02*
X134113Y751778D01*
X135002Y752333D01*
X135891Y752333D01*
X136780Y751778D01*
X137225Y750667D01*
X137225Y749556D01*
X136780Y748444D01*
X135891Y747889D01*
X136780Y747333D01*
X137225Y746222D01*
X137225Y745111D01*
X136780Y744000D01*
X135891Y743444D01*
X135002Y743444D01*
X134113Y744000D01*
X133669Y745111D01*
G54D44*
X142336Y743444D02*
X142336Y752333D01*
X139669Y746778D01*
X139669Y745667D01*
X143225Y745667D01*
G54D44*
X149225Y750667D02*
X149225Y745111D01*
X148780Y744000D01*
X147891Y743444D01*
X147002Y743444D01*
X146113Y744000D01*
X145669Y745111D01*
X145669Y750667D01*
X146113Y751778D01*
X147002Y752333D01*
X147891Y752333D01*
X148780Y751778D01*
X149225Y750667D01*
G54D44*
X118503Y883444D02*
X118503Y889667D01*
G54D44*
X117258Y889667D02*
X119747Y889667D01*
G54D44*
X124414Y884611D02*
X124103Y883833D01*
X123481Y883444D01*
X122859Y883444D01*
X122237Y883833D01*
X121926Y884611D01*
X121926Y888500D01*
X122237Y889278D01*
X122859Y889667D01*
X123481Y889667D01*
X124103Y889278D01*
X124414Y888500D01*
G54D44*
X128459Y883444D02*
X128459Y889667D01*
X126592Y885778D01*
X126592Y885000D01*
X129081Y885000D01*
G54D44*
X133748Y888500D02*
X133748Y884611D01*
X133437Y883833D01*
X132815Y883444D01*
X132193Y883444D01*
X131571Y883833D01*
X131260Y884611D01*
X131260Y888500D01*
X131571Y889278D01*
X132193Y889667D01*
X132815Y889667D01*
X133437Y889278D01*
X133748Y888500D01*
G54D44*
X138415Y889667D02*
X135926Y889667D01*
X135926Y886944D01*
X136238Y886944D01*
X136860Y887333D01*
X137482Y887333D01*
X138104Y886944D01*
X138415Y886167D01*
X138415Y884611D01*
X138104Y883833D01*
X137482Y883444D01*
X136860Y883444D01*
X136238Y883833D01*
X135926Y884611D01*
G54D44*
X143082Y888500D02*
X142771Y889278D01*
X142149Y889667D01*
X141527Y889667D01*
X140905Y889278D01*
X140594Y888500D01*
X140594Y886556D01*
X140594Y886167D01*
X141527Y886944D01*
X142149Y886944D01*
X142771Y886556D01*
X143082Y885778D01*
X143082Y884611D01*
X142771Y883833D01*
X142149Y883444D01*
X141527Y883444D01*
X140905Y883833D01*
X140594Y884611D01*
X140594Y886556D01*
G54D44*
X145260Y883444D02*
X146816Y889667D01*
X148372Y883444D01*
G54D44*
X145883Y885778D02*
X147749Y885778D01*
G54D45*
X248564Y900222D02*
X248564Y905556D01*
X249897Y905556D01*
X250431Y905222D01*
X250697Y904556D01*
X250697Y903889D01*
X250431Y903222D01*
X249897Y902889D01*
X250431Y902556D01*
X250697Y901889D01*
X250697Y901222D01*
X250431Y900556D01*
X249897Y900222D01*
X248564Y900222D01*
G54D45*
X248564Y902889D02*
X249897Y902889D01*
G54D45*
X252564Y905556D02*
X252564Y901222D01*
X252831Y900556D01*
X253364Y900222D01*
X253897Y900222D01*
X254431Y900556D01*
X254697Y901222D01*
X254697Y905556D01*
G54D45*
X256564Y905556D02*
X258697Y905556D01*
X256564Y900222D01*
X258697Y900222D01*
G54D45*
X260564Y905556D02*
X262697Y905556D01*
X260564Y900222D01*
X262697Y900222D01*
G54D45*
X266431Y900222D02*
X264564Y900222D01*
X264564Y905556D01*
X266431Y905556D01*
G54D45*
X264564Y902889D02*
X266431Y902889D01*
G54D45*
X269365Y902889D02*
X270165Y902222D01*
X270431Y901556D01*
X270431Y900222D01*
G54D45*
X268298Y900222D02*
X268298Y905556D01*
X269631Y905556D01*
X270165Y905222D01*
X270431Y904556D01*
X270431Y903889D01*
X270165Y903222D01*
X269631Y902889D01*
X268298Y902889D01*
G54D46*
X30800Y710111D02*
X30800Y713667D01*
X32045Y713667D01*
G54D46*
X30800Y711889D02*
X32045Y711889D01*
G54D46*
X33022Y710778D02*
X33200Y710333D01*
X33556Y710111D01*
X33911Y710111D01*
X34267Y710333D01*
X34445Y710778D01*
X34445Y711222D01*
X34267Y711667D01*
X33911Y711889D01*
X33556Y711889D01*
X33200Y712111D01*
X33022Y712555D01*
X33022Y713000D01*
X33200Y713444D01*
X33556Y713667D01*
X33911Y713667D01*
X34267Y713444D01*
X34445Y713000D01*
G54D46*
X36311Y711889D02*
X35956Y711889D01*
X35600Y712111D01*
X35422Y712555D01*
X35422Y713000D01*
X35600Y713444D01*
X35956Y713667D01*
X36311Y713667D01*
X36667Y713444D01*
X36845Y713000D01*
X36845Y712555D01*
X36667Y712111D01*
X36311Y711889D01*
X36667Y711667D01*
X36845Y711222D01*
X36845Y710778D01*
X36667Y710333D01*
X36311Y710111D01*
X35956Y710111D01*
X35600Y710333D01*
X35422Y710778D01*
X35422Y711222D01*
X35600Y711667D01*
X35956Y711889D01*
G54D46*
X39245Y710111D02*
X37822Y710111D01*
X37822Y710333D01*
X38000Y710778D01*
X39067Y712111D01*
X39245Y712555D01*
X39245Y713000D01*
X39067Y713444D01*
X38711Y713667D01*
X38356Y713667D01*
X38000Y713444D01*
X37822Y713000D01*
G54D46*
X41645Y713000D02*
X41645Y710778D01*
X41467Y710333D01*
X41111Y710111D01*
X40756Y710111D01*
X40400Y710333D01*
X40222Y710778D01*
X40222Y713000D01*
X40400Y713444D01*
X40756Y713667D01*
X41111Y713667D01*
X41467Y713444D01*
X41645Y713000D01*
G54D46*
X44045Y713667D02*
X42622Y713667D01*
X42622Y712111D01*
X42800Y712111D01*
X43156Y712333D01*
X43511Y712333D01*
X43867Y712111D01*
X44045Y711667D01*
X44045Y710778D01*
X43867Y710333D01*
X43511Y710111D01*
X43156Y710111D01*
X42800Y710333D01*
X42622Y710778D01*
G54D46*
X45022Y710111D02*
X45911Y713667D01*
X46800Y710111D01*
G54D46*
X45378Y711444D02*
X46445Y711444D01*
X147000Y782000D02*
G54D29*
D03*
X170096Y700500D02*
G54D26*
D03*
X159096Y700500D02*
G54D26*
D03*
X170096Y686500D02*
G54D26*
D03*
X159096Y686500D02*
G54D26*
D03*
X149000Y714000D02*
G54D29*
D03*
X147000Y700000D02*
G54D29*
D03*
X146000Y686000D02*
G54D29*
D03*
G54D47*
X159096Y714500D02*
X151638Y714451D01*
X149000Y714000D01*
G54D47*
X159096Y700500D02*
X151969Y700451D01*
X151000Y700000D01*
X147000Y700000D01*
G54D47*
X159096Y686500D02*
X150701Y686518D01*
X149000Y686000D01*
X146000Y686000D01*
G54D47*
X165000Y782000D02*
X147000Y782000D01*
X184000Y717000D02*
G54D29*
D03*
X184000Y701000D02*
G54D29*
D03*
X184000Y685000D02*
G54D29*
D03*
G54D25*
X170096Y686500D02*
X177219Y686542D01*
X179000Y685000D01*
X184000Y685000D01*
G54D25*
X170096Y714500D02*
X181500Y714500D01*
X184000Y717000D01*
G54D25*
X170096Y700500D02*
X177127Y700549D01*
X178000Y701000D01*
X184000Y701000D01*
G54D41*
X34171Y626444D02*
X34171Y635333D01*
X36393Y635333D01*
X37282Y634778D01*
X37727Y633667D01*
X37727Y632556D01*
X37282Y631444D01*
X36393Y630889D01*
X37282Y630333D01*
X37727Y629222D01*
X37727Y628111D01*
X37282Y627000D01*
X36393Y626444D01*
X34171Y626444D01*
G54D41*
X34171Y630889D02*
X36393Y630889D01*
G54D41*
X40838Y626444D02*
X43060Y635333D01*
X45282Y626444D01*
G54D41*
X41727Y629778D02*
X44394Y629778D01*
G54D41*
X50171Y626444D02*
X50171Y635333D01*
G54D41*
X48393Y635333D02*
X51949Y635333D01*
G54D41*
X56838Y626444D02*
X56838Y635333D01*
G54D41*
X55060Y635333D02*
X58616Y635333D01*
G54D41*
X64838Y626444D02*
X61727Y626444D01*
X61727Y635333D01*
X64838Y635333D01*
G54D41*
X61727Y630889D02*
X64838Y630889D01*
G54D41*
X69727Y630889D02*
X71060Y629778D01*
X71505Y628667D01*
X71505Y626444D01*
G54D41*
X67949Y626444D02*
X67949Y635333D01*
X70171Y635333D01*
X71060Y634778D01*
X71505Y633667D01*
X71505Y632556D01*
X71060Y631444D01*
X70171Y630889D01*
X67949Y630889D01*
G54D41*
X74616Y635333D02*
X76838Y630889D01*
X76838Y626444D01*
G54D41*
X76838Y630889D02*
X79060Y635333D01*
G54D41*
X15802Y768333D02*
X15802Y761111D01*
X16246Y760000D01*
X17135Y759444D01*
X18024Y759444D01*
X18913Y760000D01*
X19358Y761111D01*
X19358Y768333D01*
G54D41*
X22469Y761111D02*
X22913Y760000D01*
X23802Y759444D01*
X24691Y759444D01*
X25580Y760000D01*
X26025Y761111D01*
X26025Y762222D01*
X25580Y763333D01*
X24691Y763889D01*
X23802Y763889D01*
X22913Y764444D01*
X22469Y765556D01*
X22469Y766667D01*
X22913Y767778D01*
X23802Y768333D01*
X24691Y768333D01*
X25580Y767778D01*
X26025Y766667D01*
G54D41*
X29136Y759444D02*
X29136Y768333D01*
X31358Y768333D01*
X32247Y767778D01*
X32692Y766667D01*
X32692Y765556D01*
X32247Y764444D01*
X31358Y763889D01*
X32247Y763333D01*
X32692Y762222D01*
X32692Y761111D01*
X32247Y760000D01*
X31358Y759444D01*
X29136Y759444D01*
G54D41*
X29136Y763889D02*
X31358Y763889D01*
G54D48*
X347508Y865334D02*
X347508Y872445D01*
X349286Y872445D01*
X349997Y872000D01*
X350352Y871111D01*
X350352Y870222D01*
X349997Y869334D01*
X349286Y868889D01*
X349997Y868445D01*
X350352Y867556D01*
X350352Y866667D01*
X349997Y865778D01*
X349286Y865334D01*
X347508Y865334D01*
G54D48*
X347508Y868889D02*
X349286Y868889D01*
G54D48*
X352841Y872445D02*
X352841Y866667D01*
X353197Y865778D01*
X353908Y865334D01*
X354619Y865334D01*
X355330Y865778D01*
X355685Y866667D01*
X355685Y872445D01*
G54D48*
X359596Y865334D02*
X359596Y872445D01*
G54D48*
X358174Y872445D02*
X361018Y872445D01*
G54D48*
X347508Y700334D02*
X347508Y707445D01*
X349286Y707445D01*
X349997Y707000D01*
X350352Y706111D01*
X350352Y705222D01*
X349997Y704334D01*
X349286Y703889D01*
X349997Y703445D01*
X350352Y702556D01*
X350352Y701667D01*
X349997Y700778D01*
X349286Y700334D01*
X347508Y700334D01*
G54D48*
X347508Y703889D02*
X349286Y703889D01*
G54D48*
X352841Y707445D02*
X352841Y701667D01*
X353197Y700778D01*
X353908Y700334D01*
X354619Y700334D01*
X355330Y700778D01*
X355685Y701667D01*
X355685Y707445D01*
G54D48*
X359596Y700334D02*
X359596Y707445D01*
G54D48*
X358174Y707445D02*
X361018Y707445D01*
X288000Y863000D02*
G54D39*
D03*
X39000Y759000D02*
G54D39*
D03*
X14000Y710000D02*
G54D39*
D03*
X13000Y648000D02*
G54D39*
D03*
X303000Y608000D02*
G54D39*
D03*
X304000Y948000D02*
G54D39*
D03*
X60000Y671000D02*
G54D39*
D03*
G54D46*
X69800Y671111D02*
X69800Y674667D01*
X70689Y674667D01*
X71045Y674444D01*
X71223Y674000D01*
X71223Y671778D01*
X71045Y671333D01*
X70689Y671111D01*
X69800Y671111D01*
G54D46*
X72200Y674667D02*
X72200Y671111D01*
X73089Y673333D01*
X73978Y671111D01*
X73978Y674667D01*
G54D46*
X76379Y674000D02*
X76379Y671778D01*
X76201Y671333D01*
X75845Y671111D01*
X75490Y671111D01*
X75134Y671333D01*
X74956Y671778D01*
X74956Y674000D01*
X75134Y674444D01*
X75490Y674667D01*
X75845Y674667D01*
X76201Y674444D01*
X76379Y674000D01*
G54D46*
X77356Y673333D02*
X78245Y674667D01*
X78245Y671111D01*
G54D46*
X79224Y671111D02*
X80112Y674667D01*
X81001Y671111D01*
G54D46*
X79579Y672444D02*
X80646Y672444D01*
G54D49*
X294763Y962111D02*
X296763Y954111D01*
X298763Y962111D01*
G54D49*
X304763Y955611D02*
X304363Y954611D01*
X303563Y954111D01*
X302763Y954111D01*
X301963Y954611D01*
X301563Y955611D01*
X301563Y960611D01*
X301963Y961611D01*
X302763Y962111D01*
X303563Y962111D01*
X304363Y961611D01*
X304763Y960611D01*
G54D49*
X310763Y955611D02*
X310363Y954611D01*
X309563Y954111D01*
X308763Y954111D01*
X307963Y954611D01*
X307563Y955611D01*
X307563Y960611D01*
X307963Y961611D01*
X308763Y962111D01*
X309563Y962111D01*
X310363Y961611D01*
X310763Y960611D01*
G54D41*
X60777Y958111D02*
X62555Y958111D01*
X62555Y955333D01*
X62111Y954222D01*
X61222Y953666D01*
X60333Y953666D01*
X59444Y954222D01*
X59000Y955333D01*
X59000Y960889D01*
X59444Y962000D01*
X60333Y962555D01*
X61222Y962555D01*
X62111Y962000D01*
X62555Y960889D01*
G54D41*
X65666Y953666D02*
X65666Y962555D01*
X69222Y953666D01*
X69222Y962555D01*
G54D41*
X72334Y953666D02*
X72334Y962555D01*
X74556Y962555D01*
X75445Y962000D01*
X75889Y960889D01*
X75889Y955333D01*
X75445Y954222D01*
X74556Y953666D01*
X72334Y953666D01*
G54D50*
X63489Y590000D02*
X61000Y590000D01*
X61000Y590389D01*
X61311Y591167D01*
X63178Y593500D01*
X63489Y594278D01*
X63489Y595056D01*
X63178Y595833D01*
X62556Y596222D01*
X61933Y596222D01*
X61311Y595833D01*
X61000Y595056D01*
G54D50*
X67689Y595056D02*
X67689Y591167D01*
X67378Y590389D01*
X66756Y590000D01*
X66133Y590000D01*
X65511Y590389D01*
X65200Y591167D01*
X65200Y595056D01*
X65511Y595833D01*
X66133Y596222D01*
X66756Y596222D01*
X67378Y595833D01*
X67689Y595056D01*
G54D50*
X69400Y590000D02*
X69400Y593500D01*
G54D50*
X69400Y592878D02*
X70022Y593500D01*
X70644Y593267D01*
X70956Y592722D01*
X70956Y590000D01*
G54D50*
X70956Y592878D02*
X71578Y593500D01*
X72200Y593267D01*
X72511Y592722D01*
X72511Y590000D01*
G54D50*
X74222Y590000D02*
X74222Y593500D01*
G54D50*
X74222Y592878D02*
X74844Y593500D01*
X75466Y593267D01*
X75778Y592722D01*
X75778Y590000D01*
G54D50*
X75778Y592878D02*
X76400Y593500D01*
X77022Y593267D01*
X77333Y592722D01*
X77333Y590000D01*
G54D50*
X295489Y590000D02*
X293000Y590000D01*
X293000Y590389D01*
X293311Y591167D01*
X295178Y593500D01*
X295489Y594278D01*
X295489Y595056D01*
X295178Y595833D01*
X294556Y596222D01*
X293933Y596222D01*
X293311Y595833D01*
X293000Y595056D01*
G54D50*
X299689Y595056D02*
X299689Y591167D01*
X299378Y590389D01*
X298756Y590000D01*
X298133Y590000D01*
X297511Y590389D01*
X297200Y591167D01*
X297200Y595056D01*
X297511Y595833D01*
X298133Y596222D01*
X298756Y596222D01*
X299378Y595833D01*
X299689Y595056D01*
G54D50*
X301400Y590000D02*
X301400Y593500D01*
G54D50*
X301400Y592878D02*
X302022Y593500D01*
X302644Y593267D01*
X302956Y592722D01*
X302956Y590000D01*
G54D50*
X302956Y592878D02*
X303578Y593500D01*
X304200Y593267D01*
X304511Y592722D01*
X304511Y590000D01*
G54D50*
X306222Y590000D02*
X306222Y593500D01*
G54D50*
X306222Y592878D02*
X306844Y593500D01*
X307466Y593267D01*
X307778Y592722D01*
X307778Y590000D01*
G54D50*
X307778Y592878D02*
X308400Y593500D01*
X309022Y593267D01*
X309333Y592722D01*
X309333Y590000D01*
X302000Y980000D02*
G54D31*
D03*
X68000Y980000D02*
G54D51*
D03*
G54D30*
X302000Y980000D02*
X303000Y980000D01*
X321000Y962000D01*
X321000Y933000D01*
%LPD*%
G54D52*
G36*
X292000Y822516D02*
X277500Y822516D01*
X277500Y825484D01*
X292000Y825484D01*
X292000Y822516D01*
G37*
G54D52*
G36*
X292000Y806516D02*
X277500Y806516D01*
X277500Y809484D01*
X292000Y809484D01*
X292000Y806516D01*
G37*
G54D53*
G36*
X206000Y818525D02*
X220500Y818525D01*
X220500Y815475D01*
X206000Y815475D01*
X206000Y818525D01*
G37*
G54D54*
G36*
X42987Y738000D02*
X42987Y724500D01*
X41014Y724500D01*
X41014Y738000D01*
X42987Y738000D01*
G37*
G36*
X42000Y737014D02*
X35500Y737014D01*
X35500Y738987D01*
X42000Y738987D01*
X42000Y737014D01*
G37*
G36*
X41014Y738000D02*
X41014Y751500D01*
X42987Y751500D01*
X42987Y738000D01*
X41014Y738000D01*
G37*
G54D47*
G36*
X37000Y738000D02*
X37000Y724500D01*
X35000Y724500D01*
X35000Y738000D01*
X37000Y738000D01*
G37*
G36*
X35000Y738000D02*
X35000Y751500D01*
X37000Y751500D01*
X37000Y738000D01*
X35000Y738000D01*
G37*
G36*
X36000Y739000D02*
X42500Y739000D01*
X42500Y737000D01*
X36000Y737000D01*
X36000Y739000D01*
G37*
G54D55*
G36*
X62666Y680500D02*
X62666Y674500D01*
X60334Y674500D01*
X60334Y680500D01*
X62666Y680500D01*
G37*
G36*
X61500Y679334D02*
X55000Y679334D01*
X55000Y681666D01*
X61500Y681666D01*
X61500Y679334D01*
G37*
G54D56*
G36*
X181500Y874384D02*
X173000Y874384D01*
X173000Y877416D01*
X181500Y877416D01*
X181500Y874384D01*
G37*
G36*
X181500Y877416D02*
X190000Y877416D01*
X190000Y874384D01*
X181500Y874384D01*
X181500Y877416D01*
G37*
G54D57*
G36*
X199834Y914000D02*
X199834Y926500D01*
X204166Y926500D01*
X204166Y914000D01*
X199834Y914000D01*
G37*
G36*
X202000Y916166D02*
X212000Y916166D01*
X212000Y911834D01*
X202000Y911834D01*
X202000Y916166D01*
G37*
G54D58*
G36*
X103513Y839658D02*
X103513Y831158D01*
X100363Y831158D01*
X100363Y839658D01*
X103513Y839658D01*
G37*
G36*
X100363Y839658D02*
X100363Y848158D01*
X103513Y848158D01*
X103513Y839658D01*
X100363Y839658D01*
G37*
G36*
X101938Y841233D02*
X109938Y841233D01*
X109938Y838083D01*
X101938Y838083D01*
X101938Y841233D01*
G37*
G54D59*
G36*
X103664Y859658D02*
X103664Y851158D01*
X100212Y851158D01*
X100212Y859658D01*
X103664Y859658D01*
G37*
G36*
X101938Y861384D02*
X109938Y861384D01*
X109938Y857932D01*
X101938Y857932D01*
X101938Y861384D01*
G37*
G54D56*
G36*
X198016Y884500D02*
X198016Y876500D01*
X194984Y876500D01*
X194984Y884500D01*
X198016Y884500D01*
G37*
G54D60*
G36*
X177500Y841052D02*
X185500Y841052D01*
X185500Y837948D01*
X177500Y837948D01*
X177500Y841052D01*
G37*
G36*
X179052Y839500D02*
X179052Y831000D01*
X175948Y831000D01*
X175948Y839500D01*
X179052Y839500D01*
G37*
G54D61*
G36*
X231000Y918334D02*
X245500Y918334D01*
X245500Y911666D01*
X231000Y911666D01*
X231000Y918334D01*
G37*
G36*
X234334Y915000D02*
X234334Y900500D01*
X227666Y900500D01*
X227666Y915000D01*
X234334Y915000D01*
G37*
G36*
X231000Y911666D02*
X216500Y911666D01*
X216500Y918334D01*
X231000Y918334D01*
X231000Y911666D01*
G37*
G54D55*
G36*
X297166Y745000D02*
X297166Y733500D01*
X294834Y733500D01*
X294834Y745000D01*
X297166Y745000D01*
G37*
G36*
X296000Y743834D02*
X290000Y743834D01*
X290000Y746166D01*
X296000Y746166D01*
X296000Y743834D01*
G37*
G36*
X294834Y745000D02*
X294834Y756500D01*
X297166Y756500D01*
X297166Y745000D01*
X294834Y745000D01*
G37*
G36*
X296000Y746166D02*
X302000Y746166D01*
X302000Y743834D01*
X296000Y743834D01*
X296000Y746166D01*
G37*
G54D55*
G36*
X284166Y745000D02*
X284166Y733500D01*
X281834Y733500D01*
X281834Y745000D01*
X284166Y745000D01*
G37*
G36*
X283000Y743834D02*
X277000Y743834D01*
X277000Y746166D01*
X283000Y746166D01*
X283000Y743834D01*
G37*
G36*
X281834Y745000D02*
X281834Y756500D01*
X284166Y756500D01*
X284166Y745000D01*
X281834Y745000D01*
G37*
G36*
X283000Y746166D02*
X289000Y746166D01*
X289000Y743834D01*
X283000Y743834D01*
X283000Y746166D01*
G37*
G54D55*
G36*
X271166Y745000D02*
X271166Y733500D01*
X268834Y733500D01*
X268834Y745000D01*
X271166Y745000D01*
G37*
G36*
X270000Y743834D02*
X264000Y743834D01*
X264000Y746166D01*
X270000Y746166D01*
X270000Y743834D01*
G37*
G36*
X270000Y746166D02*
X276000Y746166D01*
X276000Y743834D01*
X270000Y743834D01*
X270000Y746166D01*
G37*
G54D55*
G36*
X258166Y745000D02*
X258166Y733500D01*
X255834Y733500D01*
X255834Y745000D01*
X258166Y745000D01*
G37*
G36*
X257000Y743834D02*
X251000Y743834D01*
X251000Y746166D01*
X257000Y746166D01*
X257000Y743834D01*
G37*
G36*
X257000Y746166D02*
X263000Y746166D01*
X263000Y743834D01*
X257000Y743834D01*
X257000Y746166D01*
G37*
G54D55*
G36*
X245166Y745000D02*
X245166Y733500D01*
X242834Y733500D01*
X242834Y745000D01*
X245166Y745000D01*
G37*
G36*
X244000Y746166D02*
X250000Y746166D01*
X250000Y743834D01*
X244000Y743834D01*
X244000Y746166D01*
G37*
G54D55*
G36*
X297166Y655000D02*
X297166Y643500D01*
X294834Y643500D01*
X294834Y655000D01*
X297166Y655000D01*
G37*
G36*
X296000Y653834D02*
X290000Y653834D01*
X290000Y656166D01*
X296000Y656166D01*
X296000Y653834D01*
G37*
G36*
X294834Y655000D02*
X294834Y666500D01*
X297166Y666500D01*
X297166Y655000D01*
X294834Y655000D01*
G37*
G36*
X296000Y656166D02*
X302000Y656166D01*
X302000Y653834D01*
X296000Y653834D01*
X296000Y656166D01*
G37*
G54D55*
G36*
X284166Y655000D02*
X284166Y643500D01*
X281834Y643500D01*
X281834Y655000D01*
X284166Y655000D01*
G37*
G36*
X283000Y653834D02*
X277000Y653834D01*
X277000Y656166D01*
X283000Y656166D01*
X283000Y653834D01*
G37*
G36*
X281834Y655000D02*
X281834Y666500D01*
X284166Y666500D01*
X284166Y655000D01*
X281834Y655000D01*
G37*
G36*
X283000Y656166D02*
X289000Y656166D01*
X289000Y653834D01*
X283000Y653834D01*
X283000Y656166D01*
G37*
G54D56*
G36*
X271516Y655000D02*
X271516Y643500D01*
X268484Y643500D01*
X268484Y655000D01*
X271516Y655000D01*
G37*
G36*
X270000Y653484D02*
X264000Y653484D01*
X264000Y656516D01*
X270000Y656516D01*
X270000Y653484D01*
G37*
G36*
X268484Y655000D02*
X268484Y666500D01*
X271516Y666500D01*
X271516Y655000D01*
X268484Y655000D01*
G37*
G36*
X270000Y656516D02*
X276000Y656516D01*
X276000Y653484D01*
X270000Y653484D01*
X270000Y656516D01*
G37*
G54D55*
G36*
X258166Y655000D02*
X258166Y643500D01*
X255834Y643500D01*
X255834Y655000D01*
X258166Y655000D01*
G37*
G36*
X255834Y655000D02*
X255834Y666500D01*
X258166Y666500D01*
X258166Y655000D01*
X255834Y655000D01*
G37*
G36*
X257000Y656166D02*
X263000Y656166D01*
X263000Y653834D01*
X257000Y653834D01*
X257000Y656166D01*
G37*
G54D62*
G36*
X144000Y844458D02*
X152500Y844458D01*
X152500Y841542D01*
X144000Y841542D01*
X144000Y844458D01*
G37*
G54D63*
G36*
X117460Y859000D02*
X117460Y867500D01*
X120540Y867500D01*
X120540Y859000D01*
X117460Y859000D01*
G37*
G36*
X119000Y857460D02*
X111000Y857460D01*
X111000Y860540D01*
X119000Y860540D01*
X119000Y857460D01*
G37*
G54D55*
G36*
X327166Y776000D02*
X327166Y769500D01*
X324834Y769500D01*
X324834Y776000D01*
X327166Y776000D01*
G37*
G36*
X326000Y777166D02*
X332000Y777166D01*
X332000Y774834D01*
X326000Y774834D01*
X326000Y777166D01*
G37*
G54D55*
G36*
X327166Y761000D02*
X327166Y754500D01*
X324834Y754500D01*
X324834Y761000D01*
X327166Y761000D01*
G37*
G36*
X324834Y761000D02*
X324834Y767500D01*
X327166Y767500D01*
X327166Y761000D01*
X324834Y761000D01*
G37*
G36*
X326000Y762166D02*
X332000Y762166D01*
X332000Y759834D01*
X326000Y759834D01*
X326000Y762166D01*
G37*
X54000Y830000D02*
G54D11*
D03*
X54000Y823000D02*
G54D11*
D03*
X54000Y816000D02*
G54D11*
D03*
X54000Y802000D02*
G54D11*
D03*
X54000Y809000D02*
G54D11*
D03*
X51000Y849000D02*
G54D12*
D03*
X52000Y784000D02*
G54D12*
D03*
X24000Y816000D02*
G54D13*
D03*
X221000Y863000D02*
G54D64*
D03*
X229000Y863000D02*
G54D64*
D03*
X237000Y863000D02*
G54D64*
D03*
X245000Y863000D02*
G54D64*
D03*
X253000Y863000D02*
G54D64*
D03*
X261000Y863000D02*
G54D64*
D03*
X269000Y863000D02*
G54D64*
D03*
X277000Y863000D02*
G54D64*
D03*
X221000Y778000D02*
G54D64*
D03*
X229000Y778000D02*
G54D64*
D03*
X237000Y778000D02*
G54D64*
D03*
X245000Y778000D02*
G54D64*
D03*
X253000Y778000D02*
G54D64*
D03*
X261000Y778000D02*
G54D64*
D03*
X269000Y778000D02*
G54D64*
D03*
X277000Y778000D02*
G54D64*
D03*
X292000Y848000D02*
G54D65*
D03*
X292000Y840000D02*
G54D65*
D03*
X292000Y832000D02*
G54D65*
D03*
X292000Y824000D02*
G54D65*
D03*
X292000Y816000D02*
G54D65*
D03*
X292000Y808000D02*
G54D65*
D03*
X292000Y800000D02*
G54D65*
D03*
X292000Y792000D02*
G54D65*
D03*
X206000Y849000D02*
G54D65*
D03*
X206000Y841000D02*
G54D65*
D03*
X206000Y833000D02*
G54D65*
D03*
X206000Y825000D02*
G54D65*
D03*
X206000Y817000D02*
G54D65*
D03*
X206000Y809000D02*
G54D65*
D03*
X206000Y801000D02*
G54D65*
D03*
X206000Y793000D02*
G54D65*
D03*
X333000Y813000D02*
G54D17*
D03*
X333000Y804000D02*
G54D17*
D03*
X333000Y795000D02*
G54D17*
D03*
X38000Y654000D02*
G54D66*
D03*
X82000Y654000D02*
G54D66*
D03*
X48000Y738000D02*
G54D67*
D03*
X42000Y738000D02*
G54D67*
D03*
X36000Y738000D02*
G54D67*
D03*
X30000Y738000D02*
G54D67*
D03*
X48000Y680000D02*
G54D67*
D03*
X42000Y680000D02*
G54D67*
D03*
X36000Y680000D02*
G54D67*
D03*
X30000Y680000D02*
G54D67*
D03*
X77000Y704000D02*
G54D68*
D03*
X77000Y694000D02*
G54D68*
D03*
X77000Y684000D02*
G54D68*
D03*
X105000Y704000D02*
G54D68*
D03*
X105000Y694000D02*
G54D68*
D03*
X105000Y684000D02*
G54D68*
D03*
X61500Y691500D02*
G54D69*
D03*
X61500Y680500D02*
G54D69*
D03*
X121500Y699500D02*
G54D69*
D03*
X121500Y710500D02*
G54D69*
D03*
X106000Y821000D02*
G54D23*
D03*
X106000Y808000D02*
G54D23*
D03*
X106000Y795000D02*
G54D23*
D03*
X106000Y782000D02*
G54D23*
D03*
X106000Y769000D02*
G54D23*
D03*
X106000Y756000D02*
G54D23*
D03*
X106000Y743000D02*
G54D23*
D03*
X106000Y729000D02*
G54D23*
D03*
X165000Y821000D02*
G54D23*
D03*
X165000Y808000D02*
G54D23*
D03*
X165000Y795000D02*
G54D23*
D03*
X165000Y782000D02*
G54D23*
D03*
X165000Y769000D02*
G54D23*
D03*
X165000Y756000D02*
G54D23*
D03*
X165000Y743000D02*
G54D23*
D03*
X165000Y729000D02*
G54D23*
D03*
G54D47*
X106000Y808000D02*
X124000Y808000D01*
G54D47*
X106000Y795000D02*
X124000Y795000D01*
X74000Y743000D02*
G54D17*
D03*
X74000Y734000D02*
G54D17*
D03*
X74000Y725000D02*
G54D17*
D03*
X170096Y714500D02*
G54D70*
D03*
X159096Y714500D02*
G54D70*
D03*
X181500Y875900D02*
G54D69*
D03*
X181500Y886900D02*
G54D69*
D03*
X102000Y913000D02*
G54D23*
D03*
X102000Y900000D02*
G54D23*
D03*
X102000Y887000D02*
G54D23*
D03*
X102000Y874000D02*
G54D23*
D03*
X163000Y913000D02*
G54D23*
D03*
X163000Y900000D02*
G54D23*
D03*
X163000Y887000D02*
G54D23*
D03*
X163000Y874000D02*
G54D23*
D03*
X184000Y914000D02*
G54D71*
D03*
X202000Y914000D02*
G54D71*
D03*
X45000Y916000D02*
G54D70*
D03*
X34000Y916000D02*
G54D70*
D03*
X45000Y900000D02*
G54D70*
D03*
X34000Y900000D02*
G54D70*
D03*
X121500Y683500D02*
G54D69*
D03*
X121500Y672500D02*
G54D69*
D03*
X243000Y884000D02*
G54D39*
D03*
X253000Y876000D02*
G54D39*
D03*
X262000Y888000D02*
G54D39*
D03*
X273000Y880000D02*
G54D39*
D03*
X284000Y888000D02*
G54D39*
D03*
G54D47*
X284000Y888000D02*
X284000Y876000D01*
X280000Y872000D01*
X277000Y863000D01*
G54D47*
X273000Y880000D02*
X269000Y876000D01*
X269000Y863000D01*
G54D47*
X262000Y888000D02*
X262000Y877000D01*
X261000Y876000D01*
X261000Y863000D01*
G54D47*
X253000Y876000D02*
X253000Y866000D01*
X326000Y849000D02*
G54D39*
D03*
X340000Y825000D02*
G54D39*
D03*
X340000Y729000D02*
G54D39*
D03*
X354000Y757000D02*
G54D39*
D03*
X290000Y783000D02*
G54D39*
D03*
X307000Y788000D02*
G54D39*
D03*
G54D47*
X333000Y813000D02*
X333000Y817000D01*
X327000Y823000D01*
X327000Y835000D01*
X314000Y848000D01*
X292000Y848000D01*
G54D47*
X333000Y795000D02*
X324000Y795000D01*
X320000Y799000D01*
X320000Y833000D01*
X313000Y840000D01*
X292000Y840000D01*
G54D72*
X338900Y885000D02*
X331000Y885000D01*
X326000Y880000D01*
X326000Y849000D01*
G54D47*
X339000Y854000D02*
X339000Y848000D01*
X333000Y842000D01*
X333000Y832000D01*
X340000Y825000D01*
G54D47*
X340000Y729000D02*
X340000Y717000D01*
G54D72*
X292000Y816000D02*
X308000Y816000D01*
X313000Y811000D01*
X313000Y792000D01*
X320000Y785000D01*
X337000Y785000D01*
X348000Y774000D01*
X348000Y763000D01*
X354000Y757000D01*
G54D47*
X269000Y778000D02*
X269000Y764000D01*
X273000Y760000D01*
G54D47*
X261000Y778000D02*
X261000Y805000D01*
X261000Y805000D02*
G54D39*
D03*
X273000Y760000D02*
G54D39*
D03*
X124000Y808000D02*
G54D39*
D03*
X124000Y795000D02*
G54D39*
D03*
G54D47*
X121500Y699500D02*
X116000Y694000D01*
X105000Y694000D01*
X115500Y693500D01*
X121000Y688000D01*
X121000Y685000D01*
X121500Y684500D01*
G54D47*
X48000Y675000D02*
X48000Y694000D01*
X58000Y704000D01*
X77000Y704000D01*
X89000Y684000D02*
G54D39*
D03*
X48000Y721000D02*
G54D39*
D03*
G54D47*
X48000Y738000D02*
X48000Y721000D01*
G54D47*
X89000Y684000D02*
X75000Y684000D01*
G54D47*
X74000Y743000D02*
X106000Y743000D01*
G54D47*
X74000Y725000D02*
X86000Y725000D01*
X90000Y729000D01*
X106000Y729000D01*
G54D47*
X54000Y816000D02*
X69000Y816000D01*
X73000Y812000D01*
X73000Y774000D01*
X78000Y769000D01*
X106000Y769000D01*
G54D47*
X54000Y823000D02*
X72000Y823000D01*
X79000Y816000D01*
X79000Y778000D01*
G54D47*
X106000Y756000D02*
X84000Y756000D01*
X79000Y761000D01*
X79000Y778000D02*
G54D39*
D03*
X79000Y761000D02*
G54D39*
D03*
G54D47*
X34000Y916000D02*
X34000Y900000D01*
G54D47*
X45000Y916000D02*
X59000Y916000D01*
X75000Y900000D01*
X102000Y900000D01*
G54D72*
X45000Y900000D02*
X57000Y900000D01*
X69000Y888000D01*
X69000Y879000D01*
X74000Y874000D01*
X102000Y874000D01*
G54D72*
X54000Y830000D02*
X68000Y830000D01*
X74000Y836000D01*
X74000Y874000D01*
G54D72*
X165000Y821000D02*
X154000Y821000D01*
X143000Y832000D01*
X124000Y832000D01*
X74000Y836000D02*
G54D39*
D03*
G54D72*
X82000Y654000D02*
X82000Y644000D01*
X89000Y637000D01*
X306000Y637000D01*
X340000Y671000D01*
X340000Y688000D01*
G54D72*
X338900Y885000D02*
X339000Y915000D01*
X321000Y933000D01*
X133000Y933000D01*
X113000Y913000D01*
X102000Y913000D01*
X185500Y814500D02*
G54D69*
D03*
X185500Y803500D02*
G54D69*
D03*
X186000Y824000D02*
G54D39*
D03*
G54D72*
X186000Y824000D02*
X186000Y815000D01*
X185500Y814500D01*
G54D47*
X253000Y778000D02*
X253000Y763000D01*
X253000Y763000D02*
G54D39*
D03*
X140000Y913000D02*
G54D39*
D03*
G54D47*
X140000Y913000D02*
X163000Y913000D01*
X101938Y839658D02*
G54D70*
D03*
X90938Y839658D02*
G54D70*
D03*
G54D47*
X106000Y782000D02*
X92000Y782000D01*
X89000Y785000D01*
X89000Y826000D01*
X91000Y828000D01*
X90938Y839658D01*
X101938Y859658D02*
G54D70*
D03*
X90938Y859658D02*
G54D70*
D03*
G54D72*
X90938Y859658D02*
X74342Y859658D01*
X74000Y860000D01*
X196500Y895500D02*
G54D69*
D03*
X196500Y884500D02*
G54D69*
D03*
X166500Y839500D02*
G54D70*
D03*
X177500Y839500D02*
G54D70*
D03*
X166000Y855000D02*
G54D70*
D03*
X177000Y855000D02*
G54D70*
D03*
G54D47*
X163000Y887000D02*
X181500Y886900D01*
G54D47*
X177000Y855000D02*
X184000Y855000D01*
X190000Y849000D01*
X210000Y849000D01*
X302500Y882500D02*
G54D69*
D03*
X302500Y893500D02*
G54D69*
D03*
G54D47*
X221000Y863000D02*
X221000Y849000D01*
X231000Y839000D01*
X275000Y839000D01*
G54D47*
X307000Y788000D02*
X303000Y792000D01*
X295000Y792000D01*
G54D47*
X290000Y783000D02*
X277000Y783000D01*
G54D72*
X206000Y793000D02*
X189000Y793000D01*
X185000Y797000D01*
X185000Y803000D01*
X185500Y803500D01*
X288000Y915000D02*
G54D51*
D03*
X231000Y915000D02*
G54D51*
D03*
X302500Y857500D02*
G54D39*
D03*
G54D47*
X302500Y857500D02*
X302500Y870500D01*
X302500Y882500D01*
X275000Y839000D02*
G54D39*
D03*
X296000Y745000D02*
G54D73*
D03*
X283000Y745000D02*
G54D73*
D03*
X270000Y745000D02*
G54D73*
D03*
X257000Y745000D02*
G54D73*
D03*
X244000Y745000D02*
G54D73*
D03*
X231000Y745000D02*
G54D73*
D03*
X218000Y745000D02*
G54D73*
D03*
X204000Y745000D02*
G54D73*
D03*
X296000Y655000D02*
G54D73*
D03*
X283000Y655000D02*
G54D73*
D03*
X270000Y655000D02*
G54D73*
D03*
X257000Y655000D02*
G54D73*
D03*
X244000Y655000D02*
G54D73*
D03*
X231000Y655000D02*
G54D73*
D03*
X218000Y655000D02*
G54D73*
D03*
X204000Y655000D02*
G54D73*
D03*
G54D72*
X169000Y670000D02*
X169000Y656000D01*
X169000Y642000D01*
X174000Y637000D01*
G54D47*
X204000Y745000D02*
X204000Y755000D01*
X207000Y758000D01*
X242000Y758000D01*
X245000Y761000D01*
X245000Y778000D01*
G54D72*
X218000Y655000D02*
X218000Y642000D01*
X223000Y637000D01*
G54D47*
X218000Y745000D02*
X218000Y723000D01*
X237000Y765000D02*
G54D39*
D03*
G54D47*
X237000Y765000D02*
X237000Y778000D01*
X218000Y723000D02*
G54D39*
D03*
G54D47*
X204000Y745000D02*
X204000Y733000D01*
X193000Y722000D01*
X193000Y679000D01*
X184000Y670000D01*
X180000Y670000D01*
G54D47*
X218000Y723000D02*
X199000Y704000D01*
X199000Y675000D01*
X189000Y665000D01*
X189000Y660000D01*
X185000Y656000D01*
X180000Y656000D01*
G54D72*
X36000Y680000D02*
X36000Y660000D01*
X42000Y660000D01*
X42000Y680000D01*
X42000Y697000D01*
X58000Y713000D01*
X96000Y713000D01*
X105000Y704000D01*
G54D47*
X121500Y710500D02*
X111500Y710500D01*
X105000Y704000D01*
G54D47*
X77000Y694000D02*
X70000Y694000D01*
X67548Y691547D01*
X61500Y691500D01*
G54D47*
X166500Y839500D02*
X166000Y843000D01*
X166000Y855000D01*
G54D72*
X313000Y811000D02*
X313000Y825000D01*
X306000Y832000D01*
X292000Y832000D01*
X338000Y870000D02*
G54D34*
D03*
X338900Y885000D02*
G54D74*
D03*
X339000Y854000D02*
G54D74*
D03*
X353000Y886000D02*
G54D36*
D03*
X353000Y853000D02*
G54D36*
D03*
X359000Y885000D02*
G54D37*
D03*
X359000Y854000D02*
G54D37*
D03*
X338000Y704000D02*
G54D34*
D03*
X340000Y718950D02*
G54D75*
D03*
X340000Y688000D02*
G54D75*
D03*
X353000Y720000D02*
G54D36*
D03*
X353000Y687000D02*
G54D36*
D03*
X359000Y719000D02*
G54D37*
D03*
X359000Y688000D02*
G54D37*
D03*
G54D72*
X340000Y688000D02*
X331000Y688000D01*
X325000Y694000D01*
X325000Y728000D01*
X354000Y757000D01*
X202000Y914000D02*
G54D39*
D03*
X316027Y916954D02*
G54D39*
D03*
X22000Y875000D02*
G54D39*
D03*
X154000Y835000D02*
G54D39*
D03*
X147000Y877000D02*
G54D39*
D03*
X154000Y650000D02*
G54D39*
D03*
X203000Y774000D02*
G54D39*
D03*
X49000Y962000D02*
G54D39*
D03*
X207000Y677000D02*
G54D39*
D03*
X205000Y865000D02*
G54D39*
D03*
X272000Y797000D02*
G54D39*
D03*
X34000Y699000D02*
G54D39*
D03*
X124000Y819000D02*
G54D39*
D03*
X326000Y675000D02*
G54D39*
D03*
X340000Y633000D02*
G54D39*
D03*
X61000Y607000D02*
G54D39*
D03*
X21000Y850000D02*
G54D39*
D03*
X21000Y835000D02*
G54D39*
D03*
X53000Y850000D02*
G54D39*
D03*
X21000Y783000D02*
G54D39*
D03*
X109000Y649000D02*
G54D39*
D03*
X53000Y783000D02*
G54D39*
D03*
X15000Y905000D02*
G54D39*
D03*
X21000Y817000D02*
G54D39*
D03*
X121000Y935000D02*
G54D39*
D03*
X30000Y970000D02*
G54D40*
D03*
X340000Y970000D02*
G54D40*
D03*
X340000Y600000D02*
G54D40*
D03*
X30000Y600000D02*
G54D40*
D03*
X124000Y832000D02*
G54D39*
D03*
G54D72*
X124000Y832000D02*
X119000Y838000D01*
X119000Y843000D01*
X144000Y854000D02*
G54D69*
D03*
X144000Y843000D02*
G54D69*
D03*
X210500Y884500D02*
G54D69*
D03*
X210500Y895500D02*
G54D69*
D03*
G54D47*
X196500Y895500D02*
X210500Y895500D01*
X119000Y843000D02*
G54D70*
D03*
X130000Y843000D02*
G54D70*
D03*
X119000Y859000D02*
G54D70*
D03*
X130000Y859000D02*
G54D70*
D03*
G54D47*
X130000Y859000D02*
X130000Y843000D01*
X339027Y939954D02*
G54D39*
D03*
X326000Y776000D02*
G54D70*
D03*
X315000Y776000D02*
G54D70*
D03*
X326000Y761000D02*
G54D70*
D03*
X315000Y760999D02*
G54D70*
D03*
G54D47*
X290000Y783000D02*
X295000Y783000D01*
X306000Y772000D01*
X306000Y766000D01*
X311000Y761000D01*
X315000Y760999D01*
G54D47*
X307000Y788000D02*
X307000Y779000D01*
X310000Y776000D01*
X315000Y776000D01*
G54D72*
X206000Y841000D02*
X219000Y841000D01*
X228000Y832000D01*
X292000Y832000D01*
X180000Y656000D02*
G54D70*
D03*
X169000Y656000D02*
G54D70*
D03*
X180000Y670000D02*
G54D70*
D03*
X169000Y670000D02*
G54D70*
D03*
G54D72*
X121500Y672500D02*
X121500Y643500D01*
X128000Y637000D01*
G54D72*
X184000Y914000D02*
X184000Y925000D01*
X192000Y933000D01*
G54D47*
X130000Y859000D02*
X135000Y864000D01*
X189000Y864000D01*
G54D47*
X144000Y854000D02*
X144000Y860000D01*
X148000Y864000D01*
X237000Y846000D02*
G54D39*
D03*
G54D47*
X229000Y863000D02*
X229000Y850000D01*
X233000Y846000D01*
X237000Y846000D01*
X189000Y864000D02*
G54D39*
D03*
G54D47*
X237000Y863000D02*
X237000Y875500D01*
X234000Y878500D01*
X222500Y878500D01*
X216500Y884500D01*
X210500Y884500D01*
G54D47*
X210500Y895500D02*
X216500Y895500D01*
X228000Y884000D01*
X243000Y884000D01*
G54D41*
X12670Y929000D02*
X12670Y937889D01*
X14892Y937889D01*
X15781Y937333D01*
X16226Y936222D01*
X16226Y930667D01*
X15781Y929556D01*
X14892Y929000D01*
X12670Y929000D01*
G54D41*
X21115Y933444D02*
X22448Y932333D01*
X22893Y931222D01*
X22893Y929000D01*
G54D41*
X19337Y929000D02*
X19337Y937889D01*
X21559Y937889D01*
X22448Y937333D01*
X22893Y936222D01*
X22893Y935111D01*
X22448Y934000D01*
X21559Y933444D01*
X19337Y933444D01*
G54D41*
X26004Y929000D02*
X26004Y937889D01*
X28226Y932333D01*
X30448Y937889D01*
X30448Y929000D01*
G54D41*
X36759Y937889D02*
X36759Y929000D01*
X38981Y934556D01*
X41203Y929000D01*
X41203Y937889D01*
G54D41*
X44314Y933444D02*
X45203Y934000D01*
X46270Y934000D01*
X46981Y932889D01*
X46981Y929000D01*
G54D41*
X46981Y930667D02*
X46536Y931778D01*
X45647Y932000D01*
X44758Y931778D01*
X44314Y930667D01*
X44492Y929556D01*
X45203Y929000D01*
X45647Y929000D01*
X45825Y929000D01*
X46536Y929556D01*
X46981Y930667D01*
G54D41*
X50981Y937889D02*
X50981Y929556D01*
X51425Y929000D01*
X51870Y929222D01*
G54D41*
X50092Y934000D02*
X51870Y934000D01*
G54D41*
X57203Y933667D02*
X56314Y934000D01*
X55425Y933667D01*
X54981Y932556D01*
X54981Y930333D01*
X55425Y929222D01*
X56314Y929000D01*
X57203Y929222D01*
G54D41*
X60314Y929000D02*
X60314Y937889D01*
G54D41*
X60314Y932556D02*
X60758Y933667D01*
X61647Y934000D01*
X62536Y933667D01*
X62981Y932556D01*
X62981Y929000D01*
G54D41*
X69292Y937889D02*
X71514Y929000D01*
X73736Y937889D01*
G54D41*
X80403Y929000D02*
X76847Y929000D01*
X76847Y929556D01*
X77291Y930667D01*
X79958Y934000D01*
X80403Y935111D01*
X80403Y936222D01*
X79958Y937333D01*
X79069Y937889D01*
X78180Y937889D01*
X77291Y937333D01*
X76847Y936222D01*
G54D41*
X88492Y933444D02*
X89825Y932333D01*
X90270Y931222D01*
X90270Y929000D01*
G54D41*
X86714Y929000D02*
X86714Y937889D01*
X88936Y937889D01*
X89825Y937333D01*
X90270Y936222D01*
X90270Y935111D01*
X89825Y934000D01*
X88936Y933444D01*
X86714Y933444D01*
G54D41*
X96048Y929556D02*
X95337Y929000D01*
X94448Y929000D01*
X93559Y929556D01*
X93381Y930667D01*
X93381Y932556D01*
X93825Y933667D01*
X94714Y934000D01*
X95603Y933667D01*
X96048Y932889D01*
X96048Y931778D01*
X93381Y931778D01*
G54D41*
X99159Y934000D02*
X100937Y929000D01*
X102715Y934000D01*
G54D41*
X106182Y929000D02*
X105826Y929000D01*
X105826Y929444D01*
X106182Y929444D01*
X106182Y929000D01*
X105826Y929000D01*
G54D41*
X112849Y936222D02*
X112404Y937333D01*
X111515Y937889D01*
X110626Y937889D01*
X109737Y937333D01*
X109293Y936222D01*
X109293Y933444D01*
X109293Y932889D01*
X110626Y934000D01*
X111515Y934000D01*
X112404Y933444D01*
X112849Y932333D01*
X112849Y930667D01*
X112404Y929556D01*
X111515Y929000D01*
X110626Y929000D01*
X109737Y929556D01*
X109293Y930667D01*
X109293Y933444D01*
X21000Y800000D02*
G54D39*
D03*
G54D47*
X302500Y893500D02*
X302500Y910500D01*
X298000Y915000D01*
X288000Y915000D01*
X147000Y782000D02*
G54D39*
D03*
X170096Y700500D02*
G54D70*
D03*
X159096Y700500D02*
G54D70*
D03*
X170096Y686500D02*
G54D70*
D03*
X159096Y686500D02*
G54D70*
D03*
X149000Y714000D02*
G54D39*
D03*
X147000Y700000D02*
G54D39*
D03*
X146000Y686000D02*
G54D39*
D03*
G54D47*
X159096Y714500D02*
X151638Y714451D01*
X149000Y714000D01*
G54D47*
X159096Y700500D02*
X151969Y700451D01*
X151000Y700000D01*
X147000Y700000D01*
G54D47*
X159096Y686500D02*
X150701Y686518D01*
X149000Y686000D01*
X146000Y686000D01*
G54D47*
X165000Y782000D02*
X147000Y782000D01*
X184000Y717000D02*
G54D39*
D03*
X184000Y701000D02*
G54D39*
D03*
X184000Y685000D02*
G54D39*
D03*
G54D47*
X170096Y686500D02*
X177219Y686542D01*
X179000Y685000D01*
X184000Y685000D01*
G54D47*
X170096Y714500D02*
X181500Y714500D01*
X184000Y717000D01*
G54D47*
X170096Y700500D02*
X177127Y700549D01*
X178000Y701000D01*
X184000Y701000D01*
X288000Y863000D02*
G54D39*
D03*
X39000Y759000D02*
G54D39*
D03*
X14000Y710000D02*
G54D39*
D03*
X13000Y648000D02*
G54D39*
D03*
X303000Y608000D02*
G54D39*
D03*
X304000Y948000D02*
G54D39*
D03*
X60000Y671000D02*
G54D39*
D03*
X302000Y980000D02*
G54D51*
D03*
X68000Y980000D02*
G54D51*
D03*
G54D72*
X302000Y980000D02*
X303000Y980000D01*
X321000Y962000D01*
X321000Y933000D01*
M02*
