%FSLAX34Y34*%
%MOMM*%
%LNSILK_TOP*%
G71*
G01*
%ADD10C, 0.100*%
%ADD11C, 0.300*%
%LPD*%
G54D10*
X324000Y820000D02*
X342000Y820000D01*
X342000Y788000D01*
X324000Y788000D01*
X324000Y820000D01*
G36*
X278000Y792000D02*
X278000Y798000D01*
X272000Y792000D01*
X278000Y792000D01*
G37*
G54D10*
X278000Y792000D02*
X278000Y798000D01*
X272000Y792000D01*
X278000Y792000D01*
G54D11*
X83000Y640000D02*
X83000Y628000D01*
X83000Y634000D01*
X89000Y634000D01*
X77000Y634000D01*
G54D11*
X33000Y634000D02*
X45000Y634000D01*
G36*
X29000Y693000D02*
X35000Y693000D01*
X29000Y699000D01*
X29000Y693000D01*
G37*
G54D10*
X29000Y693000D02*
X35000Y693000D01*
X29000Y699000D01*
X29000Y693000D01*
G36*
X86000Y707000D02*
X92000Y707000D01*
X86000Y701000D01*
X86000Y707000D01*
G37*
G54D10*
X86000Y707000D02*
X92000Y707000D01*
X86000Y701000D01*
X86000Y707000D01*
G54D10*
X67500Y697500D02*
X67500Y674500D01*
X55500Y674500D01*
X55500Y697500D01*
X67500Y697500D01*
G54D10*
X127500Y693500D02*
X127500Y716500D01*
X115500Y716500D01*
X115500Y693500D01*
X127500Y693500D01*
G36*
X119000Y824000D02*
X119000Y819000D01*
X124000Y824000D01*
X119000Y824000D01*
G37*
G54D10*
X119000Y824000D02*
X119000Y819000D01*
X124000Y824000D01*
X119000Y824000D01*
G54D10*
X65000Y750000D02*
X83000Y750000D01*
X83000Y718000D01*
X65000Y718000D01*
X65000Y750000D01*
G54D10*
X176096Y708500D02*
X153096Y708500D01*
X153096Y720500D01*
X176096Y720500D01*
X176096Y708500D01*
G54D10*
X175500Y869900D02*
X175500Y892900D01*
X187500Y892900D01*
X187500Y869900D01*
X175500Y869900D01*
G36*
X152000Y871000D02*
X152000Y877000D01*
X146000Y871000D01*
X152000Y871000D01*
G37*
G54D10*
X152000Y871000D02*
X152000Y877000D01*
X146000Y871000D01*
X152000Y871000D01*
G54D10*
X176000Y925000D02*
X210000Y925000D01*
X210000Y903000D01*
X176000Y903000D01*
X176000Y925000D01*
G54D10*
X51000Y910000D02*
X28000Y910000D01*
X28000Y922000D01*
X51000Y922000D01*
X51000Y910000D01*
G54D10*
X51000Y894000D02*
X28000Y894000D01*
X28000Y906000D01*
X51000Y906000D01*
X51000Y894000D01*
G54D10*
X127500Y689500D02*
X127500Y666500D01*
X115500Y666500D01*
X115500Y689500D01*
X127500Y689500D01*
G54D10*
X191500Y820500D02*
X191500Y797500D01*
X179500Y797500D01*
X179500Y820500D01*
X191500Y820500D01*
G54D10*
X107938Y833658D02*
X84938Y833658D01*
X84938Y845658D01*
X107938Y845658D01*
X107938Y833658D01*
G54D10*
X107938Y853658D02*
X84938Y853658D01*
X84938Y865658D01*
X107938Y865658D01*
X107938Y853658D01*
G54D10*
X190500Y901500D02*
X190500Y878500D01*
X202500Y878500D01*
X202500Y901500D01*
X190500Y901500D01*
G54D10*
X160500Y833500D02*
X183500Y833500D01*
X183500Y845500D01*
X160500Y845500D01*
X160500Y833500D01*
G54D10*
X160000Y861000D02*
X183000Y861000D01*
X183000Y849000D01*
X160000Y849000D01*
X160000Y861000D01*
G54D10*
X296500Y876500D02*
X296500Y899500D01*
X308500Y899500D01*
X308500Y876500D01*
X296500Y876500D01*
G36*
X200502Y670385D02*
X206502Y670385D01*
X200502Y676385D01*
X200502Y670385D01*
G37*
G54D10*
X200502Y670385D02*
X206502Y670385D01*
X200502Y676385D01*
X200502Y670385D01*
G54D10*
X66000Y863000D02*
X8000Y863000D01*
X8000Y770000D01*
X66000Y770000D01*
X66000Y863000D01*
G54D10*
X68000Y710000D02*
X114000Y710000D01*
X114000Y678000D01*
X68000Y678000D01*
X68000Y710000D01*
G54D10*
X332000Y892000D02*
X362000Y892000D01*
X362000Y847000D01*
X332000Y847000D01*
X332000Y892000D01*
G54D10*
X332000Y726000D02*
X362000Y726000D01*
X362000Y681000D01*
X332000Y681000D01*
X332000Y726000D01*
G54D10*
X25000Y925000D02*
X309000Y925000D01*
X309000Y824000D01*
X345000Y824000D01*
X345000Y749000D01*
X309000Y749000D01*
X309000Y645000D01*
X25000Y645000D01*
X25000Y750000D01*
X85000Y750000D01*
X85000Y885000D01*
X25000Y885000D01*
X25000Y925000D01*
G54D10*
X256000Y920000D02*
X256000Y914000D01*
X259000Y914000D01*
X262000Y911000D01*
X262000Y923000D01*
X259000Y920000D01*
X256000Y920000D01*
G54D10*
X150000Y860000D02*
X150000Y837000D01*
X138000Y837000D01*
X138000Y860000D01*
X150000Y860000D01*
G54D10*
X204500Y878500D02*
X204500Y901500D01*
X216500Y901500D01*
X216500Y878500D01*
X204500Y878500D01*
G54D10*
X113000Y849000D02*
X136000Y849000D01*
X136000Y837000D01*
X113000Y837000D01*
X113000Y849000D01*
G54D10*
X113000Y865000D02*
X136000Y865000D01*
X136000Y853000D01*
X113000Y853000D01*
X113000Y865000D01*
G54D10*
X119000Y824000D02*
X152000Y824000D01*
X152000Y726000D01*
X119000Y726000D01*
X119000Y824000D01*
G54D10*
X278000Y792000D02*
X220000Y792000D01*
X220000Y849000D01*
X278000Y849000D01*
X278000Y792000D01*
G54D10*
X29000Y693000D02*
X49000Y693000D01*
X49000Y724000D01*
X29000Y724000D01*
X29000Y693000D01*
G54D10*
X200502Y670385D02*
X301000Y670385D01*
X301000Y731000D01*
X200502Y731000D01*
X200502Y670385D01*
G54D10*
X332000Y770000D02*
X309000Y770000D01*
X309000Y782000D01*
X332000Y782000D01*
X332000Y770000D01*
G54D10*
X332000Y755000D02*
X309000Y755000D01*
X309000Y767000D01*
X332000Y767000D01*
X332000Y755000D01*
G54D10*
X186000Y650000D02*
X163000Y650000D01*
X163000Y662000D01*
X186000Y662000D01*
X186000Y650000D01*
G54D10*
X186000Y664000D02*
X163000Y664000D01*
X163000Y676000D01*
X186000Y676000D01*
X186000Y664000D01*
G54D10*
X152000Y871000D02*
X114000Y871000D01*
X114000Y916000D01*
X152000Y916000D01*
X152000Y871000D01*
G54D10*
X176096Y694500D02*
X153096Y694500D01*
X153096Y706500D01*
X176096Y706500D01*
X176096Y694500D01*
G54D10*
X176096Y680500D02*
X153096Y680500D01*
X153096Y692500D01*
X176096Y692500D01*
X176096Y680500D01*
M02*
